<svg width="176" height="96" viewBox="0 0 176 96" fill="none" xmlns="http://www.w3.org/2000/svg">
<g clip-path="url(#clip0_710_7701)">
<path d="M176 66L164.041 47L158 54.3142L165.474 66H176Z" fill="#FFD301"/>
<path d="M150.551 50.49L175 22.5789H164.173L150.551 37.7025V0.0607895V0L141 0V66H150.551V50.49Z" fill="#FFD301"/>
<path d="M51 68H39.0083L22.9244 41.3893H11.2093L11.2093 67.5638H1L1 3L26.4339 3C28.4928 3 30.5346 3.45805 32.4574 4.13423L26.3956 12.5973H11.2093V32.2282H26.3658C28.6119 32.2282 30.7941 31.299 32.5042 29.8158C34.7034 27.9007 35.92 25.0826 35.9115 22.2121C35.903 20.7463 35.5755 19.3154 34.9672 18.0285L40.7694 10.0322C43.5174 13.4131 45.0446 17.6839 45.0744 22.1641C45.0914 27.8091 42.6922 33.1487 38.4936 36.8044C37.0133 38.0956 35.367 39.1295 33.6187 39.8842L51 68Z" fill="#FFD301"/>
<path d="M64.8778 92.8729H57.0458V88.8466H62.9111C63.0764 88.8466 63.1373 89.0345 63.5725 89.021V86.0371C63.1373 86.0729 63.0808 86.1624 62.9111 86.1624H57.0458V82.1361H64.8778V79.1566C64.8778 79.1566 64.8865 79.1566 64.8952 79.1566C65.091 79.1745 64.9692 79.1432 64.8778 79.1253V79H54V96H64.8778V92.9668C64.8778 92.9668 64.8865 92.9668 64.8952 92.9668C65.091 92.9847 64.9692 92.9534 64.8778 92.9355V92.8639V92.8729Z" fill="#FFD301"/>
<path d="M8.58329 79L5.73188 79.157L0 95H3.29552L4.28749 92.03H10.2643C10.3597 92.03 10.451 92.1445 10.5465 92.1403L11.6588 95H15L8.65385 79.2715L8.58744 79H8.58329ZM5.30437 89.0599L7.24267 83.7266L9.41339 89.0599H5.30437Z" fill="#FFD301"/>
<path d="M32.2711 79H21V96H24.5556V88.8421H29.8089C29.9689 88.8421 30.3333 89.0166 30.3333 88.9987V86.0103C30.3333 86.0461 29.9733 86.1579 29.8089 86.1579H24.5556V82.1316H32.2711C32.4933 82.1316 32.5556 82.1182 33 82.1047V79.1163C32.5556 79.1521 32.4933 79.0045 32.2711 79.0045V79Z" fill="#FFD301"/>
<path d="M37 82.1316H41.4444V96H44.5556V90.2737V88.6676V82.8876V82.1316H49V79H37V82.1316Z" fill="#FFD301"/>
<path d="M82.7382 88.3768C83.9082 87.3747 84.573 85.9118 84.5685 84.3639C84.5641 82.816 83.886 81.2861 82.7072 80.2929C81.7765 79.5055 80.5932 79 79.3834 79H72V96H75.1022V89.7368H78.302L82.3128 96H86L81.648 89.0926C82.0336 88.9003 82.4014 88.6632 82.7382 88.3724V88.3768ZM80.8325 86.1087C80.4204 86.4621 79.9019 86.6053 79.3612 86.6053H75.0934V82.1316H79.3745C79.9063 82.1316 80.4248 82.3016 80.8281 82.646C81.3422 83.08 81.6391 83.7063 81.6436 84.3863C81.6436 85.0618 81.3555 85.6568 80.8281 86.1087H80.8325Z" fill="#FFD301"/>
<path d="M153.746 88.2605C154.915 87.2584 155.579 85.7955 155.574 84.2476C155.57 82.6997 154.892 81.2279 153.715 80.2347C152.785 79.4474 151.603 79 150.394 79H143V96H146.099V89.7368H149.309L153.316 96H157L152.652 89.0345C153.037 88.8421 153.405 88.5424 153.741 88.256L153.746 88.2605ZM151.842 86.0684C151.43 86.4218 150.912 86.6097 150.372 86.6097H146.095V82.1361H150.39C150.921 82.1361 151.439 82.2479 151.842 82.5924C152.355 83.0263 152.652 83.6258 152.657 84.3013C152.657 84.9768 152.369 85.6166 151.842 86.0684Z" fill="#FFD301"/>
<path d="M170.012 86.0058L175.071 79H171.755L165.905 86.9855V79H163V96H165.905V91.6113L168.1 88.6318L172.531 96H176L170.012 86.0058Z" fill="#FFD301"/>
<path d="M111.964 90.3184L109.589 81.8184L108.811 79H107.185L106.381 81.8318L103.964 90.2424L100.217 79H97L102.335 96H105.627L107.981 87.6297L110.335 96H113.632L119 79H115.817L111.964 90.3184Z" fill="#FFD301"/>
<path d="M130.491 79C126.313 79 123 82.3991 123 86.6117V88.3883C123 92.6009 126.411 96 130.59 96C132.669 96 134.49 95.1513 135.87 93.7706C137.233 92.3898 138 90.4858 138 88.3883V86.6117C138 82.3991 134.67 79 130.491 79ZM135 87.8562C135 90.5957 133.08 92.6932 130.706 92.6932C128.331 92.6932 126.429 90.4462 126.429 87.8562V87.0251C126.429 84.6461 128.349 82.3024 130.706 82.3024C133.063 82.3024 135 84.7781 135 87.135V87.8518V87.8562Z" fill="#FFD301"/>
<path d="M82.6182 36.2573C84.1942 38.5525 85.0312 41.3163 85.0312 44.0451V45.9636C85.0312 49.5772 83.8995 52.7747 81.8836 55.1049C79.7739 57.5709 76.8142 59.0558 73.5512 59.0558C67.1493 59.0558 61.9688 52.9412 61.9688 45.9636V43.7079C61.9688 37.291 67.1962 30.9354 73.5982 30.9354C74.0936 30.9354 74.5891 30.9749 75.046 31.0493L80.6878 23.279C78.4883 22.4512 76.0241 22 73.547 22C62.2293 22 53 31.2158 53 42.5822V47.4178C53 58.7799 62.2335 68 73.5512 68C79.2016 68 84.3138 65.7048 88.0038 61.9817C91.7108 58.2586 94 53.1032 94 47.4222V42.5866C94 37.0764 91.8475 32.0874 88.3454 28.4037L82.6182 36.266V36.2573Z" fill="#FFD301"/>
<path d="M129.275 55.0663C127.192 57.0646 124.407 58.2662 121.411 58.2662C114.975 58.2662 109.661 52.2713 109.661 45.4496V43.2489C109.661 36.9612 114.975 30.7468 121.411 30.7468C123.754 30.7468 125.984 31.6167 127.824 33.0422L133.143 25.5314C129.834 23.3135 125.889 22 121.554 22C110.151 22 101 31.0267 101 42.1421V46.8579C101 57.9948 110.164 67 121.562 67C126.248 67 130.544 65.4625 134 62.8958L129.271 55.0706L129.275 55.0663Z" fill="#FFD301"/>
</g>
<defs>
<clipPath id="clip0_710_7701">
<rect width="176" height="96" fill="white"/>
</clipPath>
</defs>
</svg>
