<svg width="364" height="243" viewBox="0 0 364 243" fill="none" xmlns="http://www.w3.org/2000/svg">
<path d="M2.73405 25V0.463642H19.9796V4.1441H6.65987V25H2.73405ZM33.0115 17.9896H36.6569C36.0611 22.4763 32.6961 25.3505 27.6486 25.3505C22.0753 25.3505 18.1495 21.3897 18.1495 15.6061C18.1495 9.85756 22.0753 5.89669 27.6836 5.89669C32.9064 5.89669 36.3765 9.26168 36.3765 14.6597C36.3765 15.4308 36.3415 15.9917 36.3415 15.9917H21.865C22.0052 19.7422 24.2485 22.0556 27.6486 22.0556C30.6981 22.0556 32.4858 20.5835 33.0115 17.9896ZM27.6836 9.12147C24.9846 9.12147 23.0217 10.5937 22.2155 13.0823H32.7662C32.2754 10.5937 30.4878 9.12147 27.6836 9.12147ZM52.1085 6.24721H55.7539V25H52.1085V16.7277H42.8548V25H39.2094V6.24721H42.8548V13.3628H52.1085V6.24721ZM72.994 17.9896H76.6394C76.0435 22.4763 72.6785 25.3505 67.6311 25.3505C62.0578 25.3505 58.132 21.3897 58.132 15.6061C58.132 9.85756 62.0578 5.89669 67.6661 5.89669C72.8889 5.89669 76.359 9.26168 76.359 14.6597C76.359 15.4308 76.3239 15.9917 76.3239 15.9917H61.8475C61.9877 19.7422 64.231 22.0556 67.6311 22.0556C70.6806 22.0556 72.4682 20.5835 72.994 17.9896ZM67.6661 9.12147C64.9671 9.12147 63.0042 10.5937 62.198 13.0823H72.7487C72.2579 10.5937 70.4703 9.12147 67.6661 9.12147ZM89.1116 5.89669C94.5797 5.89669 97.9096 9.6823 97.9096 15.6061C97.9096 21.5649 94.5797 25.3505 89.1116 25.3505C86.4827 25.3505 84.3095 24.4041 82.8373 22.6165V30.9588H79.1919V6.24721H82.8373V8.59569C84.3095 6.8431 86.4477 5.89669 89.1116 5.89669ZM88.5157 22.0556C92.1611 22.0907 94.1941 19.6721 94.1941 15.6061C94.1941 11.5751 92.1611 9.15652 88.5157 9.19158C84.9755 9.22663 82.7322 11.6803 82.7322 15.6061C82.7322 19.5669 84.9755 22.0206 88.5157 22.0556ZM108.358 5.89669C113.019 5.89669 115.578 8.17507 115.578 11.9607V25H111.968V22.5814C110.776 24.4392 108.603 25.3505 105.834 25.3505C101.733 25.3505 99.2441 23.3876 99.2441 20.1278C99.2441 17.2185 101.032 15.6061 105.133 14.4494L108.848 13.4329C111.232 12.7669 111.933 12.5215 111.933 11.3998C111.933 10.2081 110.636 9.08642 108.182 9.08642C105.448 9.08642 103.941 10.4885 103.801 13.0823H100.12C100.331 8.42043 103.24 5.89669 108.358 5.89669ZM106.29 22.301C109.655 22.301 112.003 20.1979 112.003 16.4824V15.2556C111.407 15.7112 111.022 15.8865 109.549 16.3071L106.009 17.3236C103.941 17.8845 102.995 18.6205 102.995 19.9525C102.995 21.4247 104.221 22.301 106.29 22.301ZM136.183 6.24721V25H132.502V9.6122H124.791V13.2927C124.791 21.9855 123.564 25.1402 118.411 25.1402H117.15V21.6701H117.886C120.409 21.6701 121.146 20.1979 121.146 13.2927V6.24721H136.183ZM148.776 12.6617C153.403 12.6617 155.892 14.7999 155.892 18.7608C155.892 22.7216 153.193 25 148.461 25H139.628V6.24721H143.273V12.6617H148.776ZM148.321 21.6701C151.02 21.6701 152.317 20.7587 152.317 18.8309C152.317 16.9381 151.09 15.9566 148.601 15.9566H143.273V21.6701H148.321ZM171.2 6.24721H174.846V25H171.2V16.7277H161.947V25H158.301V6.24721H161.947V13.3628H171.2V6.24721ZM186.723 12.6617C191.35 12.6617 193.838 14.7999 193.838 18.7608C193.838 22.7216 191.139 25 186.407 25H178.275V6.24721H181.921V12.6617H186.723ZM196.292 6.24721H199.972V25H196.292V6.24721ZM186.267 21.6701C188.966 21.6701 190.263 20.7587 190.263 18.8309C190.263 16.9381 189.036 15.9566 186.548 15.9566H181.921V21.6701H186.267ZM211.796 4.95029C208.396 4.95029 206.152 3.47811 205.942 0.21828H209.202C209.412 1.69046 210.323 2.28634 211.796 2.28634C213.163 2.28634 214.214 1.65541 214.389 0.21828H217.649C217.439 3.44306 215.09 4.95029 211.796 4.95029ZM216.633 6.24721H220.208V25H216.633V11.7153L206.993 25H203.418V6.24721H206.993V19.5669L216.633 6.24721ZM18.4373 39.2472V58H14.7919V42.6122H5.71347V58H2.06806V39.2472H18.4373ZM29.933 38.8967C34.5949 38.8967 37.1537 41.1751 37.1537 44.9607V58H33.5433V55.5814C32.3516 57.4392 30.1783 58.3505 27.4092 58.3505C23.3082 58.3505 20.8195 56.3876 20.8195 53.1278C20.8195 50.2185 22.6071 48.6061 26.7082 47.4494L30.4237 46.4329C32.8072 45.7669 33.5083 45.5215 33.5083 44.3998C33.5083 43.2081 32.2114 42.0864 29.7577 42.0864C27.0237 42.0864 25.5164 43.4885 25.3762 46.0823H21.6958C21.9061 41.4204 24.8154 38.8967 29.933 38.8967ZM27.8649 55.301C31.2299 55.301 33.5784 53.1979 33.5784 49.4824V48.2556C32.9825 48.7112 32.5969 48.8865 31.1248 49.3071L27.5845 50.3236C25.5164 50.8845 24.57 51.6205 24.57 52.9525C24.57 54.4247 25.7969 55.301 27.8649 55.301ZM50.3272 38.8967C55.7953 38.8967 59.1252 42.6823 59.1252 48.6061C59.1252 54.5649 55.7953 58.3505 50.3272 58.3505C47.6983 58.3505 45.5251 57.4041 44.0529 55.6165V63.9588H40.4075V39.2472H44.0529V41.5957C45.5251 39.8431 47.6632 38.8967 50.3272 38.8967ZM49.7313 55.0556C53.3767 55.0907 55.4097 52.6721 55.4097 48.6061C55.4097 44.5751 53.3767 42.1565 49.7313 42.1916C46.1911 42.2266 43.9477 44.6803 43.9477 48.6061C43.9477 52.5669 46.1911 55.0206 49.7313 55.0556ZM66.2865 58V42.6122H59.9421V39.2472H76.2763V42.6122H69.9319V58H66.2865ZM91.3722 39.2472H95.0176V58H91.3722V49.7277H82.1185V58H78.4731V39.2472H82.1185V46.3628H91.3722V39.2472ZM112.258 50.9896H115.903C115.307 55.4763 111.942 58.3505 106.895 58.3505C101.321 58.3505 97.3956 54.3897 97.3956 48.6061C97.3956 42.8576 101.321 38.8967 106.93 38.8967C112.153 38.8967 115.623 42.2617 115.623 47.6597C115.623 48.4308 115.588 48.9917 115.588 48.9917H101.111C101.251 52.7422 103.495 55.0556 106.895 55.0556C109.944 55.0556 111.732 53.5835 112.258 50.9896ZM106.93 42.1215C104.231 42.1215 102.268 43.5937 101.462 46.0823H112.012C111.522 43.5937 109.734 42.1215 106.93 42.1215ZM128.375 38.8967C133.843 38.8967 137.173 42.6823 137.173 48.6061C137.173 54.5649 133.843 58.3505 128.375 58.3505C125.746 58.3505 123.573 57.4041 122.101 55.6165V63.9588H118.456V39.2472H122.101V41.5957C123.573 39.8431 125.711 38.8967 128.375 38.8967ZM127.779 55.0556C131.425 55.0907 133.458 52.6721 133.458 48.6061C133.458 44.5751 131.425 42.1565 127.779 42.1916C124.239 42.2266 121.996 44.6803 121.996 48.6061C121.996 52.5669 124.239 55.0206 127.779 55.0556Z" fill="#262626"/>
<g clip-path="url(#clip0_710_7688)">
<path d="M142 152H158.355V108.032H180V93H142V152Z" fill="#6933B0"/>
<path d="M107.739 139.103C105.961 139.21 104.183 138.889 102.513 138.245C100.843 137.602 99.3346 136.638 98.0416 135.352C96.8025 134.119 95.7788 132.565 95.1323 130.958C94.4858 129.296 94.2164 127.528 94.2703 125.76H134.569C134.569 125.76 134.838 122.759 134.838 119.597C134.838 101.753 124.225 92 107.685 92C90.1758 92 78 104.646 78 122.812C78 140.978 90.0142 154 107.524 154C123.794 154 134.677 144.676 135 130.958H118.999C118.514 133.476 117.06 135.727 115.012 137.281C112.911 138.781 110.325 139.478 107.739 139.156V139.103ZM107.739 105.557C109.086 105.397 110.433 105.45 111.78 105.825C113.073 106.201 114.312 106.79 115.389 107.594C116.467 108.398 117.383 109.469 118.029 110.648C118.676 111.827 119.107 113.113 119.268 114.453H95.2401C96.0482 111.774 97.7183 109.416 100.035 107.808C102.352 106.201 105.099 105.397 107.955 105.557H107.793H107.739Z" fill="#6933B0"/>
<path d="M49.8013 93L38.5 129.13L27.5232 93H9.46278L0 152H15.0323L20.764 115.279L31.849 152H44.7725L56.236 114.635L61.7514 152H77L67.5913 93H49.8013Z" fill="#6933B0"/>
<path d="M209.124 92C191.755 92 181.86 100.545 182.291 115.055H199.176C199.176 108.875 202.402 106.134 209.124 106.134C213.964 106.134 216.975 108.122 216.975 111.186C216.975 113.174 216.222 113.926 213.265 114.732L199.875 118.441C186.808 121.987 181 127.362 181 136.283C181 146.869 188.69 153.91 199.982 153.91C203.585 154.286 207.242 153.48 210.361 151.652C213.48 149.825 215.953 147.031 217.405 143.753V152.674H233V113.228C232.785 98.9863 223.751 92 209.07 92H209.124ZM203.316 140.152C199.176 140.152 197.132 138.163 197.132 135.208C197.132 132.252 198.584 130.747 203.048 129.35L217.19 125.373V126.448C217.19 128.275 216.921 130.102 216.222 131.768C215.523 133.434 214.502 134.993 213.211 136.283C211.92 137.572 210.361 138.593 208.694 139.238C206.973 139.883 205.199 140.206 203.37 140.152H203.316Z" fill="#6933B0"/>
<path d="M314 168V183.086H330.864V227H347.136V183.086H364V168H314Z" fill="#6933B0"/>
<path d="M254.703 168H236.658L223.908 189.904H217.37V168H201V227H217.37V204.399H223.8L237.523 227H256L237.901 196.883L254.703 168Z" fill="#6933B0"/>
<path d="M109.124 167C91.7549 167 81.8066 175.537 82.2906 190.034H99.1758C99.1758 183.859 102.402 181.121 109.124 181.121C113.964 181.121 116.975 183.161 116.975 186.221C116.975 188.154 116.222 188.906 113.211 189.765L99.8211 193.47C86.8076 197.013 81 202.383 81 211.295C81 221.819 88.6898 228.906 99.9824 228.906C103.585 229.282 107.242 228.53 110.361 226.651C113.48 224.826 115.953 222.034 117.352 218.651V227.564H133V188.047C132.785 173.98 123.751 167 109.07 167H109.124ZM103.209 215.107C99.122 215.107 97.0786 213.121 97.0786 210.114C97.0786 207.107 98.5305 205.658 102.994 204.423L117.083 200.45V201.416C117.083 203.242 116.814 205.067 116.115 206.732C115.416 208.45 114.394 209.953 113.103 211.242C111.813 212.53 110.253 213.55 108.533 214.195C106.812 214.839 104.983 215.161 103.155 215.107H103.209Z" fill="#6933B0"/>
<path d="M172.512 167.032C169.099 166.819 165.685 167.671 162.759 169.536C159.887 171.347 157.665 174.064 156.419 177.207V168.364H140V243H156.419V218.388C157.665 221.478 159.941 224.141 162.813 225.952C165.685 227.764 169.099 228.563 172.512 228.35C186.005 228.35 195 218.015 195 197.718C195 177.42 186.113 167.032 172.512 167.032ZM168.015 213.38C160.483 213.38 155.985 208.319 155.985 197.718C155.985 187.116 160.483 182.002 167.906 182.002C175.33 182.002 179.015 187.116 179.015 197.718C179.015 208.319 175.222 213.38 167.906 213.38H168.015Z" fill="#6933B0"/>
<path d="M49.8013 168L38.5 204.13L27.5232 168H9.46278L0 227H15.0323L20.764 190.279L31.849 227H44.7725L56.236 189.635L61.7514 227H77L67.5913 168H49.8013Z" fill="#6933B0"/>
<path d="M282.657 214.144C280.881 214.197 279.105 213.929 277.436 213.285C275.768 212.642 274.261 211.676 273.023 210.389C271.785 209.156 270.762 207.654 270.116 205.991C269.47 204.329 269.201 202.559 269.255 200.789H309.516C309.516 200.789 309.785 197.785 309.785 194.621C309.785 176.815 299.235 167 282.657 167C265.164 167 253 179.711 253 197.785C253 215.86 265.003 229 282.496 229C298.751 229 309.623 219.668 310 205.938H294.014C293.53 208.458 292.13 210.765 290.031 212.266C287.932 213.822 285.348 214.465 282.765 214.144H282.657ZM282.657 180.569C284.003 180.408 285.348 180.462 286.694 180.837C287.986 181.213 289.224 181.803 290.3 182.607C291.377 183.412 292.292 184.484 292.938 185.664C293.584 186.844 294.014 188.131 294.176 189.472H270.116C270.924 186.791 272.592 184.431 274.907 182.822C277.221 181.213 280.02 180.408 282.819 180.569H282.657Z" fill="#6933B0"/>
</g>
<defs>
<clipPath id="clip0_710_7688">
<rect width="364" height="151" fill="white" transform="translate(0 92)"/>
</clipPath>
</defs>
</svg>
