<svg width="260" height="73" viewBox="0 0 260 73" fill="none" xmlns="http://www.w3.org/2000/svg">
<path fill-rule="evenodd" clip-rule="evenodd" d="M88.6939 1.25622C88.9543 0.740241 89.3528 0.224258 89.5782 0.121061C89.8211 0.000665188 90.1506 -0.0337338 90.3586 0.0350641C91.156 0.327454 91.2949 0.619843 97.6581 16.2197C107.403 40.1096 108.2 41.9501 109.657 43.8593C110.021 44.3407 110.628 44.9943 110.992 45.2694C111.685 45.8198 113.072 46.3187 113.888 46.3187C114.39 46.3187 114.91 46.7141 114.91 47.0927C114.91 47.2302 114.737 47.4537 114.529 47.5916C114.182 47.8323 113.107 47.8666 106.241 47.8666C98.3519 47.8666 97.1901 47.7807 96.9821 47.2646C96.8432 46.8692 97.0515 46.4906 97.4675 46.4219C99.6868 46.0265 99.9297 45.9574 100.225 45.6135C100.381 45.4072 100.519 45.149 100.519 45.0287C100.519 44.6161 95.6469 32.1464 95.4389 32.0088C95.1614 31.8368 81.5853 31.8368 81.3079 32.0088C81.0475 32.1808 77.5974 41.0214 77.0945 42.7928C76.6436 44.4095 76.661 45.149 77.181 45.7339C77.545 46.1812 77.7185 46.2156 79.1232 46.3015C79.9726 46.3703 80.7701 46.4735 80.8915 46.5422C81.221 46.766 81.1344 47.4881 80.7704 47.6947C80.545 47.7979 77.8399 47.8666 73.1411 47.8666H65.8416L65.5813 47.4537C65.0613 46.6797 65.3733 46.4391 67.142 46.2328C68.3383 46.0952 69.7081 45.3901 70.419 44.5817C70.7484 44.2032 71.2859 43.3261 71.6153 42.6552C71.9448 41.9672 75.8287 32.5936 80.2326 21.8095C84.6369 11.0255 88.4514 1.77221 88.6939 1.25622ZM94.2251 28.4313L91.3989 20.8464C89.8557 16.6669 88.5379 13.227 88.5034 13.1926C88.4168 13.1066 88.1739 13.7086 84.9143 22.2223C83.6831 25.4902 82.6602 28.2077 82.6602 28.2937C82.6602 28.3625 85.2609 28.4313 88.4514 28.4313H94.2251ZM11.6749 1.46262C11.7443 1.15303 11.935 0.705841 12.1258 0.465048C12.6286 -0.15413 13.3742 -0.050933 14.0157 0.740241C14.2758 1.06703 18.3331 9.11637 23.0319 18.6276C27.7134 28.1389 31.5799 35.9303 31.5973 35.9647C31.6146 35.9819 32.7763 33.6599 34.1634 30.8048C46.2485 5.98606 48.7281 0.929435 49.0227 0.516646C49.2656 0.189859 49.543 0.0522633 49.8899 0.0522633C50.4794 0.0522633 50.8434 0.361852 51.0863 1.11863C51.1903 1.42822 52.5946 10.5439 54.2244 21.3795C55.8542 32.2152 57.2934 41.5543 57.4323 42.122C57.7963 43.7215 58.1952 44.547 58.8367 45.0975C59.4436 45.6307 61.3508 46.3187 62.2002 46.3187C63.0671 46.3187 63.622 46.611 63.5526 47.0411C63.4486 47.8323 63.1366 47.8666 54.6407 47.8666C47.7743 47.8666 46.6125 47.8323 46.422 47.6088C46.11 47.2302 46.3525 46.5078 46.8209 46.4219L46.904 46.4047C49.2492 45.923 49.2844 45.9159 49.4216 45.2866C49.5256 44.8396 49.0747 41.1933 47.7223 31.5272C46.7169 24.2863 45.8325 18.0429 45.7631 17.6473C45.6417 16.9249 45.6245 16.9593 41.7406 24.871C32.8457 43.0507 30.6783 47.3162 30.2275 47.6088C29.2739 48.2277 29.0831 47.9698 25.9101 42.0188C22.9972 36.5667 20.1189 30.7876 16.6685 23.5811C15.1601 20.382 13.877 17.7677 13.825 17.7677C13.7209 17.7677 10.5826 41.2964 10.4092 43.2229C10.2358 45.4588 10.8253 46.0089 13.8423 46.3187C14.6919 46.4047 15.4548 46.525 15.5589 46.5766C15.8536 46.766 15.7496 47.5056 15.4028 47.6947C15.1774 47.7979 12.4899 47.8666 7.86038 47.8666C0.803489 47.8666 0.647441 47.8666 0.283326 47.5056C0.0925987 47.3162 -0.0287733 47.0583 0.00590441 46.9552C0.127276 46.5766 0.890186 46.3187 1.86116 46.3187C3.64705 46.3187 4.53136 45.5276 5.03418 43.5324C5.19022 42.9303 6.71604 33.3503 8.44994 22.2395C10.1664 11.1287 11.6229 1.77221 11.6749 1.46262ZM208.297 0.895036C208.436 0.619843 208.679 0.327454 208.835 0.241457C209.338 -0.0509331 209.598 0.0178646 210.17 0.619843C210.517 0.998232 213.846 7.5512 219.29 18.5932C224.007 28.1561 227.908 35.9819 227.96 35.9991C228.012 35.9991 231.913 28.0529 236.629 18.3352C242.992 5.26368 245.35 0.585446 245.697 0.344653C246.079 0.0522633 246.235 0.0178646 246.582 0.189859C246.824 0.293055 247.136 0.602645 247.275 0.877837C247.431 1.18743 248.766 9.54633 250.587 21.5687C252.251 32.6796 253.743 42.2251 253.899 42.7928C254.28 44.2375 254.904 45.2178 255.667 45.6135C256.551 46.0609 258.147 46.4906 258.875 46.4906C259.499 46.4906 260.106 46.8864 259.984 47.2474C259.794 47.8323 259.187 47.8666 250.951 47.8151C243.53 47.7807 242.802 47.7635 242.646 47.4881C242.351 47.0411 242.94 46.525 243.894 46.4047C245.472 46.1812 245.819 45.9402 245.819 44.9771C245.836 44.1344 242.143 17.5441 242.004 17.3721C241.935 17.3033 238.675 23.8047 234.739 31.8196C230.803 39.8345 227.37 46.7141 227.11 47.0927C226.711 47.6775 226.555 47.7807 226.052 47.7807C225.272 47.7807 225.133 47.5572 222.047 41.7266C219.013 36.0163 216.533 31.08 212.962 23.5811C211.436 20.3992 210.17 17.8193 210.135 17.8537C209.979 18.0084 206.806 42.6724 206.806 43.7902C206.806 44.9771 206.858 45.1834 207.222 45.5448C207.725 46.0437 208.575 46.2843 210.274 46.4219C212.164 46.5938 212.684 46.9895 211.8 47.5916C211.47 47.8323 210.43 47.8666 204.119 47.8666C196.525 47.8666 196.403 47.8494 196.403 47.1443C196.403 46.7141 196.837 46.5594 198.275 46.4391C199.004 46.3875 199.749 46.2156 199.975 46.0609C200.547 45.6995 201.032 44.8912 201.344 43.8249C201.483 43.3432 203.044 33.6083 204.812 22.1707C206.598 10.7331 208.159 1.15303 208.297 0.895036ZM115.552 2.32259C115.378 1.9614 115.413 1.8582 115.76 1.58301C116.141 1.27342 116.592 1.25622 124.794 1.25622C133.914 1.25622 134.503 1.30782 134.503 2.013C134.503 2.54618 134.174 2.80417 133.463 2.80417C132.648 2.80417 131.643 3.09656 131.382 3.40615C131.07 3.76734 131.382 4.52411 132.717 6.70844C134.712 9.97632 140.607 18.8168 140.763 18.7652C141.075 18.662 148.739 7.44802 149.519 5.96887C150.247 4.57571 150.316 3.62974 149.692 3.23416C149.467 3.07936 148.721 2.90737 148.028 2.85577C146.9 2.76977 146.294 2.51178 146.294 2.13339C146.294 2.0646 146.398 1.8582 146.536 1.66901C146.779 1.35942 147.091 1.34222 153.697 1.29062C161.066 1.25622 161.413 1.29062 161.517 2.08179C161.587 2.54618 161.222 2.70097 159.506 2.95896C157.859 3.21696 157.078 3.61255 156.125 4.7305C155.518 5.45289 143.78 21.5687 143.294 22.3599C143.225 22.4803 145.375 25.7826 148.565 30.4436C157.338 43.2401 157.841 43.9109 159.055 44.8396C160.078 45.6135 161.5 46.1468 162.922 46.2672C163.546 46.3187 164.205 46.4391 164.378 46.525C164.777 46.7313 164.76 47.4709 164.343 47.6947C164.118 47.7979 160.876 47.8666 155.015 47.8666C147.161 47.8666 145.982 47.8323 145.635 47.5916C145.202 47.2818 145.132 46.8004 145.514 46.4906C145.652 46.3703 146.328 46.2156 147.005 46.1468C148.513 45.9746 148.86 45.7167 148.6 44.9083C148.322 43.9969 138.873 29.4117 138.578 29.4117C138.405 29.4117 129.666 42.5865 129.128 43.6527C128.244 45.4416 128.573 46.1124 130.377 46.3015C131.989 46.4735 132.544 47.0067 131.695 47.5916C131.365 47.8323 130.377 47.8666 124.499 47.8666C118.552 47.8666 117.667 47.8323 117.442 47.5916C116.852 47.0239 117.251 46.525 118.465 46.3015C119.8 46.0609 121.153 45.3041 122.262 44.186C123.06 43.3776 132.561 30.564 135.7 26.0578L136.098 25.473L129.596 15.8069C122.522 5.28087 121.967 4.6101 119.869 3.66416C119.228 3.37177 118.136 3.07936 117.251 2.94177C115.933 2.75257 115.708 2.68377 115.552 2.32259ZM169.233 2.42578C168.869 2.0302 169.077 1.58301 169.719 1.41102C169.944 1.34222 173.966 1.29062 178.631 1.27342C187.456 1.25622 187.907 1.29062 188.046 1.9786C188.15 2.49458 187.629 2.75257 186.243 2.85577C183.59 3.07936 183.104 3.64693 182.879 6.79443C182.671 9.59794 182.671 36.9793 182.879 40.8147C183.052 44.1344 183.208 44.874 183.798 45.4244C184.352 45.9402 185.081 46.1296 187.127 46.2672C188.08 46.3187 189.034 46.4391 189.259 46.5078C189.745 46.6969 189.762 47.2474 189.259 47.5916C188.913 47.8323 187.681 47.8666 179.394 47.8666C170.499 47.8666 169.892 47.8495 169.528 47.5572C169.25 47.3334 169.164 47.1443 169.251 46.8692C169.389 46.4735 169.615 46.4047 171.66 46.2328C173.776 46.0265 174.088 45.476 174.383 41.3824C174.608 38.321 174.608 8.01561 174.383 6.08924C174.105 3.66412 173.446 3.04496 170.932 2.85577C169.874 2.78697 169.458 2.68377 169.233 2.42578ZM104.221 72.5146C104.922 72.8382 105.699 73 106.553 73C107.374 73 108.129 72.8436 108.819 72.5308C109.52 72.218 110.122 71.7919 110.625 71.2525C111.14 70.7024 111.539 70.0822 111.824 69.3918C112.109 68.6907 112.251 67.9625 112.251 67.2075C112.251 66.474 112.114 65.762 111.84 65.0717C111.567 64.3813 111.184 63.7557 110.691 63.1948C110.198 62.6338 109.602 62.1862 108.901 61.8518C108.211 61.5174 107.445 61.3502 106.602 61.3502C105.77 61.3502 105.004 61.512 104.303 61.8356C103.613 62.1484 103.011 62.5799 102.497 63.13C101.993 63.6694 101.594 64.2896 101.298 64.9908C101.013 65.6811 100.871 66.4092 100.871 67.1751C100.871 67.9086 101.008 68.6259 101.282 69.3271C101.555 70.0174 101.939 70.6431 102.431 71.204C102.935 71.7541 103.531 72.191 104.221 72.5146ZM103.4 68.6152C103.247 68.1513 103.17 67.6713 103.17 67.1751C103.17 66.7005 103.241 66.2366 103.384 65.7836C103.537 65.3306 103.756 64.9206 104.04 64.5539C104.325 64.1871 104.675 63.8959 105.091 63.6802C105.518 63.4536 106.011 63.3404 106.569 63.3404C107.095 63.3404 107.565 63.4482 107.981 63.664C108.408 63.8689 108.764 64.1548 109.049 64.5215C109.344 64.8775 109.569 65.2874 109.722 65.7512C109.886 66.2043 109.968 66.6789 109.968 67.1751C109.968 67.6389 109.892 68.1028 109.739 68.5666C109.596 69.0197 109.383 69.435 109.098 69.8125C108.813 70.1792 108.458 70.4759 108.031 70.7024C107.604 70.9181 107.117 71.026 106.569 71.026C106.033 71.026 105.551 70.9235 105.124 70.7186C104.708 70.5028 104.352 70.217 104.057 69.861C103.772 69.4943 103.553 69.079 103.4 68.6152ZM13.9552 65.3791V72.9191H16.2213V61.4311H13.8074L10.3261 67.9679L6.87769 61.4311H4.44737V72.9191H6.71348V65.3791L9.70211 70.9936H10.9665L13.9552 65.3791ZM32.5969 61.4311H30.298L25.9956 72.9191H28.3274L29.3948 70.0552H33.4672L34.5509 72.9191H36.8827L32.5969 61.4311ZM31.4474 63.7449L33.0567 68.4857H29.7725L31.4474 63.7449ZM47.8499 61.4311L50.7401 65.6703L53.6137 61.4311H56.0769L52.0373 67.256L55.9455 72.9191H53.4824L50.7401 68.8417L47.9813 72.9191H45.5017L49.4099 67.256L45.3704 61.4311H47.8499ZM65.7243 61.4311V72.9191H67.99V61.4311H65.7243ZM88.4038 72.9191V65.3791L85.4152 70.9936H84.1507L81.1621 65.3791V72.9191H78.896V61.4311H81.3263L84.7747 67.9679L88.256 61.4311H90.6699V72.9191H88.4038ZM124.729 65.5409V72.9191H122.462V61.4311H124.269L130.295 69.0035V61.4473H132.561V72.9191H130.673L124.729 65.5409ZM145.726 61.4311H143.46V72.9191H151.671V70.9613H145.726V61.4311ZM161.523 61.4311H163.789V72.9191H161.523V61.4311ZM176.961 72.9191V65.5409L182.905 72.9191H184.794V61.4473H182.528V69.0035L176.501 61.4311H174.695V72.9191H176.961ZM203.788 70.9613V72.9191H195.693V61.4311H203.64V63.3889H197.959V66.1557H202.869V67.9679H197.959V70.9613H203.788ZM213.765 70.5891V72.9191H215.572V70.5891H213.765ZM226.189 61.4311H231.346C231.882 61.4311 232.375 61.539 232.824 61.7547C233.283 61.9704 233.678 62.2617 234.006 62.6284C234.345 62.9952 234.603 63.4051 234.778 63.8581C234.964 64.3112 235.057 64.775 235.057 65.2496C235.057 65.7351 234.969 66.2043 234.794 66.6573C234.63 67.0996 234.389 67.4879 234.072 67.8223C233.754 68.1567 233.382 68.4156 232.955 68.599L235.615 72.9191H233.119L230.722 69.0682H228.456V72.9191H226.189V61.4311ZM228.456 67.1104H231.296C231.581 67.1104 231.833 67.0295 232.052 66.8677C232.271 66.6951 232.446 66.4686 232.577 66.1881C232.709 65.9076 232.774 65.5948 232.774 65.2496C232.774 64.8829 232.698 64.5647 232.544 64.295C232.391 64.0145 232.194 63.7934 231.953 63.6316C231.723 63.4698 231.472 63.3889 231.198 63.3889H228.456V67.1104ZM248.097 72.547C248.754 72.849 249.547 73 250.478 73C251.376 73 252.147 72.8544 252.793 72.5631C253.439 72.2611 253.965 71.8512 254.37 71.3334C254.786 70.8049 255.087 70.1954 255.273 69.5051C255.47 68.8147 255.568 68.0758 255.568 67.2884V61.4311H253.319V67.2884C253.319 67.7522 253.27 68.2106 253.171 68.6637C253.072 69.1059 252.914 69.5051 252.695 69.861C252.487 70.217 252.197 70.5028 251.824 70.7186C251.463 70.9235 251.009 71.026 250.462 71.026C249.925 71.026 249.476 70.9235 249.115 70.7186C248.754 70.5136 248.464 70.2332 248.245 69.8772C248.026 69.5212 247.867 69.1221 247.768 68.6799C247.681 68.2268 247.637 67.763 247.637 67.2884V61.4311H245.371V67.2884C245.371 68.0327 245.464 68.75 245.65 69.4403C245.836 70.1199 246.126 70.7294 246.52 71.2687C246.926 71.8081 247.451 72.2341 248.097 72.547Z" fill="#262626"/>
</svg>
