<svg width="349" height="91" viewBox="0 0 349 91" fill="none" xmlns="http://www.w3.org/2000/svg">
<g clip-path="url(#clip0_805_147)">
<path d="M166.197 51.8981V31.533L174.812 51.8981H182.136L190.751 31.533V51.8981H198.325V20.8516H187.671L178.474 42.3391L169.318 20.8516H158.623V51.8981H166.197Z" fill="white"/>
<path d="M214.405 52.4388C218.401 52.4388 221.688 51.3996 224.227 49.2799C226.766 47.1603 228.056 44.2094 228.056 40.4273C228.056 36.6868 226.766 33.7359 224.227 31.6162C221.688 29.4965 218.401 28.416 214.405 28.416C210.369 28.416 207.04 29.4965 204.501 31.6162C201.962 33.7359 200.714 36.6868 200.714 40.4273C200.714 44.2094 201.962 47.1603 204.501 49.2799C207.04 51.3996 210.369 52.4388 214.405 52.4388ZM214.364 46.2874C210.868 46.2874 208.413 44.0431 208.413 40.4273C208.413 36.8945 210.868 34.5671 214.364 34.5671C217.901 34.5671 220.315 36.8945 220.315 40.4273C220.315 44.0431 217.901 46.2874 214.364 46.2874Z" fill="white"/>
<path d="M241.52 52.4388C245.099 52.4388 248.012 51.7322 250.302 50.3191C252.591 48.906 253.754 46.994 253.754 44.542C253.754 42.4223 252.923 40.7599 251.258 39.5544C249.635 38.3492 247.679 37.6843 245.39 37.6427L239.064 37.435C237.108 37.3934 236.276 37.0194 236.276 35.8139C236.276 34.3592 237.816 33.6526 240.896 33.6526C243.933 33.6526 245.515 34.4425 245.723 36.0633H253.38C253.172 33.528 251.882 31.6579 249.51 30.3694C247.138 29.0809 244.266 28.416 240.896 28.416C237.4 28.416 234.528 29.1226 232.323 30.5357C230.117 31.9488 229.035 33.8606 229.035 36.3128C229.035 38.2662 229.826 39.8454 231.407 41.0508C233.03 42.256 234.986 42.8795 237.275 42.9209L243.601 43.1288C245.557 43.1705 246.555 43.6691 246.555 45.0406C246.555 46.4953 244.891 47.2019 241.52 47.2019C238.482 47.2019 236.235 46.1628 236.068 44.5003H228.452C228.619 47.1189 229.909 49.0723 232.281 50.4437C234.695 51.7736 237.774 52.4388 241.52 52.4388Z" fill="white"/>
<path d="M268.063 52.4388C271.558 52.4388 274.471 51.6076 276.845 49.9865C279.217 48.3657 280.673 46.0797 281.214 43.1288H273.266C272.392 45.2485 270.644 46.2874 268.063 46.2874C264.693 46.2874 262.154 44.0431 262.154 40.4273C262.154 36.8115 264.608 34.5671 268.063 34.5671C270.644 34.5671 272.392 35.6063 273.266 37.7257H281.214C280.173 31.7825 275.096 28.416 268.063 28.416C264.069 28.416 260.781 29.4965 258.242 31.6162C255.703 33.7359 254.455 36.6868 254.455 40.4273C254.455 44.168 255.703 47.1189 258.242 49.2383C260.781 51.358 264.069 52.4388 268.063 52.4388Z" fill="white"/>
<path d="M295.526 52.4388C299.521 52.4388 302.808 51.3996 305.347 49.2799C307.886 47.1603 309.177 44.2094 309.177 40.4273C309.177 36.6868 307.886 33.7359 305.347 31.6162C302.808 29.4965 299.521 28.416 295.526 28.416C291.49 28.416 288.159 29.4965 285.623 31.6162C283.084 33.7359 281.836 36.6868 281.836 40.4273C281.836 44.2094 283.084 47.1603 285.623 49.2799C288.159 51.3996 291.49 52.4388 295.526 52.4388ZM295.484 46.2874C291.989 46.2874 289.535 44.0431 289.535 40.4273C289.535 36.8945 291.989 34.5671 295.484 34.5671C299.021 34.5671 301.435 36.8945 301.435 40.4273C301.435 44.0431 299.021 46.2874 295.484 46.2874Z" fill="white"/>
<path d="M323.993 51.8983L328.28 38.5155L332.524 51.8983H340.347L348.92 28.9563H340.889L336.353 44.1264L331.4 28.9563H325.159L320.371 44.1264L315.67 28.9563H307.637L316.169 51.8983H323.993Z" fill="white"/>
<path fill-rule="evenodd" clip-rule="evenodd" d="M37.4828 9.9744L41.5867 1.92268L37.8046 0L33.9751 7.51316C32.5778 6.64749 31.1464 5.88777 29.6992 5.23225C23.1794 2.27892 16.2847 1.41936 10.7663 2.59245C5.25604 3.76383 0.656025 7.14018 0.0727558 12.889C-0.409231 17.6395 1.52784 21.4667 5.16173 24.3148C8.68141 27.0734 13.783 28.9255 19.8529 30.1292C20.6256 30.2823 21.4177 30.4257 22.2284 30.5595L10.7884 53.0044L13.6165 55.867L37.5737 44.0904L48.2144 51.9134L51.5769 50.4798C52.4843 43.508 52.1817 37.3357 50.9822 31.9335C54.5304 31.8251 58.1909 31.6408 61.9383 31.3883C59.5552 34.0203 58.2488 37.1906 57.6804 40.1689C57.1816 42.7832 57.2308 45.3187 57.6314 47.3409C57.8312 48.3479 58.1317 49.2976 58.5454 50.0891C58.9223 50.8109 59.5657 51.7324 60.6239 52.1632C61.7563 52.6244 62.8976 52.4048 63.7307 52.1108C64.5992 51.8042 65.4677 51.2996 66.2773 50.7399C67.905 49.6144 69.6427 48.0206 71.1948 46.4594C71.5657 46.0861 71.9299 45.7109 72.2839 45.3392C72.3154 46.2794 72.4148 47.1746 72.5868 47.9712C72.7478 48.7159 72.9939 49.4811 73.3804 50.1507C73.7631 50.8139 74.3819 51.5471 75.3476 51.9146C76.3681 52.3031 77.3919 52.1393 78.2516 51.7264C78.9494 51.3911 79.595 50.8717 80.1981 50.2477L80.1989 50.2485L80.2166 50.2285C80.3139 50.1273 80.41 50.0236 80.5052 49.9174L81.9194 48.3375L81.9137 48.3322C83.6282 46.3579 86.3193 42.778 88.675 39.5638C88.6705 40.7802 88.7254 41.9707 88.8282 43.0839C89.0167 45.123 89.3797 47.0602 89.9192 48.5476C90.1848 49.2801 90.5375 50.0301 91.0251 50.6356C91.4982 51.2238 92.3532 51.9735 93.6017 51.9645C94.2352 51.9598 94.8077 51.763 95.2371 51.5726C95.6924 51.3709 96.1513 51.1014 96.5969 50.8034C97.4886 50.2073 98.4902 49.3868 99.5444 48.4332C101.429 46.7289 103.621 44.4708 105.877 41.9729C105.906 42.1081 105.935 42.2422 105.964 42.3751C106.457 44.6359 106.94 46.6042 107.392 48.0699C107.617 48.7962 107.852 49.4601 108.1 49.9946C108.223 50.2599 108.375 50.5484 108.561 50.8144C108.719 51.039 109.046 51.4611 109.589 51.7369C110.444 52.1712 111.286 52.0303 111.777 51.8857C112.297 51.7324 112.783 51.4708 113.196 51.2093C114.032 50.68 114.958 49.8979 115.891 49.0226C117.778 47.2524 119.999 44.8062 122.093 42.3736C123.207 41.0799 124.296 39.7762 125.296 38.5588C125.149 40.0632 125.041 41.5872 124.999 43.0211C124.937 45.1133 125.008 47.1956 125.386 48.7693C125.569 49.5314 125.882 50.4337 126.499 51.138C126.83 51.5155 127.279 51.8702 127.863 52.0757C128.456 52.2841 129.058 52.2921 129.612 52.1687C131.567 51.7326 133.426 50.3424 135.021 48.8231C136.674 47.2484 138.31 45.2726 139.806 43.2746C140.176 42.7805 140.54 42.2806 140.897 41.7805C140.354 44.7645 139.726 48.2168 139.058 51.8802C132.924 54.7035 128.285 56.8466 124.913 58.4083C122.309 59.6137 120.461 60.4729 119.263 61.0306C118.664 61.3096 118.228 61.5133 117.941 61.6471C117.798 61.7142 117.692 61.7638 117.621 61.7967L117.517 61.8458H117.516L116.296 63.7641C116.296 63.7641 116.296 63.7653 116.296 63.7666V63.7691V63.7755V63.7927L116.296 63.8149L116.297 63.8434C116.297 63.8845 116.299 63.9401 116.301 64.0094C116.306 64.1483 116.315 64.3425 116.332 64.5873C116.367 65.0767 116.436 65.7691 116.57 66.624C116.839 68.3325 117.373 70.701 118.434 73.4011C120.564 78.8195 124.811 85.5447 133.213 90.9155L136.442 89.5285C137.445 84.2879 140.069 69.976 142.44 56.9872C142.573 56.2559 142.706 55.5287 142.837 54.8074C145.662 53.5085 148.777 52.0769 152.202 50.505L154.13 49.6199L152.358 45.7688L150.429 46.6538C148.063 47.7401 145.844 48.7595 143.766 49.7144C144.446 45.9869 145.067 42.5725 145.576 39.7737C145.99 37.5007 146.329 35.6339 146.565 34.3352L146.933 32.308L146.933 32.3065L146.934 32.306L143.066 30.7735C142.778 31.2167 142.433 31.7617 142.04 32.383L142.038 32.3853C140.645 34.5872 138.645 37.748 136.407 40.7363C134.977 42.6461 133.502 44.4127 132.092 45.7563C131.069 46.7301 130.197 47.3671 129.499 47.7229C129.269 46.7162 129.182 45.123 129.241 43.146C129.358 39.1816 130.027 34.3728 130.573 31.5595L126.806 29.8664L126.764 29.9208C126.736 29.9574 126.693 30.0125 126.638 30.0843C126.526 30.2282 126.362 30.4401 126.151 30.7096C125.73 31.2489 125.124 32.019 124.389 32.9395C122.917 34.7822 120.933 37.219 118.875 39.6104C116.806 42.0136 114.703 44.3217 112.985 45.9338C112.44 46.4457 111.962 46.8593 111.56 47.1739C111.524 47.0635 111.487 46.946 111.448 46.8211C111.049 45.5277 110.596 43.6972 110.11 41.4728C109.872 40.3793 109.628 39.2018 109.381 37.9612C113.611 32.9669 117.741 27.5493 120.219 23.6077L120.536 22.2914C120.19 18.4435 117.657 13.094 114.337 8.78915C112.649 6.60037 110.674 4.5684 108.53 3.07036C106.399 1.58196 103.955 0.520782 101.383 0.539453L99.2977 2.95917V2.95979L99.317 3.09255C99.3295 3.17999 99.3482 3.30951 99.3726 3.47834C99.4218 3.81597 99.494 4.31086 99.5866 4.9409C99.7721 6.20091 100.04 8.00174 100.369 10.1666C101.028 14.4953 101.932 20.2839 102.919 26.1165C103.534 29.7535 104.182 33.4182 104.823 36.762C104.394 37.2559 103.967 37.7438 103.54 38.2237C101.043 41.035 98.6517 43.5222 96.6955 45.2918C95.7129 46.1806 94.8841 46.8483 94.2362 47.2814C94.1633 47.33 94.0949 47.3743 94.0305 47.4147C93.9921 47.3235 93.9514 47.2205 93.9095 47.1046C93.5387 46.0821 93.2244 44.5364 93.0542 42.6945C92.7099 38.9709 93.0073 34.67 94.091 31.929L90.3825 29.9305L90.2854 30.0676C90.2215 30.1581 90.1269 30.2918 90.0053 30.4633C89.7619 30.8064 89.4102 31.3013 88.9775 31.9068C88.1115 33.1185 86.9227 34.7722 85.6293 36.5424C83.0138 40.122 80.0593 44.0542 78.4551 45.8413L77.112 47.3377C77.0222 47.4292 76.94 47.5075 76.8659 47.5741C76.8217 47.4357 76.777 47.2709 76.7353 47.0774C76.292 45.0256 76.5359 41.6413 77.339 39.3741L73.6862 37.3402C73.6852 37.3392 73.6852 37.3392 73.6852 37.3392L73.6849 37.3394L73.6797 37.3459L73.6595 37.3708C73.6413 37.3933 73.6135 37.4274 73.5766 37.4726C73.5027 37.5631 73.3929 37.6969 73.2508 37.868C72.9665 38.21 72.5548 38.6992 72.0495 39.2831C71.0362 40.4534 69.6585 41.9891 68.1831 43.4733C66.6922 44.9729 65.1694 46.3509 63.8618 47.2552C63.2035 47.7102 62.6854 47.9844 62.3165 48.1146L62.303 48.1193C62.13 47.785 61.9398 47.2499 61.7947 46.5179C61.5034 45.049 61.4487 43.0624 61.8494 40.9625C62.6028 37.0143 64.892 32.9138 69.9583 30.938L76.1644 34.3726L78.2214 30.6653L71.1778 26.7672L69.5089 26.5481L67.3944 26.7248C61.2742 27.2369 55.3832 27.579 49.8206 27.7263C47.2588 20.0326 42.7637 14.1513 37.4828 9.9744ZM27.9462 9.09212C29.329 9.71842 30.7018 10.4549 32.0423 11.3052L24.2535 26.5865C23.0158 26.4035 21.8235 26.1988 20.6794 25.9719C14.8732 24.8207 10.5341 23.1378 7.78183 20.9807C5.14378 18.9131 3.97775 16.4437 4.29505 13.3163C4.6227 10.0868 7.15969 7.69247 11.6499 6.73794C16.132 5.78513 22.1013 6.44447 27.9462 9.09212ZM17.4629 49.2522L26.6755 31.1776C32.618 31.8625 39.3574 32.122 46.6469 32.0283C47.6717 36.2155 48.0986 40.9602 47.7316 46.2953L39.0513 39.9138L36.8562 39.7191L17.4629 49.2522ZM28.7351 27.1367C33.7309 27.6363 39.3154 27.8465 45.3475 27.8026C43.1175 21.8474 39.5878 17.2343 35.5141 13.8369L28.7351 27.1367ZM104.565 9.53012C104.316 7.89508 104.103 6.46868 103.934 5.32774C104.627 5.61717 105.35 6.02168 106.097 6.5433C107.794 7.72907 109.469 9.42326 110.975 11.3752C113.799 15.0383 115.738 19.2221 116.218 21.9913C114.291 24.9629 111.445 28.767 108.355 32.5586C107.933 30.2409 107.511 27.8251 107.103 25.4109C106.122 19.6094 105.221 13.8455 104.565 9.53012ZM126.698 62.2532C129.552 60.9316 133.316 59.1921 138.128 56.9755C136.179 67.6491 134.089 79.0548 132.881 85.5141C127.072 81.0758 124.01 75.9877 122.385 71.8523C121.454 69.4844 120.992 67.4218 120.763 65.966C120.71 65.6324 120.67 65.3313 120.639 65.0662L121.057 64.872C122.252 64.3156 124.097 63.4577 126.698 62.2532Z" fill="#E21C13"/>
<path d="M94.7619 19.0852L90.7891 25.3058L94.3362 27.5695L98.309 21.3492L94.7619 19.0852Z" fill="#E21C13"/>
</g>
<defs>
<clipPath id="clip0_805_147">
<rect width="349" height="91" fill="white"/>
</clipPath>
</defs>
</svg>
