<svg width="266" height="98" viewBox="0 0 266 98" fill="none" xmlns="http://www.w3.org/2000/svg">
<path d="M57.959 60.76C44.3047 69.8106 2.30469 97.7694 2.30469 97.7694L89.7615 97.5965L57.959 60.76Z" fill="#000202"/>
<path d="M59.8601 57.82C73.0535 49.4035 81.4074 42.1976 81.4074 28.5929V27.2094C80.428 11.0106 68.2716 0 52.0823 0H0V0.0576471V97.5965C0 97.5965 42 69.6376 55.6543 60.5871C58.0741 59.0306 59.572 58.0506 59.8601 57.82ZM53.7531 14.0659C61.1852 14.0659 67.2346 20.1188 67.2346 27.5553C67.2346 34.9918 61.1852 41.0447 53.7531 41.0447C46.321 41.0447 40.2716 34.9918 40.2716 27.5553C40.2716 20.0612 46.321 14.0659 53.7531 14.0659Z" fill="#000202"/>
<path d="M107.218 46.9247C107.967 48.3082 109.004 49.3458 110.444 50.2105C111.827 51.0176 113.498 51.4211 115.456 51.4211C116.897 51.4211 118.164 51.1905 119.316 50.6717C120.469 50.1529 121.448 49.5188 122.255 48.6541C123.061 47.847 123.695 46.867 124.156 45.7141C124.559 44.5611 124.79 43.3505 124.79 42.0247H118.51C118.452 42.7164 118.164 43.4082 117.819 44.0999C117.415 44.7917 116.609 45.1376 115.456 45.1376C114.535 45.1376 113.786 44.8494 113.209 44.3305C112.633 43.8117 112.403 43.0623 112.403 42.0247V37.8741H124.847V29.1694C124.847 27.7858 124.617 26.5176 124.214 25.3646C123.81 24.1541 123.177 23.1164 122.37 22.2517C121.563 21.387 120.584 20.6952 119.432 20.1764C118.279 19.6576 116.954 19.427 115.514 19.427C113.555 19.427 111.942 19.8305 110.502 20.6376C109.119 21.4446 108.024 22.5399 107.275 23.9235C106.814 24.7305 106.526 25.7105 106.354 26.7482C106.181 27.8435 106.123 28.9964 106.123 30.2646V40.5835C106.123 41.8517 106.181 43.0047 106.354 44.0999C106.411 45.1952 106.757 46.1176 107.218 46.9247ZM112.288 29.2846C112.288 28.0741 112.576 27.2094 113.094 26.5752C113.67 25.9988 114.419 25.6529 115.341 25.6529C116.263 25.6529 117.012 25.9411 117.588 26.5752C118.164 27.1517 118.395 28.0741 118.395 29.2846V32.5705H112.23V29.2846H112.288Z" fill="#000202"/>
<path d="M138.156 51.0753L146.28 19.7729H139.654L135.448 39.7765H135.333L131.127 19.7729H124.444L132.625 51.0753H138.156Z" fill="#000202"/>
<path d="M164.198 46.9247C164.659 46.1176 164.947 45.1376 165.12 44.0999C165.293 43.0047 165.35 41.8517 165.35 40.5835V30.2646C165.35 28.9964 165.293 27.8435 165.12 26.7482C164.947 25.6529 164.659 24.7305 164.198 23.9235C163.449 22.5399 162.412 21.5023 160.972 20.6376C159.589 19.8305 157.918 19.427 155.959 19.427C154 19.427 152.387 19.8305 150.947 20.6376C149.564 21.4446 148.47 22.5399 147.721 23.9235C147.26 24.7305 146.972 25.7105 146.799 26.7482C146.626 27.8435 146.568 28.9964 146.568 30.2646V40.5835C146.568 41.8517 146.626 43.0047 146.799 44.0999C146.972 45.1952 147.26 46.1176 147.721 46.9247C148.47 48.3082 149.507 49.3458 150.947 50.2105C152.33 51.0176 154 51.4211 155.959 51.4211C157.918 51.4211 159.531 51.0176 160.972 50.2105C162.354 49.4035 163.449 48.3082 164.198 46.9247ZM159.07 41.5635C159.07 42.7741 158.782 43.6388 158.264 44.2729C157.688 44.8494 156.939 45.1952 156.017 45.1952C155.095 45.1952 154.346 44.907 153.77 44.2729C153.194 43.6964 152.963 42.7741 152.963 41.5635V29.2846C152.963 28.0741 153.251 27.2094 153.77 26.5752C154.346 25.9988 155.095 25.6529 156.017 25.6529C156.939 25.6529 157.688 25.9411 158.264 26.5752C158.84 27.1517 159.07 28.0741 159.07 29.2846V41.5635Z" fill="#000202"/>
<path d="M174.856 42.2553V10.2612H168.576V42.6589C168.576 44.4459 168.807 45.9448 169.21 47.0977C169.613 48.2506 170.247 49.1153 171.054 49.8071C171.86 50.4412 172.84 50.9024 173.992 51.0753C175.144 51.3059 176.469 51.4212 177.909 51.4212V45.5412C176.7 45.4259 175.893 45.1377 175.49 44.7342C175.086 44.273 174.856 43.4659 174.856 42.2553Z" fill="#000202"/>
<path d="M186.206 51.4212C187.646 51.4212 188.798 51.0753 189.778 50.4412C190.699 49.8071 191.506 49 192.14 48.02H192.255V51.0177H198.535V19.7729H192.255V40.8141C192.255 42.1977 192.025 43.2929 191.564 44.0424C191.103 44.7918 190.296 45.1377 189.086 45.1377C188.107 45.1377 187.358 44.7918 186.782 44.1577C186.263 43.5235 185.975 42.6012 185.975 41.4482V19.7729H179.753V43.8118C179.753 45.1953 179.926 46.4059 180.329 47.3859C180.675 48.3659 181.193 49.1153 181.827 49.7494C182.461 50.3835 183.152 50.7871 183.901 51.0753C184.65 51.3059 185.457 51.4212 186.206 51.4212Z" fill="#000202"/>
<path d="M210.922 44.7341C210.634 44.5036 210.404 44.2153 210.231 43.8118C210.058 43.4083 210 42.8318 210 42.0824V24.7306H216.28V51.0753H222.56V19.773H222.502H210V10.3188H203.72V19.8306H200.552V24.7883H203.72V43.8118C203.72 44.6188 203.836 45.4836 204.124 46.3483C204.412 47.213 204.815 48.02 205.391 48.7118C205.967 49.4035 206.716 49.98 207.696 50.4412C208.675 50.9024 209.885 51.133 211.325 51.133H213.918V45.1377C213.227 45.1377 212.651 45.1377 212.132 45.08C211.613 45.0224 211.21 44.9071 210.922 44.7341Z" fill="#000202"/>
<path d="M243.128 23.9235C242.379 22.5399 241.342 21.5023 239.901 20.6376C238.519 19.8305 236.848 19.427 234.889 19.427C232.93 19.427 231.317 19.8305 229.877 20.6376C228.494 21.4446 227.399 22.5399 226.65 23.9235C226.189 24.7305 225.901 25.7105 225.728 26.7482C225.556 27.8435 225.498 28.9964 225.498 30.2646V40.5835C225.498 41.8517 225.556 43.0047 225.728 44.0999C225.901 45.1952 226.189 46.1176 226.65 46.9247C227.399 48.3082 228.436 49.3458 229.877 50.2105C231.259 51.0176 232.93 51.4211 234.889 51.4211C236.848 51.4211 238.461 51.0176 239.901 50.2105C241.284 49.4035 242.379 48.3082 243.128 46.9247C243.589 46.1176 243.877 45.1376 244.049 44.0999C244.222 43.0047 244.28 41.8517 244.28 40.5835V30.2646C244.28 28.9964 244.222 27.8435 244.049 26.7482C243.877 25.7105 243.531 24.7305 243.128 23.9235ZM238 41.5635C238 42.7741 237.712 43.6388 237.194 44.2729C236.617 44.8494 235.868 45.1952 234.947 45.1952C234.025 45.1952 233.276 44.907 232.7 44.2729C232.124 43.6964 231.893 42.7741 231.893 41.5635V29.2846C231.893 28.0741 232.181 27.2094 232.7 26.5752C233.276 25.9988 234.025 25.6529 234.947 25.6529C235.868 25.6529 236.617 25.9411 237.194 26.5752C237.77 27.1517 238 28.0741 238 29.2846V41.5635Z" fill="#000202"/>
<path d="M265.424 23.5199C265.078 22.5399 264.559 21.7905 263.926 21.1564C263.292 20.5223 262.6 20.1188 261.852 19.8305C261.045 19.5423 260.296 19.427 259.489 19.427C258.049 19.427 256.897 19.7729 255.917 20.407C254.996 21.0411 254.189 21.8482 253.555 22.8282H253.498V19.8305H247.218V51.1329H253.498V30.0341C253.498 28.6505 253.728 27.5552 254.189 26.8058C254.65 26.0564 255.456 25.7105 256.666 25.7105C257.646 25.7105 258.395 26.0564 258.971 26.6905C259.489 27.3246 259.777 28.247 259.777 29.3999V51.0752H266.057V27.0941C266 25.6529 265.827 24.4999 265.424 23.5199Z" fill="#000202"/>
<path d="M99.2095 26.5753C99.2095 25.5376 100.074 25.0188 101.802 25.0188H104.395V19.3694H101.802C95.9832 19.3694 93.0449 21.6176 93.0449 26.0564L93.1025 51.0176H99.2671L99.2095 26.5753Z" fill="#000202"/>
<path d="M219.96 16.2687C221.687 15.9842 222.856 14.3529 222.572 12.6251C222.287 10.8973 220.657 9.72733 218.93 10.0119C217.204 10.2964 216.034 11.9277 216.319 13.6555C216.603 15.3833 218.233 16.5533 219.96 16.2687Z" fill="#000202"/>
<path d="M169.382 60.8752C169.382 59.0881 167.942 57.7046 166.214 57.7046C164.485 57.7046 163.045 59.1458 163.045 60.8752C163.045 62.6622 164.485 64.0458 166.214 64.0458C167.942 64.0458 169.382 62.6046 169.382 60.8752Z" fill="#000202"/>
<path d="M99.4408 64.1036V63.5848C99.4408 62.1436 100.074 61.3942 101.284 61.3942H104.165V55.4565H101.227C100.19 55.4565 99.2103 55.6295 98.2309 55.9177C97.2514 56.206 96.3873 56.7248 95.6383 57.4165C94.8893 58.1083 94.2556 58.973 93.7947 60.0107C93.3338 61.0483 93.1033 62.3742 93.1033 63.873V64.1036V65.2565V66.1212H89.9922V71.0789H93.1033V97.5965H99.4408V71.0789H104.165V66.1212H99.4408V65.2565V64.1036Z" fill="#000202"/>
<path d="M111.884 84.2801V88.546C111.884 89.526 112.172 90.333 112.749 90.8519C113.325 91.3707 114.074 91.6589 114.995 91.6589C116.205 91.6589 117.012 91.313 117.358 90.6213C117.761 89.9295 117.991 89.2377 118.049 88.4883H124.386C124.386 89.8142 124.156 91.0824 123.753 92.2354C123.292 93.3883 122.658 94.3683 121.851 95.233C121.045 96.0977 120.008 96.7895 118.856 97.3083C117.703 97.8272 116.378 98.0577 114.938 98.0577C112.979 98.0577 111.308 97.6542 109.925 96.7895C108.543 95.9824 107.448 94.8872 106.699 93.5036C106.238 92.6966 105.95 91.7166 105.777 90.6213C105.604 89.526 105.547 88.373 105.547 87.1048V76.7283C105.547 75.4601 105.604 74.2495 105.777 73.2119C105.95 72.1166 106.238 71.1942 106.699 70.3295C107.448 68.946 108.543 67.8507 109.925 67.0436C111.308 66.2366 113.037 65.7754 114.938 65.7754C116.378 65.7754 117.703 66.006 118.856 66.5248C120.008 67.0436 121.045 67.7354 121.851 68.6001C122.658 69.4648 123.292 70.5601 123.695 71.713C124.156 72.9236 124.329 74.1919 124.329 75.5754V84.2801H111.884ZM111.884 79.2648H118.107V75.633C118.107 74.4224 117.818 73.5577 117.242 72.9236C116.666 72.3472 115.917 72.0013 114.995 72.0013C114.016 72.0013 113.267 72.2895 112.749 72.9236C112.172 73.5001 111.884 74.4224 111.884 75.633V79.2648Z" fill="#000202"/>
<path d="M140 74.9411C139.942 73.8458 139.597 73.0387 138.963 72.5199C138.329 72.0011 137.58 71.7129 136.774 71.7129C135.794 71.7129 134.988 72.0587 134.469 72.6929C133.951 73.327 133.663 74.0764 133.663 74.8834C133.663 75.4599 133.835 76.0364 134.124 76.6128C134.412 77.1893 135.161 77.7081 136.37 78.1117L140.115 79.6105C142.477 80.5329 144.091 81.7434 145.012 83.3576C145.877 84.914 146.338 86.6434 146.338 88.4881C146.338 89.814 146.107 91.0246 145.646 92.1776C145.185 93.3305 144.494 94.3105 143.687 95.1752C142.881 96.0399 141.844 96.7317 140.691 97.2505C139.539 97.7693 138.272 97.9999 136.889 97.9999C135.622 97.9999 134.469 97.7693 133.375 97.3658C132.28 96.9623 131.301 96.3281 130.436 95.5787C129.572 94.7717 128.881 93.7917 128.362 92.6387C127.844 91.4858 127.556 90.1023 127.498 88.4881H133.432C133.547 89.3529 133.835 90.1599 134.354 90.9093C134.815 91.6587 135.679 92.0046 136.889 92.0046C137.811 92.0046 138.617 91.7164 139.366 91.0823C140.115 90.5058 140.461 89.6411 140.461 88.5458C140.461 87.6811 140.231 86.9317 139.77 86.2976C139.309 85.6634 138.502 85.1446 137.292 84.6834L134.239 83.5881C132.28 82.8387 130.667 81.7434 129.572 80.2446C128.42 78.8034 127.844 76.9587 127.844 74.8834C127.844 73.5576 128.074 72.347 128.593 71.194C129.111 70.0411 129.745 69.0611 130.609 68.254C131.473 67.447 132.453 66.8129 133.547 66.3517C134.642 65.8905 135.852 65.6599 137.177 65.6599C138.445 65.6599 139.654 65.8905 140.749 66.3517C141.844 66.8129 142.766 67.447 143.572 68.254C144.379 69.0611 144.955 70.0411 145.416 71.194C145.877 72.347 146.107 73.5576 146.107 74.8258H140V74.9411Z" fill="#000202"/>
<path d="M150.37 56.5518H156.707V66.1212H160.625V71.0788H156.707V88.5459C156.707 89.2953 156.765 89.8718 156.938 90.2753C157.111 90.6788 157.283 91.0247 157.629 91.1976C157.917 91.4282 158.321 91.5435 158.839 91.5435C159.358 91.6012 159.934 91.6012 160.625 91.6012V97.5388H158.032C156.592 97.5388 155.382 97.3082 154.403 96.847C153.423 96.3859 152.674 95.8094 152.098 95.1176C151.522 94.4259 151.119 93.6188 150.831 92.7541C150.543 91.8894 150.428 91.0247 150.428 90.16V71.0212H147.259V66.0635H150.428V56.5518H150.37Z" fill="#000202"/>
<path d="M162.987 66.1211H169.325V97.5964H162.987V66.1211Z" fill="#000202"/>
<path d="M185.688 97.5964H180.099L171.918 66.1211H178.601L182.807 86.2399H182.922L187.128 66.1211H193.811L185.688 97.5964Z" fill="#000202"/>
<path d="M207.465 94.3683H207.35C206.543 95.5213 205.679 96.4436 204.815 97.0201C203.951 97.6542 202.798 97.9424 201.243 97.9424C200.494 97.9424 199.745 97.8272 198.938 97.5966C198.132 97.366 197.44 96.9625 196.749 96.3283C196.058 95.7519 195.481 94.8872 195.078 93.7919C194.617 92.6966 194.444 91.2554 194.444 89.526C194.444 87.7389 194.617 86.1824 194.905 84.8566C195.193 83.5307 195.712 82.3777 196.461 81.513C197.21 80.6483 198.247 79.9566 199.514 79.553C200.782 79.0919 202.453 78.9189 204.411 78.9189C204.872 78.9189 205.333 78.9189 205.794 78.9766C206.255 79.0342 206.831 79.0342 207.465 79.0919V75.806C207.465 74.7107 207.234 73.846 206.774 73.1542C206.313 72.4625 205.506 72.1166 204.296 72.1166C203.49 72.1166 202.741 72.4048 202.049 72.9236C201.358 73.4425 200.897 74.2495 200.724 75.2872H194.56C194.79 72.4048 195.712 70.1566 197.44 68.4272C198.247 67.6201 199.284 66.9283 200.436 66.4672C201.588 66.006 202.913 65.7754 204.354 65.7754C205.679 65.7754 206.946 66.006 208.099 66.4095C209.251 66.813 210.288 67.4472 211.095 68.2542C211.959 69.0613 212.592 70.0989 213.111 71.3672C213.63 72.6354 213.86 74.0766 213.86 75.6907V97.5966H207.523V94.3683H207.465ZM207.465 84.0495C206.774 83.9342 206.197 83.8766 205.737 83.8766C204.354 83.8766 203.202 84.2225 202.222 84.8566C201.243 85.4907 200.782 86.6436 200.782 88.373C200.782 89.5836 201.07 90.5636 201.646 91.313C202.222 92.0624 203.029 92.4083 204.066 92.4083C205.16 92.4083 205.967 92.0625 206.601 91.3707C207.177 90.6789 207.523 89.6989 207.523 88.373V84.0495H207.465Z" fill="#000202"/>
<path d="M222.618 88.7189V56.7825H216.28V89.1801C216.28 91.0248 216.511 92.466 216.914 93.6766C217.375 94.8295 217.951 95.7519 218.758 96.386C219.564 97.0201 220.544 97.4813 221.754 97.7119C222.906 97.9425 224.231 98.0578 225.671 98.0578V92.1201C224.461 92.0048 223.655 91.7166 223.194 91.2554C222.848 90.7366 222.618 89.9295 222.618 88.7189Z" fill="#000202"/>
</svg>
