<svg width="301" height="96" viewBox="0 0 301 96" fill="none" xmlns="http://www.w3.org/2000/svg">
<path d="M55.3508 8.58696C55.3281 15.3093 55.3964 17.0359 55.624 16.8978C55.7607 16.8057 56.6714 16.1841 57.6277 15.5165C58.584 14.8719 59.4947 14.2963 59.6541 14.2272C59.8362 14.1812 59.2442 11.9942 57.6504 7.1366L55.3736 0.115019L55.3508 8.58696Z" fill="black"/>
<path d="M51.867 7.34387C50.7514 10.8662 49.8634 13.836 49.8862 13.9511C49.8862 14.0662 50.7969 14.7568 51.867 15.4705L53.8479 16.7827L53.9162 12.7539C53.939 10.5439 53.939 6.97552 53.9162 4.83451L53.8479 0.943865L51.867 7.34387Z" fill="black"/>
<path d="M47.6778 20.3049L46.084 25.2085L47.951 27.0042L49.818 28.7769L49.9546 27.9251C50.3189 25.4617 51.0475 17.22 50.9337 16.7596C50.8198 16.3452 49.7497 15.4243 49.3627 15.4243C49.3171 15.4243 48.5658 17.6344 47.6778 20.3049Z" fill="black"/>
<path d="M59.358 15.7926C58.4473 16.2991 58.2424 17.0127 58.5156 18.8314C58.6522 19.6832 58.9482 22.2156 59.1759 24.4717C59.4036 26.7278 59.654 28.6156 59.6995 28.6617C59.7451 28.7307 60.5875 27.971 61.5438 26.9811L63.297 25.1854L61.817 20.3969C60.9974 17.7724 60.3371 15.5624 60.3371 15.5163C60.3371 15.3552 59.9955 15.4473 59.358 15.7926Z" fill="black"/>
<path d="M128.916 17.8876C128.984 18.4632 129.075 18.5322 130.009 18.6013C132.24 18.7164 132.058 18.279 132.058 23.4819V28.0862H132.855H133.652V23.3668V18.6704L135.086 18.6013C136.43 18.5322 136.498 18.5092 136.566 17.8876L136.634 17.266H132.741H128.848L128.916 17.8876Z" fill="black"/>
<path d="M147.312 22.6762V28.0863H148.064C148.906 28.0863 148.656 28.4086 151.775 23.3208C152.64 21.8935 153.414 20.7193 153.528 20.7193C153.619 20.7193 153.688 22.3769 153.688 24.4028V28.0863H154.485H155.281V22.6762V17.2661H154.53C153.779 17.2661 153.688 17.3812 151.547 20.9496C150.318 22.9755 149.225 24.633 149.111 24.633C148.997 24.633 148.906 23.0676 148.906 20.9496V17.2661H148.109H147.312V22.6762Z" fill="black"/>
<path d="M167.121 22.6761V28.0862H167.918H168.715V23.5049C168.715 18.279 168.556 18.6473 170.878 18.6473C173.2 18.6473 173.041 18.279 173.041 23.5049V28.0862H173.838H174.635V22.6761V17.266H170.878H167.121V22.6761Z" fill="black"/>
<path d="M186.475 22.6761V28.0862H187.112C187.932 28.0862 188.046 27.9481 190.231 24.2876C191.21 22.6301 192.144 21.1337 192.303 20.9495C192.577 20.6732 192.622 21.2027 192.622 24.3567V28.0862H193.419H194.216V22.6761V17.266H193.419C192.986 17.266 192.622 17.3581 192.622 17.4732C192.622 17.5883 192.121 18.5092 191.484 19.4991C190.869 20.4891 189.935 22.0545 189.389 22.9524C188.843 23.8732 188.342 24.6329 188.251 24.6329C188.137 24.6329 188.068 22.9754 188.068 20.9495V17.266H187.272H186.475V22.6761Z" fill="black"/>
<path d="M205.828 19.9596C205.851 23.7581 206.306 24.2876 209.562 24.1495L211.406 24.0574L211.475 26.0603L211.543 28.0862H212.317H213.114V22.6761V17.266H212.317H211.52V19.7754C211.52 21.2488 211.429 22.3538 211.293 22.4459C211.156 22.538 210.496 22.6531 209.813 22.7222C208.879 22.8142 208.424 22.7682 207.991 22.4689C207.445 22.1006 207.422 22.0085 207.422 19.6833V17.266H206.625H205.828V19.9596Z" fill="black"/>
<path d="M224.726 22.6761V28.0862H225.522H226.297L226.365 25.715L226.433 23.3668L228.141 23.2977C230.964 23.1826 230.873 23.1135 230.873 25.784V28.0862H231.67H232.467V22.6761V17.266H231.67H230.896L230.828 19.4991L230.759 21.7552H228.596H226.433L226.365 19.4991L226.297 17.266H225.522H224.726V22.6761Z" fill="black"/>
<path d="M246.697 17.5424C246.629 17.7035 245.764 20.0978 244.762 22.8834C243.76 25.646 242.94 27.9481 242.94 28.0172C242.94 28.0633 243.327 28.0863 243.806 28.0402C244.58 27.9712 244.671 27.9021 244.944 26.9812L245.263 26.0143H247.471H249.703L249.976 26.9582C250.272 27.9481 250.545 28.1553 251.433 28.0402L252.025 27.9712L251.046 25.3237C250.522 23.8733 249.634 21.4561 249.111 19.9597C248.154 17.3582 248.109 17.2661 247.471 17.2661C247.107 17.2661 246.743 17.4043 246.697 17.5424ZM248.473 22.446C248.815 23.4589 249.088 24.3798 249.088 24.4719C249.088 24.564 248.382 24.633 247.494 24.633C246.629 24.633 245.9 24.564 245.9 24.4719C245.9 24.3798 246.242 23.3438 246.629 22.1697C247.494 19.6834 247.585 19.7064 248.473 22.446Z" fill="black"/>
<path d="M263.705 17.7265C261.747 18.9466 261.542 21.9394 263.341 23.1365C263.637 23.3207 263.887 23.62 263.887 23.7811C263.887 23.9423 263.432 24.9783 262.863 26.0833L261.815 28.0862H262.794H263.796L264.753 26.0142L265.732 23.9423H266.847H267.986V26.0142V28.0862H268.783H269.58V22.6761V17.266H267.029C264.866 17.266 264.343 17.3351 263.705 17.7265ZM267.94 20.5351L268.008 22.3308H266.392C264.98 22.3308 264.707 22.2617 264.229 21.7552C263.614 21.1567 263.523 20.6272 263.887 19.7063C264.138 18.9927 265.14 18.6704 266.733 18.7164L267.872 18.7624L267.94 20.5351Z" fill="black"/>
<path d="M52.2768 17.7727C52.1174 18.2561 51.1612 28.5698 51.275 28.6619C51.3205 28.7079 51.9808 28.2015 52.7777 27.5569L54.1894 26.3597V22.423V18.5094L53.2786 17.9799C52.5956 17.5885 52.3451 17.5425 52.2768 17.7727Z" fill="black"/>
<path d="M56.1933 18.0259L55.3281 18.5324V22.4461V26.3597L56.717 27.4648C57.4684 28.0863 58.1287 28.5468 58.1742 28.5007C58.2425 28.4317 57.1951 17.7036 57.1041 17.5885C57.0585 17.5655 56.6487 17.7727 56.1933 18.0259Z" fill="black"/>
<path d="M44.2854 30.7568C43.4885 33.2431 43.0559 35.0157 43.1242 35.338C43.1925 35.6373 44.0122 36.9035 44.9229 38.1467C45.8337 39.3898 46.9266 40.8862 47.3592 41.4848C47.769 42.1064 48.1788 42.5898 48.2699 42.5898C48.3382 42.5898 48.6797 39.9424 49.044 36.6963C49.7726 29.951 49.9548 30.9639 47.3819 28.2474C46.5623 27.3956 45.8109 26.705 45.7198 26.705C45.6288 26.705 44.9912 28.5237 44.2854 30.7568Z" fill="black"/>
<path d="M61.7261 28.7078C60.7243 29.8358 59.8818 30.9179 59.8818 31.1481C59.8818 32.161 60.8153 41.6229 60.9747 42.2445L61.1569 42.9121L61.931 41.7841C62.3636 41.1394 63.502 39.551 64.4811 38.2387C65.4601 36.9035 66.3253 35.5912 66.3936 35.315C66.5302 34.7855 64.0485 26.7049 63.7525 26.7049C63.6386 26.7049 62.7279 27.6028 61.7261 28.7078Z" fill="black"/>
<path d="M52.7097 29.2604C51.0704 30.6187 50.8654 30.9871 50.7061 33.036C50.6378 33.9108 50.4101 36.0748 50.2052 37.8015C50.0002 39.5511 49.8636 41.1626 49.9092 41.3698C50.0002 41.8533 53.6204 35.7986 53.962 34.5784C54.0986 34.095 54.1896 32.5065 54.1441 30.918L54.0758 28.1094L52.7097 29.2604Z" fill="black"/>
<path d="M55.3281 31.3553V34.6934L56.7625 37.0876C58.7889 40.4488 59.4265 41.4387 59.5403 41.4387C59.6086 41.4387 59.6086 41.0013 59.5403 40.4488C59.4948 39.9193 59.2671 37.9855 59.0849 36.1438C58.88 34.302 58.6751 32.3912 58.6068 31.8617C58.493 30.9409 58.1514 30.5035 55.9656 28.5697L55.3281 28.0171V31.3553Z" fill="black"/>
<path d="M6.14768 36.1207C6.92181 36.5582 20.97 41.0474 21.1066 40.9092C21.2888 40.702 20.3325 37.0876 19.8999 36.443L19.5811 35.9135H12.6823C8.90268 35.9135 5.96554 36.0056 6.14768 36.1207Z" fill="black"/>
<path d="M21.516 36.9726C21.6754 37.5481 21.8576 38.0546 21.9031 38.1007C22.1991 38.3539 33.6972 40.61 33.6972 40.4258C33.6972 40.0805 31.9212 36.8115 31.4886 36.305C31.1699 35.9597 30.6007 35.9136 26.1608 35.9136H21.1973L21.516 36.9726Z" fill="black"/>
<path d="M34.5404 36.0746L32.9922 36.1667L34.1989 38.5149C34.8592 39.8041 35.4284 40.9092 35.4512 40.9552C35.5195 41.0703 44.6952 43.1423 46.1979 43.3955C46.9948 43.5336 47.1542 43.5106 46.9948 43.2574C46.2435 41.9912 41.9858 36.3048 41.6442 36.1437C41.2572 35.9365 38.024 35.9135 34.5404 36.0746Z" fill="black"/>
<path d="M67.3952 36.5121C67.0081 36.8574 66.3706 37.5941 65.9835 38.1927C65.5965 38.7682 64.6174 40.1726 63.7977 41.2776C63.0009 42.3826 62.3861 43.3495 62.4544 43.4186C62.5682 43.5337 73.7476 41.2776 73.9297 41.1164C74.0436 41.0013 76.5026 36.1668 76.5026 36.0517C76.5026 35.9826 74.6128 35.9136 72.3132 35.9136C68.1238 35.9136 68.1238 35.9136 67.3952 36.5121Z" fill="black"/>
<path d="M77.2087 37.4561C76.7078 38.3309 76.1385 39.4129 75.9336 39.9194L75.5693 40.7942L76.093 40.6791C76.389 40.61 79.0757 40.0115 82.0811 39.3669C85.0866 38.7222 87.6139 38.1237 87.6822 38.0316C87.7505 37.9395 87.9327 37.433 88.0693 36.8805L88.2969 35.9136H83.1968H78.1194L77.2087 37.4561Z" fill="black"/>
<path d="M89.4806 36.3511C89.2529 36.8115 88.0917 41.0244 88.1828 41.1165C88.2283 41.1626 99.9541 37.364 102.345 36.5122L103.939 35.9367H96.8349C90.0271 35.9137 89.7083 35.9367 89.4806 36.3511Z" fill="black"/>
<path d="M161.839 37.0646C153.483 38.3999 147.654 44.6157 146.584 53.3179C146.288 55.8503 146.584 58.4057 147.427 60.2474C148.019 61.5596 149.886 63.7236 151.093 64.4834C155.168 67.0387 162.295 67.0157 167.395 64.4603C173.497 61.4215 176.958 55.6661 177.003 48.5754C177.026 46.3884 176.935 45.6747 176.502 44.4085C174.84 39.574 171.357 37.1567 165.687 36.9495C164.276 36.9035 162.545 36.9495 161.839 37.0646ZM167.008 37.9855C168.397 38.6762 169.376 40.1265 169.899 42.3366C170.423 44.5697 170.4 46.7798 169.854 50.5553C168.351 60.938 165.368 65.4733 159.813 65.7956C156.807 65.9798 155.305 65.128 154.098 62.6646L153.347 61.1222L153.369 57.3236C153.392 53.0416 153.779 50.6704 155.214 46.2963C156.056 43.7179 156.716 42.3596 157.855 40.8632C160.223 37.7323 164.025 36.5352 167.008 37.9855Z" fill="black"/>
<path d="M195.172 37.0876C187.635 38.0775 181.738 43.8559 180.008 51.9595C179.051 56.4027 180.053 60.5235 182.672 63.0559C184.038 64.3912 184.493 64.6674 186.337 65.4271C189.98 66.9235 196.082 66.6242 200.363 64.7365L201.387 64.2991L201.911 61.4444C202.845 56.2415 202.822 54.6991 201.843 57.784C200.659 61.4904 198.997 63.7465 196.56 64.9667C195.354 65.5653 194.739 65.7034 193.168 65.7955C190.618 65.9336 189.388 65.5653 188.136 64.3221C186.337 62.4804 185.859 59.0501 186.679 53.6631C188.136 44.2012 191.301 38.9063 196.264 37.6171C198.792 36.9724 201.524 37.571 203.05 39.1595C203.96 40.1034 204.233 41.0012 204.393 43.4415C204.507 45.2832 204.803 45.9048 205.008 44.8228C205.076 44.5465 205.19 43.994 205.258 43.6257C205.349 43.2343 205.554 42.0602 205.713 41.0012C206.078 38.7221 206.123 38.7912 203.778 37.8933C201.319 36.9264 198.427 36.6501 195.172 37.0876Z" fill="black"/>
<path d="M275.362 45.4675C272.38 50.2329 268.418 56.4948 266.597 59.3955C264.775 62.2962 263.136 64.8286 262.976 65.0358C262.794 65.243 262.316 65.3811 261.679 65.3811C261.064 65.3811 260.722 65.4732 260.813 65.6114C260.882 65.7495 261.997 65.8416 263.318 65.8416C264.639 65.8416 265.754 65.7495 265.822 65.6114C265.914 65.4732 265.526 65.3811 264.821 65.3811C264.183 65.3811 263.659 65.3121 263.659 65.243C263.659 65.1739 263.955 64.6214 264.343 64.0229C264.707 63.4473 266.118 61.1912 267.485 59.0502L269.944 55.1365H274.247H278.573L278.823 56.0574C279.233 57.4387 280.736 64.5293 280.736 64.9898C280.736 65.3121 280.531 65.3811 279.575 65.3811C278.869 65.3811 278.482 65.4732 278.573 65.6114C278.755 65.9106 289.843 65.9337 289.843 65.6344C289.843 65.4962 289.365 65.3811 288.773 65.3351L287.68 65.266L287.407 63.9998C287.248 63.3092 286.906 61.7898 286.656 60.6617C285.995 57.5768 283.969 48.3682 283.719 47.3092C283.582 46.8027 283.263 45.3524 283.013 44.0862C282.739 42.82 282.307 40.9092 282.079 39.8272C281.829 38.7452 281.578 37.6401 281.533 37.3409C281.464 37.0646 281.282 36.8344 281.1 36.8344C280.941 36.8344 278.345 40.725 275.362 45.4675ZM276.82 46.7337C276.956 47.4243 277.389 49.3811 277.776 51.0617C278.14 52.7423 278.459 54.2157 278.459 54.3308C278.459 54.4689 276.888 54.561 274.475 54.561C272.152 54.561 270.49 54.4689 270.49 54.3538C270.49 54.1466 273.245 49.6804 275.454 46.3193C275.886 45.6516 276.319 45.1682 276.41 45.2833C276.501 45.3754 276.683 46.043 276.82 46.7337Z" fill="black"/>
<path d="M244.762 37.456C242.439 37.502 240.459 37.6402 240.345 37.7553C240.185 37.9164 240.527 37.9855 241.301 37.9855C241.961 37.9855 242.485 38.0546 242.485 38.1466C242.485 38.2617 242.166 40.0805 241.802 42.2445C241.051 46.5035 240.368 50.3481 239.844 53.4099C239.662 54.492 239.366 56.1956 239.184 57.2085C239.001 58.2215 238.637 60.2934 238.387 61.8128C237.726 65.6344 237.863 65.3812 236.542 65.3812C235.928 65.3812 235.427 65.4733 235.427 65.5653C235.427 65.6805 238.546 65.8416 242.326 65.9107C247.927 66.0258 249.68 66.0028 251.592 65.7035C256.852 64.9207 259.721 62.9179 260.905 59.2114C261.451 57.5308 261.519 55.3438 261.064 54.2157C260.29 52.351 258.355 50.9006 255.577 50.1179C254.894 49.9337 254.575 49.7495 254.78 49.6574C254.962 49.5884 255.577 49.3581 256.146 49.151C257.535 48.6445 259.197 47.3783 259.903 46.3193C260.609 45.2373 261.269 42.6358 261.064 41.6229C260.518 38.6761 257.262 37.2258 251.479 37.3409C250.112 37.3639 247.084 37.433 244.762 37.456ZM252.845 38.4459C254.211 39.1135 254.666 40.0574 254.643 42.0143C254.552 46.0661 252.002 49.1279 248.245 49.6114C247.585 49.7035 247.039 49.6805 246.97 49.5653C246.879 49.4272 247.13 47.6776 247.471 45.6747C247.836 43.6718 248.2 41.5538 248.291 40.9783C248.382 40.4028 248.541 39.5049 248.678 38.9524L248.906 37.9855H250.408C251.433 37.9855 252.207 38.1236 252.845 38.4459ZM252.275 51.1308C252.822 51.4301 253.573 52.0747 253.96 52.5581C254.666 53.433 254.666 53.479 254.643 56.0114C254.643 58.2905 254.575 58.774 254.006 60.1553C253.186 62.1351 251.729 63.7927 250.044 64.5984C248.951 65.1279 248.359 65.2661 246.424 65.3351C244.921 65.4042 244.079 65.3581 244.079 65.197C244.079 65.0819 244.284 63.8387 244.534 62.4805C244.785 61.0992 245.149 59.1423 245.308 58.1294C245.49 57.1164 245.878 54.9524 246.151 53.3179L246.674 50.3711L248.974 50.4632C250.864 50.5553 251.456 50.6704 252.275 51.1308Z" fill="black"/>
<path d="M5.80612 37.6861C6.07934 37.9394 12.0675 42.4055 14.6631 44.2933C15.6421 45.007 16.5301 45.5825 16.6212 45.5825C16.7122 45.5825 17.6458 44.8919 18.6703 44.0631C20.0137 42.9581 20.4691 42.4746 20.2414 42.3595C19.7177 42.0602 15.3917 40.5638 10.8152 39.1135C5.41905 37.3868 5.53289 37.4329 5.80612 37.6861Z" fill="black"/>
<path d="M51.8664 41.0933L49.6807 44.6386L50.8191 46.3192C52.5723 48.8976 53.2781 49.7034 53.5969 49.5883C53.8245 49.4962 53.9384 48.1149 54.075 43.6027C54.1661 40.3566 54.1888 37.6861 54.1433 37.6171C54.075 37.571 53.0504 39.1365 51.8664 41.0933Z" fill="black"/>
<path d="M102.686 37.8245C98.2466 39.1597 88.7977 42.4518 88.9571 42.5669C90.8924 44.2705 92.7594 45.6057 93.0099 45.4906C93.3286 45.3755 103.233 38.1698 103.711 37.7324C103.962 37.4791 103.734 37.5021 102.686 37.8245Z" fill="black"/>
<path d="M114.298 37.7552C114.298 37.8703 114.822 37.9855 115.459 37.9855C116.575 37.9855 116.621 38.0085 116.484 38.538C116.37 39.0444 115.892 41.6459 115.095 46.3883C114.936 47.4013 114.48 50.0488 114.07 52.2588C113.683 54.4689 113.16 57.4157 112.909 58.82C112.659 60.2013 112.295 62.2502 112.112 63.3552L111.748 65.3811H110.519C109.836 65.3811 109.289 65.4732 109.289 65.6114C109.289 65.7495 110.314 65.8416 111.885 65.8416C113.387 65.8416 114.549 65.7495 114.64 65.6114C114.731 65.4732 114.344 65.3811 113.638 65.3811C112.704 65.3811 112.477 65.3121 112.477 65.0128C112.477 64.8056 113 61.6516 113.638 58.0373C114.253 54.4229 114.913 50.6243 115.095 49.6114C115.277 48.5984 115.619 46.5725 115.892 45.1221C116.142 43.6718 116.484 41.6689 116.621 40.679C117.053 37.8703 117.144 38.0315 118.078 43.1653C118.396 44.938 118.852 47.4703 119.102 48.8056C119.353 50.1409 119.649 51.8444 119.785 52.6042C119.899 53.3639 120.15 54.6991 120.332 55.597C120.491 56.4718 120.855 58.4056 121.129 59.856C121.994 64.7365 122.335 66.302 122.495 66.302C122.836 66.302 122.882 66.2099 125.865 60.5466C126.434 59.4646 127.618 57.1855 128.528 55.4819C130.213 52.2819 131.42 50.0027 133.31 46.3883C135.587 42.0603 137.112 39.2516 137.317 39.0444C137.613 38.7221 137.59 38.9524 137.044 42.0603C136.793 43.5567 136.452 45.6056 136.27 46.6185C136.088 47.6315 135.541 50.8315 135.018 53.7552C134.494 56.656 133.947 59.948 133.765 61.0301C133.583 62.1351 133.31 63.5624 133.173 64.207L132.923 65.3811H131.693C130.919 65.3811 130.487 65.4732 130.578 65.6114C130.669 65.7495 132.786 65.8416 136.156 65.8416C139.526 65.8416 141.643 65.7495 141.734 65.6114C141.825 65.4732 141.438 65.3811 140.732 65.3811C139.594 65.3811 139.571 65.3581 139.571 64.6905C139.571 64.2991 139.708 63.2401 139.89 62.3193C140.072 61.3984 140.436 59.3725 140.71 57.784C140.983 56.1955 141.393 53.8243 141.62 52.4891C141.848 51.1538 142.417 47.9538 142.873 45.3524C143.328 42.7509 143.806 40.0574 143.966 39.3667L144.239 38.1006L145.445 38.0315C146.129 37.9855 146.584 37.8703 146.516 37.7322C146.425 37.6171 144.489 37.525 141.962 37.525H137.522L136.998 38.3768C136.702 38.8603 135.814 40.4948 135.018 42.0142C134.243 43.5337 133.31 45.2833 132.968 45.9279C132.627 46.5495 131.306 49.0819 130.031 51.4991C128.733 53.9394 127.618 55.9883 127.527 56.0344C127.39 56.1265 126.457 51.5912 124.726 42.2444C124.362 40.2185 123.952 38.3308 123.838 38.0315C123.656 37.525 123.61 37.525 118.966 37.525C116.006 37.525 114.298 37.6171 114.298 37.7552Z" fill="black"/>
<path d="M209.585 37.7552C209.494 37.8934 209.881 37.9855 210.587 37.9855C211.543 37.9855 211.748 38.0545 211.748 38.3768C211.748 38.9063 211.315 41.5078 210.154 47.9998C209.63 50.9006 209.061 54.1236 208.902 55.1365C208.105 59.7869 207.649 62.3883 207.376 63.7696L207.08 65.266L205.896 65.3351C205.236 65.3811 204.689 65.4962 204.689 65.6344C204.689 65.9337 215.55 65.9106 215.732 65.6114C215.823 65.4732 215.436 65.3811 214.73 65.3811C213.387 65.3811 213.41 65.5193 213.911 62.6185C215.892 50.8545 215.892 50.8545 216.165 51.1308C216.392 51.361 223.132 64.9207 223.132 65.1279C223.132 65.266 222.631 65.3811 221.971 65.3811C221.265 65.3811 220.878 65.4732 220.969 65.6114C221.06 65.7495 223.314 65.8416 227.003 65.8416C230.691 65.8416 232.945 65.7495 233.036 65.6114C233.127 65.4732 232.786 65.3811 232.171 65.3811C231.602 65.3811 231.055 65.243 230.919 65.0819C230.805 64.9437 228.687 60.7308 226.206 55.7351L221.72 46.6876L222.244 46.1581C222.927 45.5135 229.826 39.4588 230.828 38.607C231.397 38.1466 231.83 37.9855 232.604 37.9855C233.15 37.9855 233.605 37.8703 233.605 37.7552C233.605 37.6171 232.581 37.525 230.987 37.525C229.484 37.525 228.369 37.6171 228.369 37.7322C228.369 37.8703 228.847 37.9855 229.462 38.0315L230.532 38.1006L229.803 38.7682C226.456 41.807 216.165 50.5552 216.119 50.4171C216.005 50.1178 218.009 38.584 218.237 38.1926C218.328 38.0775 218.874 37.9855 219.512 37.9855C220.127 37.9855 220.627 37.8703 220.627 37.7552C220.627 37.6171 218.669 37.525 215.186 37.525C211.793 37.525 209.676 37.6171 209.585 37.7552Z" fill="black"/>
<path d="M55.5103 41.8993C55.3964 49.7957 55.3737 49.3813 55.9429 49.3813C56.2844 49.3813 56.8536 48.7827 58.0376 47.0791C59.0166 45.7208 59.6086 44.6618 59.5403 44.4547C59.3581 43.9712 55.7607 37.9856 55.6469 37.9856C55.6013 37.9856 55.533 39.7352 55.5103 41.8993Z" fill="black"/>
<path d="M22.4274 40.1035C22.8828 41.7841 22.8145 41.715 26.3892 42.8891C28.4611 43.5337 29.941 43.9021 30.2143 43.81C30.7607 43.6028 33.4019 41.8992 33.1969 41.8992C33.0376 41.8992 24.1578 40.0114 22.8145 39.7121C22.3364 39.597 22.2908 39.6431 22.4274 40.1035Z" fill="black"/>
<path d="M81.4427 40.7481C78.7105 41.3466 76.4336 41.8991 76.3653 41.9682C76.2287 42.1063 77.2078 42.82 78.2551 43.3725C79.3252 43.925 80.1449 43.8329 83.3553 42.82C86.429 41.8301 86.7478 41.5998 87.0665 40.2186C87.2487 39.4128 87.4991 39.3898 81.4427 40.7481Z" fill="black"/>
<path d="M34.016 43.0502C32.1945 43.9941 31.4203 44.5926 31.8757 44.7538C35.0861 45.8818 37.2946 46.5034 37.9777 46.5034C39.0706 46.4804 45.0359 45.03 45.3775 44.6847C45.5596 44.5005 45.5141 44.4315 45.2181 44.4315C44.9904 44.4315 42.7135 43.971 40.1407 43.3955C37.5906 42.82 35.4731 42.3595 35.4276 42.3595C35.3821 42.3595 34.7673 42.6588 34.016 43.0502Z" fill="black"/>
<path d="M69.3301 43.4185C66.9622 43.971 64.7764 44.4315 64.5032 44.4315C64.2072 44.4315 63.9795 44.5236 63.9795 44.6617C63.9795 44.7768 64.025 44.8919 64.0706 44.8919C64.1389 44.8919 65.7327 45.2603 67.6225 45.6977C69.5122 46.1351 71.3337 46.5034 71.6753 46.5034C72.5177 46.4804 77.4585 44.8228 77.4585 44.5466C77.4812 44.2703 74.9767 42.7049 74.2253 42.5437C73.9066 42.4746 71.7208 42.866 69.3301 43.4185Z" fill="black"/>
<path d="M21.5394 43.5338C21.1979 43.81 20.993 44.1093 21.1068 44.2014C21.4256 44.5007 30.7607 48.6215 30.8745 48.5064C30.9428 48.4374 30.7379 47.7928 30.4419 47.0561C30.0321 45.974 29.7361 45.5827 29.0303 45.1913C28.2561 44.7539 22.9511 43.0503 22.3819 43.0503C22.2452 43.0503 21.8809 43.2805 21.5394 43.5338Z" fill="black"/>
<path d="M83.2419 44.0862C81.6253 44.6157 80.0771 45.2603 79.8266 45.5136C79.5534 45.7668 79.1208 46.6186 78.8476 47.4013L78.3467 48.8057L79.0753 48.4834C80.578 47.8388 88.2282 44.3855 88.4104 44.2704C88.5242 44.2013 88.3648 43.9021 88.0916 43.6028C87.3858 42.8431 86.7255 42.9121 83.2419 44.0862Z" fill="black"/>
<path d="M18.5111 45.8818L17.6914 46.6646L18.8071 47.4243C19.4218 47.8617 21.2205 49.1739 22.7916 50.348C24.3854 51.5221 25.797 52.489 25.9108 52.489C26.2068 52.489 30.3052 50.4861 30.5784 50.2099C30.7378 50.0487 20.1504 45.1221 19.604 45.1221C19.4674 45.1221 18.9664 45.4674 18.5111 45.8818Z" fill="black"/>
<path d="M84.8125 47.3322C82.1942 48.5063 79.7352 49.6343 79.3481 49.7955L78.665 50.1178L80.9874 51.3149C82.2852 51.9595 83.4237 52.489 83.5375 52.489C83.6513 52.489 85.0175 51.5451 86.5657 50.371C88.114 49.1969 89.9127 47.8617 90.573 47.4012L91.8025 46.5264L90.8234 45.8358C90.2998 45.4444 89.7989 45.1221 89.7305 45.1451C89.6622 45.1451 87.4537 46.1351 84.8125 47.3322Z" fill="black"/>
<path d="M47.5864 45.6287C44.968 46.1582 40.7559 47.2632 40.7559 47.4014C40.7559 47.4704 43.2149 48.3683 46.2203 49.3812C50.8879 50.9467 51.7303 51.1769 51.9124 50.8776C52.0263 50.6935 52.1401 50.4632 52.1401 50.3942C52.1401 50.3251 51.4571 49.3352 50.6146 48.1841C49.7494 47.033 48.9753 45.928 48.8387 45.7438C48.6565 45.4906 48.4061 45.4676 47.5864 45.6287Z" fill="black"/>
<path d="M59.0842 47.8847C57.3083 50.4171 57.3083 50.4171 57.5815 50.8315C57.7181 51.0847 58.9476 50.7624 63.433 49.312L69.0796 47.4703L67.4858 46.9868C65.4139 46.3653 61.8392 45.5825 61.2017 45.5825C60.8146 45.6056 60.2909 46.1581 59.0842 47.8847Z" fill="black"/>
<path d="M31.7847 47.0791C32.5816 49.4042 32.7409 49.5193 38.3648 52.1208C41.8711 53.7323 42.5769 53.9855 42.5769 53.7093C42.5542 53.387 38.2509 48.4834 37.6134 48.069C36.9303 47.6316 32.3766 46.0431 31.8074 46.0431C31.4887 46.0431 31.4887 46.1352 31.7847 47.0791Z" fill="black"/>
<path d="M75.0229 46.8257C73.7706 47.2401 72.4728 47.7236 72.1313 47.8847C71.7897 48.0459 70.6285 49.22 69.5356 50.5092C66.7807 53.7322 66.849 53.6401 66.9628 53.7322C67.0994 53.8703 70.879 52.2588 74.0438 50.7164L76.7077 49.4271L77.3908 47.7236C78.2105 45.7207 78.256 45.7437 75.0229 46.8257Z" fill="black"/>
<path d="M40.6872 49.3352C42.9185 52.2129 45.4686 55.0215 45.8101 55.0215C46.4021 55.0215 50.3638 53.7093 50.8647 53.3409C51.1152 53.1567 51.2518 52.8805 51.1835 52.6963C51.0696 52.4431 45.4458 50.4172 41.2564 49.128L40.2773 48.8287L40.6872 49.3352Z" fill="black"/>
<path d="M63.5244 50.6244C59.5171 51.9597 58.151 52.4892 58.1055 52.7885C58.0144 53.2719 58.8113 53.6633 61.8167 54.5842L63.8659 55.2288L64.4124 54.6072C68.2375 50.2101 69.3759 48.7827 69.0571 48.8288C68.9661 48.8518 66.4615 49.6575 63.5244 50.6244Z" fill="black"/>
<path d="M53.4836 50.9927C53.051 51.315 52.7322 51.6603 52.7778 51.7524C52.8233 51.8445 53.1876 52.0287 53.6202 52.1898L54.4171 52.4661V51.4301C54.4171 50.8776 54.3943 50.4171 54.3488 50.4171C54.3033 50.4171 53.9162 50.6704 53.4836 50.9927Z" fill="black"/>
<path d="M55.0996 51.453V52.489L55.9193 52.1437C56.3746 51.9595 56.8072 51.7984 56.8983 51.7984C57.0577 51.7984 56.0787 50.9696 55.5094 50.6243C55.1451 50.4171 55.0996 50.5092 55.0996 51.453Z" fill="black"/>
<path d="M30.7378 51.6372C30.0548 52.0516 29.0074 52.6041 28.4154 52.8574C27.8007 53.0876 27.3453 53.3868 27.3908 53.502C27.5274 53.8933 34.2214 58.7048 34.6312 58.7048C35.4054 58.7048 43.5337 55.8962 43.3516 55.712C43.2377 55.5969 41.9627 54.9984 40.5283 54.3768C39.0939 53.7552 36.7259 52.7192 35.2687 52.0516C33.8116 51.407 32.491 50.8775 32.3088 50.8775C32.1267 50.8775 31.4209 51.2228 30.7378 51.6372Z" fill="black"/>
<path d="M71.6074 53.2027C68.7386 54.4689 66.2796 55.5969 66.1885 55.689C65.9153 55.9653 73.8615 58.7048 74.8861 58.7048C75.1821 58.7048 77.7094 56.9322 81.6256 53.9624L82.2631 53.4789L80.0773 52.3048C78.8706 51.6602 77.6411 51.0617 77.3679 50.9926C77.0263 50.9235 75.1138 51.6372 71.6074 53.2027Z" fill="black"/>
<path d="M52.436 52.8574C52.5043 53.0876 52.6409 53.5941 52.732 53.9394L52.8913 54.584L53.5289 53.9624C54.3258 53.1797 54.3485 53.0415 53.6427 52.8574C53.3467 52.7883 52.9141 52.6502 52.7092 52.5811C52.3904 52.443 52.3449 52.512 52.436 52.8574Z" fill="black"/>
<path d="M56.0795 52.7655C55.6697 52.9036 55.3281 53.0878 55.3281 53.1568C55.3281 53.2259 55.5786 53.5943 55.8746 53.9856L56.421 54.6763L56.6487 54.1007C57.2862 52.3741 57.309 52.3741 56.0795 52.7655Z" fill="black"/>
<path d="M54.2353 54.0546C53.9621 54.4229 53.7344 54.8143 53.7344 54.8834C53.7344 54.9524 54.1897 55.0215 54.759 55.0215C55.8746 55.0215 55.8974 54.9294 55.0322 53.7783C54.7362 53.3639 54.6907 53.387 54.2353 54.0546Z" fill="black"/>
<path d="M48.6565 55.5739C47.427 56.0113 46.3114 56.4488 46.1748 56.5869C46.0154 56.748 45.3551 62.7567 45.3096 64.5524C45.3096 64.6675 46.7895 62.6876 48.611 60.1783C50.4325 57.6689 51.9124 55.4358 51.9124 55.2056C51.9124 54.607 51.2522 54.6991 48.6565 55.5739Z" fill="black"/>
<path d="M57.377 55.1135C57.377 55.2746 57.6502 55.8271 57.9689 56.3106C59.0618 57.9451 64.0709 64.6674 64.1392 64.5983C64.2303 64.5293 63.5472 56.8171 63.4562 56.725C63.4334 56.7019 62.3405 56.2415 61.0199 55.735C58.5381 54.7681 57.377 54.5609 57.377 55.1135Z" fill="black"/>
<path d="M49.9091 60.6848C48.1103 63.1711 46.6987 65.243 46.7442 65.3121C46.9264 65.4963 53.6203 62.6186 53.9163 62.2272C54.2123 61.8128 54.2806 59.8099 54.0529 57.5768C53.9391 56.4948 53.8025 56.1725 53.5293 56.1725C53.3016 56.1725 51.8444 57.9912 49.9091 60.6848Z" fill="black"/>
<path d="M55.3281 59.1194C55.3281 61.2143 55.4192 62.1812 55.6241 62.3424C55.9884 62.6417 62.6141 65.4503 62.7279 65.3352C62.7734 65.2891 61.3846 63.2402 59.6314 60.7769C57.1496 57.2776 56.3299 56.2647 55.8973 56.2186L55.3281 56.1496V59.1194Z" fill="black"/>
<path d="M39.1844 58.6819C36.6343 59.5337 35.1316 60.1553 34.9039 60.4315C34.6307 60.8459 32.3311 67.7063 32.3311 68.1898C32.3311 68.4661 33.3329 68.42 35.678 67.9826L37.7955 67.6143L40.2773 63.3322C42.7363 59.0502 43.4876 57.692 43.4876 57.4387C43.4876 57.2545 43.3738 57.2776 39.1844 58.6819Z" fill="black"/>
<path d="M66.12 57.9452C66.4843 58.6589 70.5371 65.7956 71.1974 66.8776C71.5617 67.4762 71.8349 67.6143 73.4287 67.9366C76.3431 68.5121 77.1855 68.6042 77.1855 68.2819C77.1855 67.6373 74.8859 60.7999 74.5216 60.3625C74.2484 60.0632 72.7001 59.4416 70.15 58.6129C67.9643 57.8992 66.0972 57.3237 65.9834 57.3237C65.8695 57.3237 65.9379 57.5999 66.12 57.9452Z" fill="black"/>
<path d="M41.7122 63.4013C39.7996 66.7395 39.1621 68.0287 39.1621 68.6272C39.1849 69.41 39.7313 72.0114 39.9135 72.2186C40.1184 72.4028 43.5109 67.4762 43.7158 66.7164C43.9207 65.8877 44.4899 59.1884 44.3533 59.0503C44.3078 59.0042 43.1238 60.961 41.7122 63.4013Z" fill="black"/>
<path d="M65.2316 61.3523C65.5276 66.4401 65.6187 66.8545 67.0304 68.9264C67.7134 69.9624 68.5786 71.1595 68.9429 71.5969L69.6032 72.3796L69.9903 70.7451C70.1952 69.8242 70.3546 68.8343 70.3546 68.512C70.3546 68.1897 69.1706 65.8876 67.7134 63.3782L65.0723 58.8199L65.2316 61.3523Z" fill="black"/>
<path d="M55.3281 69.2259V74.1064L56.3072 74.8892C58.6523 76.823 62.4547 79.4474 62.6368 79.2633C62.8873 79.01 63.502 74.1064 63.3199 73.646C63.2516 73.4158 61.7033 71.5741 59.8818 69.5021C58.0603 67.4532 56.3072 65.4503 55.9656 65.059L55.3509 64.3453L55.3281 69.2259Z" fill="black"/>
<path d="M48.4967 66.0719C46.698 66.8316 45.0359 67.6374 44.8082 67.8446C43.9885 68.6964 41.2335 72.8403 41.3701 73.0475C41.484 73.2547 43.4193 73.1165 44.5577 72.8403C44.831 72.7712 46.3337 71.2978 47.8592 69.5482C49.4074 67.8216 51.0012 66.0259 51.4338 65.5424C51.8437 65.082 52.0941 64.6906 52.003 64.6906C51.8892 64.6906 50.3182 65.3122 48.4967 66.0719Z" fill="black"/>
<path d="M50.0909 68.9726C48.019 71.2978 46.2658 73.3928 46.1975 73.623C46.0153 74.0834 46.5618 78.5726 46.8578 79.1021C47.0172 79.4014 47.3359 79.2403 48.8614 78.1122C49.8405 77.3525 51.1155 76.4316 51.6847 76.0403C52.2539 75.6489 53.0508 75.0043 53.4607 74.636L54.1892 73.9453V69.318C54.1892 66.7626 54.1209 64.6906 54.0299 64.6906C53.916 64.7137 52.1628 66.6244 50.0909 68.9726Z" fill="black"/>
<path d="M57.9691 65.4273C58.3561 65.8416 59.9272 67.6143 61.4527 69.364C62.9782 71.0906 64.4126 72.61 64.6175 72.7251C65.1867 73.0244 68.01 73.3006 68.1466 73.0474C68.2149 72.9553 67.4408 71.6661 66.4162 70.2157L64.5492 67.5913L61.1339 66.1409C59.2669 65.3582 57.6275 64.6906 57.5137 64.6906C57.3771 64.6906 57.6048 65.0359 57.9691 65.4273Z" fill="black"/>
<path d="M72.6773 69.2718C72.7228 69.3639 74.089 71.7812 75.7055 74.6589L78.6654 79.8848H79.7583C80.3503 79.8848 80.8284 79.8157 80.8284 79.7236C80.8284 79.3553 78.2784 71.2517 77.9596 70.6531C77.7775 70.2848 77.5042 69.9855 77.3449 69.9855C77.2082 69.9625 76.0698 69.7783 74.8403 69.5481C73.6108 69.3179 72.6318 69.1797 72.6773 69.2718Z" fill="black"/>
<path d="M33.4243 69.6862L31.6712 70.0315L30.1684 74.5898C29.3488 77.0992 28.6885 79.3092 28.6885 79.5164C28.6885 79.7927 28.9162 79.8848 29.7814 79.8848H30.8515L33.8569 74.5898L36.8624 69.2948L36.0199 69.3179C35.5646 69.3409 34.3806 69.502 33.4243 69.6862Z" fill="black"/>
<path d="M35.1319 74.9581L32.377 79.7696L33.4243 79.8387C34.335 79.9077 34.5627 79.8387 34.8815 79.3782C38.9115 73.8531 38.7521 74.1063 38.6383 72.8631C38.57 72.2185 38.3878 71.3437 38.2057 70.9293L37.8869 70.1466L35.1319 74.9581Z" fill="black"/>
<path d="M71.4025 70.446C71.1521 71.1367 70.8105 72.8863 70.8105 73.5079C70.8105 73.9914 71.3798 74.9353 72.7231 76.823C73.7932 78.2734 74.6812 79.5626 74.7267 79.7007C74.7723 79.8158 75.3187 79.8849 75.9562 79.8388L77.0947 79.7698L74.5218 75.2806C73.0874 72.8173 71.8351 70.6302 71.7213 70.446C71.5391 70.1468 71.5164 70.1468 71.4025 70.446Z" fill="black"/>
<path d="M65.9606 74.4518C66.2338 74.9583 73.1555 82.6475 73.3376 82.6475C73.4287 82.6475 73.5881 82.2101 73.7247 81.6806C73.9751 80.7136 73.9523 80.6676 72.8139 79.0791C72.1536 78.2043 71.1974 76.823 70.6509 76.0403C69.558 74.4748 69.5353 74.4518 67.3039 74.2446C65.9606 74.1065 65.7784 74.1295 65.9606 74.4518Z" fill="black"/>
<path d="M40.255 74.5208C40.0274 74.5668 39.4126 75.2574 38.8662 76.0402C38.3197 76.8229 37.3407 78.2042 36.6804 79.1251C35.4964 80.7596 35.4964 80.7596 35.7696 81.7035C35.929 82.233 36.1112 82.6244 36.2022 82.6013C36.3844 82.5323 41.2796 77.0531 42.623 75.4416L43.5337 74.3596L42.0765 74.3826C41.3024 74.4056 40.46 74.4517 40.255 74.5208Z" fill="black"/>
<path d="M41.9849 78.0661C37.5222 83.0617 36.9303 83.7754 36.7709 84.2358C36.6115 84.7423 37.2035 86.3308 37.5222 86.3308C37.7499 86.3308 39.4803 85.1107 43.3737 82.1869C44.626 81.2661 45.6734 80.4833 45.6734 80.4833C45.7644 80.4373 44.922 75.2805 44.8309 75.1653C44.7626 75.0963 43.4876 76.4085 41.9849 78.0661Z" fill="black"/>
<path d="M64.5715 75.3036C64.4349 75.741 63.9795 79.4014 63.9795 80.023C63.9795 80.3683 64.9813 81.2431 67.7135 83.292C69.7627 84.8345 71.5842 86.1467 71.7663 86.2158C71.9712 86.3079 72.1989 86.1237 72.3583 85.7554C72.9731 84.4201 72.7909 84.1208 68.852 79.6546C66.78 77.3064 65.0041 75.3036 64.8902 75.1885C64.7536 75.0503 64.6398 75.0964 64.5715 75.3036Z" fill="black"/>
<path d="M142.304 77.4674V78.043H199.111H255.919V77.4674V76.8919H199.111H142.304V77.4674Z" fill="black"/>
<path d="M78.8473 81.2201C77.4356 81.2431 76.2744 81.3582 76.2744 81.4503C76.2744 81.5654 76.5704 82.0489 76.9119 82.5554C83.6742 92.0633 85.4046 94.4345 85.5184 94.3424C85.564 94.2734 81.6933 81.7957 81.4429 81.2662C81.4201 81.1971 80.2361 81.1741 78.8473 81.2201Z" fill="black"/>
<path d="M26.1158 87.2978C23.7934 94.5726 23.7934 94.5726 24.0894 94.2733C24.7269 93.6057 33.2423 81.6575 33.2423 81.4042C33.2423 81.3352 32.0811 81.2661 30.6467 81.2661H28.0283L26.1158 87.2978Z" fill="black"/>
<path d="M74.8177 82.4402C74.7494 82.6244 74.3395 83.7754 73.9069 85.0186L73.1328 87.2517L74.0663 88.0344C75.0681 88.8172 83.8796 95.3093 84.4488 95.6546C84.9041 95.9078 84.8358 95.8388 81.1018 90.5898C74.7721 81.7265 74.9771 81.9798 74.8177 82.4402Z" fill="black"/>
<path d="M34.1071 82.8084C33.72 83.2688 25.5006 94.7566 25.159 95.3091C25.0452 95.4933 25.5006 95.2401 26.1836 94.7336C27.823 93.5595 36.0652 87.4358 36.179 87.3437C36.2701 87.2746 34.608 82.4171 34.4941 82.4171C34.4714 82.4171 34.2892 82.6012 34.1071 82.8084Z" fill="black"/>
<path d="M142.531 84.8345C142.531 85.364 142.622 85.4101 143.556 85.4101H144.558L144.626 88.9093L144.694 92.4316H145.263H145.833L145.901 88.9093L145.969 85.4101H146.971C147.905 85.4101 147.996 85.364 147.996 84.8345V84.259H145.263H142.531V84.8345Z" fill="black"/>
<path d="M148.679 84.4432C148.679 84.5583 149.157 85.5712 149.749 86.6993C150.728 88.518 150.864 88.9554 150.956 90.5899C151.047 92.2475 151.115 92.4316 151.525 92.4316C151.935 92.4316 152.003 92.2475 152.094 90.682C152.185 89.1856 152.344 88.6791 153.301 86.8604C153.893 85.6863 154.371 84.6503 154.371 84.5122C154.371 84.3741 154.12 84.259 153.824 84.259C153.346 84.259 153.141 84.5122 152.527 85.8705C152.117 86.7453 151.661 87.482 151.548 87.482C151.411 87.482 150.978 86.7453 150.568 85.8705C149.954 84.4892 149.772 84.259 149.271 84.259C148.952 84.259 148.679 84.3511 148.679 84.4432Z" fill="black"/>
<path d="M155.737 88.4027V92.5466H156.307C156.853 92.5466 156.876 92.5006 156.876 90.9351V89.3236H158.014C160.724 89.3236 162.158 87.4358 160.974 85.456C160.382 84.4891 159.745 84.2589 157.536 84.2589H155.737V88.4027ZM159.79 85.6862C159.949 85.8473 160.063 86.3078 160.063 86.7222C160.063 87.7121 159.312 88.2186 157.969 88.1265L156.99 88.0574L156.921 86.7222L156.853 85.4099H158.196C158.925 85.4099 159.631 85.525 159.79 85.6862Z" fill="black"/>
<path d="M163.022 88.4257V92.5696L163.546 92.5005C164.047 92.4315 164.047 92.3854 164.115 88.3336L164.161 84.2588H163.592H163.022V88.4257Z" fill="black"/>
<path d="M167.326 84.6273C166.37 85.2489 166.143 85.8705 166.029 87.9424C165.915 90.2906 166.279 91.3957 167.395 92.0863C168.283 92.6388 169.125 92.6618 170.195 92.2244C170.878 91.9251 171.675 90.8892 171.675 90.2446C171.675 89.7611 170.719 90.0374 170.15 90.705C169.489 91.5108 168.579 91.6259 167.782 90.9582C167.281 90.5439 167.235 90.3367 167.235 88.4489C167.235 85.9626 167.554 85.41 168.989 85.41C169.74 85.41 169.945 85.5252 170.264 86.1007C170.514 86.5611 170.833 86.7913 171.197 86.7913C171.653 86.7913 171.698 86.7223 171.561 86.1467C171.493 85.8014 171.174 85.2719 170.878 84.9726C170.173 84.2359 168.214 84.0518 167.326 84.6273Z" fill="black"/>
<path d="M174.999 85.2259C173.041 90.5669 172.427 92.3166 172.54 92.4317C172.927 92.8 173.542 92.4777 173.861 91.741L174.18 90.9353H175.887H177.618L177.732 91.6259C177.891 92.3166 178.597 92.777 178.984 92.3856C179.166 92.2015 177.094 85.9396 176.434 84.6964C176.024 83.9137 175.386 84.1669 174.999 85.2259ZM176.479 87.8504C177.117 89.6921 177.094 89.7842 175.751 89.7842C174.908 89.7842 174.612 89.6921 174.703 89.4849C174.749 89.3468 174.999 88.6101 175.227 87.8734C175.455 87.1597 175.728 86.5842 175.865 86.6302C175.978 86.6763 176.274 87.2058 176.479 87.8504Z" fill="black"/>
<path d="M180.6 88.3338L180.669 92.4316H183.059C185.359 92.4316 185.45 92.4086 185.518 91.9252C185.587 91.4417 185.495 91.4187 183.697 91.3496L181.807 91.2806L181.739 87.7583L181.67 84.259H181.124H180.555L180.6 88.3338Z" fill="black"/>
<path d="M191.984 88.3338C192.052 92.2475 192.075 92.4316 192.508 92.4316C192.918 92.4316 192.963 92.2475 193.031 90.1295C193.054 88.8633 193.168 87.7583 193.259 87.6662C193.35 87.5741 193.783 88.2647 194.215 89.2086C195.285 91.5338 195.627 91.5338 196.834 89.1396L197.744 87.3669L197.858 89.8993C197.972 92.2475 198.018 92.4316 198.428 92.4316C198.86 92.4316 198.883 92.2475 198.951 88.3338L198.997 84.259H198.45C197.949 84.259 197.744 84.5583 196.834 86.4691C196.264 87.6892 195.809 88.7712 195.809 88.8863C195.809 89.577 195.263 88.7942 194.238 86.6762C193.236 84.5352 193.031 84.259 192.508 84.259H191.938L191.984 88.3338Z" fill="black"/>
<path d="M202.435 84.5581C201.388 85.1106 200.978 85.9394 200.864 87.8962C200.773 89.3926 200.841 89.8991 201.228 90.797C202.139 92.8459 204.598 93.1452 206.169 91.3955C206.556 90.9581 206.625 90.5667 206.625 88.3567V85.8243L205.782 85.0416C205.076 84.397 204.735 84.2588 203.961 84.2588C203.414 84.2588 202.731 84.397 202.435 84.5581ZM205.053 85.8934C205.418 86.3077 205.486 86.7452 205.486 88.4488C205.486 90.3365 205.441 90.5437 204.94 90.9581C204.302 91.4646 203.369 91.5336 202.731 91.0732C202.116 90.6128 201.957 86.8372 202.503 85.9854C203.004 85.2257 204.416 85.1797 205.053 85.8934Z" fill="black"/>
<path d="M209.334 84.5121C208.765 84.8113 208.104 85.8934 208.104 86.561C208.104 87.8732 209.266 88.8631 210.814 88.8631C211.656 88.8631 212.431 89.4847 212.431 90.1293C212.431 91.2344 210.541 91.7869 209.243 91.0502C208.833 90.843 208.583 90.82 208.4 90.9811C207.877 91.4185 208.082 91.7869 209.015 92.1783C210.199 92.6617 211.36 92.6387 212.271 92.1552C213.296 91.6257 213.546 91.2113 213.569 90.0603C213.569 88.748 212.818 88.0113 211.224 87.8042C210.108 87.643 209.243 87.0675 209.243 86.4919C209.266 85.7783 209.949 85.2948 210.951 85.3178C211.497 85.3178 212.089 85.456 212.271 85.5941C212.613 85.8934 213.114 85.548 213.114 85.0416C213.114 84.397 210.381 84.0056 209.334 84.5121Z" fill="black"/>
<path d="M216.757 84.42C215.505 84.8804 214.753 86.9524 215.027 89.2775C215.209 90.9121 215.664 91.7178 216.62 92.1782C217.987 92.8229 219.467 92.5006 220.263 91.3495C221.151 90.0603 220.332 89.5538 219.262 90.7049C218.465 91.5567 217.508 91.6257 216.803 90.866C216.37 90.4056 216.302 90.0603 216.302 88.3797C216.302 85.9624 216.598 85.4099 217.895 85.4099C218.624 85.4099 218.897 85.548 219.307 86.1006C220.081 87.1826 220.992 87.0214 220.582 85.8473C220.172 84.6502 218.169 83.8905 216.757 84.42Z" fill="black"/>
<path d="M223.541 84.6503C222.562 85.2718 222.221 86.2618 222.221 88.4488C222.221 89.9452 222.312 90.5208 222.676 91.0963C223.496 92.4776 225.067 92.892 226.547 92.1323C227.685 91.5567 227.913 90.9352 227.913 88.2416C227.913 85.9625 227.89 85.8474 227.275 85.1567C226.729 84.5352 226.433 84.397 225.386 84.328C224.498 84.2589 223.997 84.351 223.541 84.6503ZM226.41 85.9165C226.683 86.2848 226.774 86.9985 226.774 88.4258C226.774 90.3366 226.752 90.4747 226.182 90.9121C225.431 91.5107 224.702 91.5337 224.019 90.9582C223.519 90.5438 223.473 90.3366 223.473 88.4488C223.473 86.7452 223.541 86.2848 223.906 85.8934C224.52 85.2028 225.932 85.2258 226.41 85.9165Z" fill="black"/>
<path d="M229.052 84.6502C229.052 84.8804 229.279 85.8934 229.53 86.9063C229.78 87.9193 230.145 89.3236 230.304 90.0143C230.805 92.0402 231.055 92.5466 231.534 92.5466C232.012 92.5466 232.012 92.5466 233.059 88.7941C233.287 87.9423 233.583 87.2747 233.697 87.3207C233.788 87.3438 234.22 88.5179 234.607 89.8991C235.268 92.2243 235.381 92.4315 235.882 92.4315C236.383 92.4315 236.474 92.2013 237.385 88.633C237.931 86.538 238.387 84.6963 238.387 84.5351C238.387 84.397 238.136 84.2589 237.818 84.2589C237.226 84.2589 237.248 84.1668 236.429 87.597C235.882 89.8991 235.746 90.0833 235.427 88.8632C235.29 88.2876 234.972 87.1596 234.744 86.3538C234.493 85.5481 234.289 84.7423 234.289 84.5581C234.289 84.397 234.038 84.2589 233.742 84.2589C233.173 84.2589 233.15 84.3049 231.921 88.8632C231.761 89.4157 231.579 89.784 231.511 89.6689C231.442 89.5308 231.101 88.2646 230.737 86.8373C230.167 84.4891 230.054 84.2589 229.575 84.2589C229.234 84.2589 229.052 84.397 229.052 84.6502Z" fill="black"/>
<path d="M242.986 88.3336C243.054 92.2473 243.077 92.4315 243.51 92.4315C243.919 92.4315 243.965 92.2473 244.033 90.7739C244.102 89.1854 244.124 89.0933 244.671 88.9552C245.399 88.771 245.65 89.0243 246.674 90.9351C247.426 92.3854 247.995 92.8228 248.45 92.3624C248.61 92.2013 248.405 91.6257 247.836 90.5667L246.97 89.0243L247.562 88.5869C247.881 88.3566 248.268 87.8041 248.405 87.3667C248.633 86.6761 248.61 86.4228 248.245 85.7092C247.699 84.5351 247.039 84.2588 244.807 84.2588H242.94L242.986 88.3336ZM246.993 85.6861C247.153 85.8473 247.266 86.3077 247.266 86.7221C247.266 87.643 246.788 87.9423 245.24 87.9423H244.079V86.6761V85.4099H245.399C246.128 85.4099 246.834 85.525 246.993 85.6861Z" fill="black"/>
<path d="M250.386 84.3971C250.112 84.6734 250.226 89.8302 250.522 90.7051C250.909 91.8561 252.116 92.6158 253.346 92.4777C255.645 92.2245 256.192 91.1655 256.101 87.1828L256.032 84.3741L255.418 84.3051L254.78 84.236V87.3439C254.78 90.1756 254.734 90.5209 254.325 90.9353C253.755 91.5108 252.708 91.5338 252.071 90.9813C251.638 90.636 251.592 90.3137 251.547 87.482C251.479 84.5583 251.456 84.3741 251.023 84.3051C250.75 84.259 250.477 84.3051 250.386 84.3971Z" fill="black"/>
<path d="M186.862 88.7712C186.77 88.8633 186.702 89.1396 186.702 89.3698C186.702 89.7381 186.907 89.7842 188.433 89.7842C190.072 89.7842 190.14 89.7612 190.072 89.2547C190.004 88.7943 189.867 88.7482 188.524 88.6791C187.704 88.6331 186.953 88.6791 186.862 88.7712Z" fill="black"/>
<path d="M239.57 91.787C239.616 92.2934 239.775 92.4546 240.276 92.5006C240.822 92.5697 240.891 92.5006 240.891 91.8791C240.891 91.2345 240.822 91.1654 240.185 91.1654C239.57 91.1654 239.502 91.2345 239.57 91.787Z" fill="black"/>
</svg>
