<svg width="163" height="99" viewBox="0 0 163 99" fill="none" xmlns="http://www.w3.org/2000/svg">
<g clip-path="url(#clip0_1019_58)">
<path d="M161.503 74.1361H4.18723C3.35823 74.1361 2.68945 73.365 2.68945 72.4046C2.68945 71.4443 3.35823 70.6732 4.18723 70.6732H161.503C162.332 70.6732 163 71.4443 163 72.4046C163 73.365 162.332 74.1361 161.503 74.1361Z" fill="#E1192C"/>
<path d="M22.599 14.9798C26.9321 13.3955 27.4616 11.2365 27.371 10.0519V4.82251C27.371 2.95789 26.5908 1.83632 25.9359 1.22646C24.6332 -0.000262416 22.9822 -0.0212919 22.5572 -0.000262413H4.87648C4.40276 -0.0142821 2.75172 -0.000262416 1.43507 1.22646C0.780228 1.83632 -9.99819e-06 2.95088 -9.99819e-06 4.82251V10.0939C-0.034842 11.0052 0.355277 13.2974 4.74411 14.9658C7.29382 15.9331 8.06709 16.2275 8.06709 20.5386V55.8051C8.03226 56.478 8.01833 58.8053 9.60667 60.5367C10.3103 61.3008 11.5851 62.2121 13.689 62.2121C15.7928 62.2121 17.0677 61.3008 17.7713 60.5367C19.3596 58.8053 19.3527 56.478 19.3109 55.8752V20.5456C19.3109 16.1785 20.1399 15.877 22.606 14.9798H22.599ZM17.1165 20.5456V55.9453C17.1304 56.1416 17.207 57.901 16.1551 59.0436C15.751 59.4853 14.9917 60.011 13.682 60.011C12.3723 60.011 11.613 59.4853 11.2089 59.0436C10.164 57.901 10.2336 56.1416 10.2476 55.8752V20.5456C10.2476 14.9658 8.6244 14.0895 5.51042 12.9049C2.21531 11.6571 2.17351 10.3252 2.18048 10.136V4.82251C2.18048 3.75 2.57756 3.15417 2.91195 2.84573C3.53196 2.26392 4.37489 2.20784 4.70232 2.20784C4.75108 2.20784 4.78591 2.20784 4.81378 2.20784H22.599C22.7801 2.20083 23.7415 2.18681 24.4451 2.83872C24.7795 3.15417 25.1766 3.75 25.1766 4.8155V10.0869C25.1766 10.0869 25.1766 10.157 25.1766 10.192C25.2393 10.858 24.4033 11.9655 21.8397 12.8978C18.5446 14.0965 17.1025 15.1831 17.1025 20.5386L17.1165 20.5456Z" fill="white"/>
<path d="M80.2459 43.5521C80.5873 43.496 81.8203 43.3348 85.1712 43.3348C86.8083 43.3348 88.2294 42.7179 89.2744 41.5473C91.629 38.9116 91.2111 34.4603 91.1623 34.0327C91.1344 33.3248 90.3124 16.6483 80.1066 16.5923C78.8387 16.5222 72.36 16.7535 68.821 28.7123C68.7305 29.0277 68.6399 29.3432 68.5563 29.6516V28.2917C68.5633 28.1585 68.5772 27.815 68.5424 27.3594C68.4936 22.4665 65.0801 17.0058 60.5589 17.0058C57.619 17.0058 55.2017 19.0177 53.8572 20.4547C52.3246 17.5106 49.6564 16.9708 48.291 17.153C47.6292 17.1881 45.804 17.4965 43.0871 19.5574C41.7844 17.3003 39.8756 16.9498 38.8167 16.9498C36.7129 16.9498 35.438 17.861 34.7344 18.6251C33.1461 20.3565 33.16 22.6838 33.1948 23.2867V55.7983C33.153 56.4713 33.1461 58.7985 34.7344 60.53C35.438 61.294 36.7129 62.2053 38.8167 62.2053C40.9206 62.2053 42.1954 61.294 42.899 60.53C44.4804 58.8055 44.4734 56.5063 44.4316 55.9105V37.6008C44.4316 37.5166 44.4316 37.4255 44.4316 37.3344C44.3829 34.4113 44.6406 32.5537 44.9263 31.6284C45.2467 32.6378 45.5184 34.5725 45.5184 37.3484C45.5184 37.4395 45.5184 37.5237 45.5323 37.6148L45.5184 55.8824C45.4836 56.5904 45.5045 58.8196 46.9604 60.5019C47.6292 61.28 48.8483 62.2053 50.8686 62.2053C52.8889 62.2053 54.108 61.28 54.7768 60.5019C56.2327 58.8125 56.2536 56.5694 56.2188 55.8544V37.5166C56.2258 37.4255 56.2258 37.3414 56.2258 37.2503C56.177 34.3272 56.4348 32.4696 56.7204 31.5443C57.0408 32.5537 57.3125 34.4884 57.3125 37.2643C57.3125 37.3554 57.3125 37.4465 57.3195 37.5307V55.7983C57.2777 56.4713 57.2707 58.7985 58.8591 60.53C59.5627 61.294 60.8375 62.2053 62.9414 62.2053C65.0452 62.2053 66.3201 61.294 67.0237 60.53C68.612 58.7985 68.5981 56.4713 68.5633 55.8684V49.8119C68.8141 50.7863 69.0022 51.3611 69.037 51.4522C69.1763 51.9008 72.6038 62.2053 80.0996 62.2053C86.1744 62.2053 89.156 57.2353 89.8596 54.5786C90.2706 53.3589 90.4796 50.8283 88.6405 49.0478C86.7944 47.2603 84.4467 47.5547 82.9419 48.9076C82.3986 49.4684 81.4442 50.0923 81.1237 50.0993C79.6259 50.0993 79.3821 47.6669 79.3821 46.5874C79.3821 44.4704 79.9255 43.7694 80.0927 43.6012C80.1484 43.5872 80.2041 43.5661 80.2599 43.5451L80.2459 43.5521ZM65.4075 59.0439C65.0034 59.4855 64.2441 60.0112 62.9344 60.0112C61.6247 60.0112 60.8654 59.4855 60.4613 59.0439C59.4164 57.9013 59.493 56.1418 59.5069 55.8754V37.4816C59.5069 37.4325 59.5069 37.3274 59.5 37.2783C59.5 33.0654 58.9775 30.3876 57.9465 29.3081C57.6121 28.9646 57.2289 28.7894 56.804 28.7894C56.2815 28.7894 55.8217 28.9927 55.4386 29.3922C54.1846 30.7031 53.9826 34.4183 54.0313 37.3484C54.0313 37.3905 54.0244 37.4395 54.0244 37.4816V55.8824C54.0244 55.8824 54.0244 55.9035 54.0244 55.9105C54.0244 55.9245 54.0244 55.9315 54.0244 55.9455C54.0383 56.1418 54.108 57.9293 53.1187 59.0789C52.5823 59.7028 51.823 60.0182 50.8686 60.0182C49.9142 60.0182 49.1549 59.7028 48.6185 59.0789C47.6292 57.9363 47.6989 56.1698 47.7128 55.9736C47.7128 55.9595 47.7128 55.9525 47.7128 55.9385C47.7128 55.9245 47.7128 55.9175 47.7128 55.9105V37.5727C47.7198 37.5166 47.7198 37.4185 47.7128 37.3624C47.7128 33.1495 47.1903 30.4717 46.1593 29.3922C45.8249 29.0488 45.4418 28.8735 45.0168 28.8735C44.4943 28.8735 44.0346 29.0768 43.6514 29.4764C42.3974 30.7872 42.1954 34.5024 42.2442 37.4325C42.2442 37.4746 42.2372 37.5237 42.2372 37.5657V55.9946C42.2581 56.31 42.3069 57.9433 41.2828 59.0579C40.8788 59.4995 40.1194 60.0252 38.8097 60.0252C37.5001 60.0252 36.7407 59.4995 36.3367 59.0579C35.2917 57.9153 35.3614 56.1558 35.3753 55.8894V23.2236C35.3614 23.0273 35.2847 21.2678 36.3367 20.1252C36.7407 19.6836 37.5001 19.1579 38.8097 19.1579C39.8965 19.1579 40.7534 19.7677 41.3386 20.9664C41.3455 20.9874 41.3873 21.0716 41.4013 21.0926C41.457 21.2047 41.5057 21.3239 41.5545 21.4431C41.5963 21.5482 41.652 21.6534 41.7287 21.7375C41.7496 21.7655 41.7844 21.8006 41.8123 21.8286C41.9795 21.9968 42.1885 22.102 42.4183 22.137C43.0453 22.2352 43.8116 21.7725 44.348 21.359C46.7375 19.5294 48.1447 19.3682 48.4791 19.3471C48.5836 19.3331 50.994 19.0667 52.1713 22.0529C52.3455 22.4945 52.5336 22.8591 52.7286 23.1184C52.9585 23.4269 53.3208 23.5881 53.7039 23.56C54.0313 23.532 54.3239 23.3568 54.512 23.0904C54.6792 22.8591 57.3892 19.2139 60.5589 19.2139C63.7286 19.2139 66.3271 23.7002 66.348 27.4155C66.348 27.4435 66.348 27.4715 66.348 27.4996C66.3758 27.8431 66.3689 28.1024 66.3619 28.2286V55.9385C66.3758 56.1348 66.4524 57.8943 65.4005 59.0369L65.4075 59.0439ZM79.5075 41.4772C79.3891 41.4982 79.2776 41.5333 79.1731 41.5824C78.5531 41.8838 77.1807 42.9703 77.1807 46.5944C77.1807 51.985 80.2111 52.3144 81.1167 52.3144C82.6702 52.3144 84.3352 50.625 84.3561 50.597C84.4118 50.5479 85.7842 49.3493 87.1148 50.6391C88.1667 51.6555 88.0135 53.1977 87.7627 53.9407C87.1845 56.0997 84.8368 60.0112 80.0927 60.0112C74.1782 60.0112 71.1478 50.8844 71.113 50.7723C70.9667 50.3517 67.6437 40.4187 70.9249 29.3432C73.8786 19.3541 78.79 18.7934 79.8837 18.7934C79.9464 18.7934 80.0021 18.7934 80.0369 18.7934C83.3669 18.8144 85.8678 21.2398 87.4701 26.0065C88.7868 29.911 88.9679 33.9556 88.9818 34.201C88.9818 34.243 89.3998 38.1195 87.6512 40.0682C87.0243 40.7692 86.1952 41.1267 85.1782 41.1267C81.3815 41.1267 80.0787 41.323 79.6886 41.4071C79.6329 41.4211 79.5702 41.4422 79.5145 41.4632L79.5075 41.4772Z" fill="white"/>
<path d="M31.8712 23.3638C31.913 22.6908 31.92 20.3636 30.3316 18.6321C29.628 17.8681 28.3532 16.9568 26.2493 16.9568C24.1455 16.9568 22.8706 17.8681 22.167 18.6321C20.5787 20.3636 20.5926 22.6908 20.6274 23.2937V55.8053C20.5856 56.4783 20.5787 58.8055 22.167 60.537C22.8706 61.301 24.1455 62.2123 26.2493 62.2123C28.3532 62.2123 29.628 61.301 30.3316 60.537C31.92 58.8055 31.913 56.4783 31.8712 55.8754V23.3638ZM28.7224 59.0439C28.3184 59.4855 27.559 60.0112 26.2493 60.0112C24.9396 60.0112 24.1803 59.4855 23.7763 59.0439C22.7313 57.9013 22.801 56.1418 22.8149 55.8754V23.2306C22.801 23.0343 22.7243 21.2678 23.7763 20.1322C24.1803 19.6906 24.9396 19.1649 26.2493 19.1649C27.559 19.1649 28.3184 19.6906 28.7224 20.1322C29.7674 21.2748 29.6977 23.0343 29.6838 23.3007V55.9525C29.6977 56.1488 29.7743 57.9083 28.7224 59.0509V59.0439Z" fill="white"/>
<path d="M107.958 49.8609C106.934 49.8609 106.001 49.2581 105.569 48.3258C104.224 45.4097 103.514 39.8509 103.514 32.2522C103.514 22.2071 104.607 17.4615 105.52 15.2534C105.931 14.265 106.885 13.6271 107.951 13.6271C109.017 13.6271 109.972 14.265 110.383 15.2534C111.302 17.4615 112.389 22.2071 112.389 32.2522C112.389 39.8369 111.685 45.3887 110.348 48.3188C109.923 49.2581 108.982 49.8609 107.958 49.8609ZM107.951 15.8983C107.798 15.8983 107.666 15.9894 107.603 16.1296C106.767 18.1484 105.764 22.5857 105.764 32.2522C105.764 41.9188 106.92 45.8723 107.61 47.3725C107.673 47.5056 107.805 47.5898 107.951 47.5898C108.098 47.5898 108.23 47.5056 108.293 47.3725C108.975 45.8723 110.125 41.9048 110.125 32.2522C110.125 22.5997 109.129 18.1484 108.286 16.1296C108.23 15.9894 108.091 15.8983 107.937 15.8983H107.951Z" fill="white"/>
<path d="M79.7094 26.8407C79.7094 26.8407 77.1318 26.8547 77.1318 30.8083C77.1318 34.5585 79.7094 34.3202 79.7094 34.3202C79.7094 34.3202 82.287 34.5515 82.287 30.8083C82.287 26.8547 79.7094 26.8407 79.7094 26.8407ZM79.7233 32.1191H79.7024C79.3054 32.1191 79.3263 31.6565 79.3263 30.4227C79.3263 29.189 79.7024 29.1259 79.7024 29.1259H79.7233C79.7233 29.1259 80.0995 29.182 80.0995 30.4227C80.0995 31.6635 80.1204 32.1191 79.7233 32.1191Z" fill="white"/>
<path d="M159.628 51.4382C159.405 51.3961 157.413 50.9405 157.413 47.1061V28.3898C157.413 28.3898 157.413 28.3408 157.413 28.3197C159.754 27.9692 161.983 26.0415 161.983 22.7609C161.983 19.4803 159.705 17.6998 157.413 17.2442V9.46326C157.455 8.79031 157.462 6.46305 155.873 4.73162C155.17 3.96754 153.895 3.05626 151.791 3.05626C149.687 3.05626 148.412 3.96754 147.709 4.73162C146.12 6.46305 146.134 8.79031 146.169 9.39316V16.0876C146.148 16.2207 146.134 16.3609 146.141 16.4871L146.162 17.7279C145.18 18.1975 144.407 18.9055 143.884 19.7958C143.675 19.3962 143.424 18.9966 143.083 18.6321C142.379 17.8681 141.105 16.9568 139.001 16.9568C136.897 16.9568 135.622 17.8681 134.918 18.6321C133.33 20.3636 133.344 22.6908 133.379 23.2937V43.9517C133.365 44.0638 133.358 44.176 133.358 44.3022V44.8209C133.365 44.9891 133.365 45.1434 133.365 45.2906C133.365 45.6551 133.358 45.9635 133.344 46.2299V46.4191C133.344 47.2043 133.142 47.8421 132.891 47.8421C132.64 47.8421 132.445 47.2043 132.445 46.4191L132.404 45.3677C132.404 45.3677 132.404 45.3396 132.404 45.3256V45.3116C132.383 44.6667 132.383 44.0428 132.383 43.6222C132.383 42.9913 132.383 42.3815 132.369 41.8978V23.3638C132.397 22.8871 132.466 20.4126 130.829 18.6321C130.126 17.8681 128.851 16.9568 126.747 16.9568C124.643 16.9568 123.368 17.8681 122.665 18.6321C122.128 19.221 121.773 19.8729 121.543 20.5038C120.456 12.8771 118.15 7.45143 114.653 4.30401C111.609 1.56317 108.62 1.54915 107.945 1.5842C107.074 1.53513 104.211 1.59121 101.25 4.2199C96.1713 8.72723 93.5938 18.0854 93.5938 32.0279C93.5938 45.9705 96.1504 54.9501 101.201 59.4855C103.967 61.974 106.67 62.2404 107.708 62.2404C107.805 62.2404 107.882 62.2404 107.952 62.2404C108.836 62.2684 111.727 62.1142 114.702 59.3944C117.774 56.5834 119.927 52.0481 121.125 45.8373V50.2956C121.097 51.4522 121.104 57.3615 124.051 60.3968C125.166 61.5464 126.524 62.1422 128.091 62.1773C130.383 62.1773 132.195 61.7497 134.264 59.6678C135.225 61.294 136.904 62.2193 138.994 62.2193C141.084 62.2193 142.373 61.3081 143.076 60.544C144.664 58.8126 144.651 56.4853 144.616 55.8824V26.6864C145.048 27.1281 145.556 27.5066 146.155 27.787C146.155 27.829 146.155 27.8711 146.155 27.9202V48.2908C146.148 48.4871 146.127 49.0128 146.211 49.5525C147.082 61.2309 154.264 62.1352 156.424 62.1352H156.598C156.598 62.1352 156.612 62.1352 156.619 62.1352C157.134 62.1352 158.479 62.0721 159.768 61.5183C161.753 60.6631 162.889 58.9527 162.889 56.8288C162.889 52.3355 160.569 51.5504 159.621 51.4312L159.628 51.4382ZM113.246 57.7541C110.759 60.0253 108.446 60.0533 108.007 60.0252C107.972 60.0252 107.931 60.0252 107.896 60.0252C107.359 60.0533 105.074 59.9902 102.678 57.8382C98.1149 53.7374 95.8021 45.0522 95.8021 32.0279C95.8021 19.0037 98.1289 9.93993 102.713 5.86721C104.838 3.98156 106.837 3.77127 107.645 3.77127C107.763 3.77127 107.861 3.77127 107.924 3.77828C107.945 3.77828 108.028 3.77828 108.056 3.77828C108.488 3.75024 110.745 3.7222 113.211 5.94432C117.788 10.0591 120.101 18.8354 120.101 32.0279C120.101 45.2205 117.795 53.6042 113.246 57.7541ZM141.481 59.0369C141.077 59.4785 140.317 60.0042 139.008 60.0042C137.294 60.0042 136.165 59.135 135.741 57.4877C135.643 57.0951 135.336 56.7937 134.946 56.6956C134.856 56.6745 134.772 56.6605 134.682 56.6605C134.382 56.6605 134.083 56.7867 133.874 57.018L133.734 57.1793C131.916 59.2962 130.397 59.9622 128.273 59.9622C128.245 59.9622 128.21 59.9622 128.182 59.9622C127.186 59.9481 126.35 59.5836 125.639 58.8476C123.71 56.8568 123.285 52.5598 123.34 50.3096V23.2236C123.326 23.0273 123.25 21.2678 124.295 20.1252C124.699 19.6836 125.458 19.1579 126.768 19.1579C127.82 19.1579 128.649 19.4873 129.241 20.1252C130.293 21.2678 130.209 23.0273 130.195 23.2937V41.9399C130.216 42.4376 130.209 43.0194 130.209 43.6292C130.209 44.2391 130.223 44.7298 130.244 45.1714V46.8678C130.244 48.6132 131.435 50.0222 132.905 50.0222C134.375 50.0222 135.566 48.6062 135.566 46.8678V45.7813C135.573 45.4658 135.566 45.1363 135.566 44.7929V44.6877V44.2391C135.566 44.2181 135.566 44.19 135.566 44.169C135.573 44.1199 135.573 44.0709 135.573 44.0148V23.2166C135.559 23.0203 135.483 21.2608 136.535 20.1182C136.939 19.6766 137.698 19.1509 139.008 19.1509C140.317 19.1509 141.077 19.6766 141.481 20.1182C142.526 21.2608 142.449 23.0203 142.442 23.2867V55.9385C142.456 56.1348 142.533 57.8943 141.488 59.0369H141.481ZM158.911 59.4925C157.984 59.8991 156.946 59.9271 156.64 59.9341H156.459C149.722 59.9341 148.594 51.8588 148.405 49.3072C148.343 48.8726 148.364 48.4871 148.371 48.3539V27.9062C148.364 27.1771 148.21 26.6304 147.918 26.2659C147.792 26.1116 147.569 25.9714 147.388 25.9083C146.016 25.3896 145.319 24.3311 145.319 22.7539C145.319 21.1767 146.107 19.9991 147.59 19.5294C147.987 19.4032 148.28 19.0597 148.343 18.6462C148.35 18.5761 148.364 18.4849 148.371 18.3097L148.343 16.4381C148.364 16.3539 148.371 16.2698 148.371 16.1927V9.33007C148.357 9.1338 148.28 7.36732 149.332 6.23172C149.736 5.7901 150.488 5.26436 151.805 5.26436C153.115 5.26436 153.874 5.7901 154.278 6.23172C155.323 7.37433 155.246 9.1338 155.239 9.40017V18.2115C155.239 18.8004 155.692 19.284 156.277 19.3121C157.343 19.3682 159.816 19.8238 159.816 22.7609C159.816 25.1092 158.179 26.1747 156.654 26.1747C156.459 26.1747 156.264 26.2308 156.096 26.3289C155.393 26.7495 155.267 27.8361 155.246 28.3338V47.1061C155.246 52.721 158.862 53.5341 159.329 53.6183C160.22 53.7304 160.736 54.9011 160.736 56.8358C160.736 58.0905 160.13 58.9878 158.939 59.4995L158.911 59.4925Z" fill="white"/>
<path d="M59.7367 98.7827V92.586C59.7367 91.0368 59.7158 91.8009 59.7854 88.7236C59.8063 87.9104 59.8063 87.3426 59.8063 86.6486C59.7367 87.1253 59.667 87.5038 59.5695 88.338C59.1933 91.5555 59.1933 91.0999 58.9773 92.579L58.0508 98.7757H56.2256L55.2573 92.4388C55.0204 90.9387 54.7835 89.8171 54.6442 88.5062C54.5954 87.9595 54.5745 87.5529 54.4561 86.6486C54.5049 87.651 54.5745 91.1279 54.5745 92.5089V98.7757H52.6797V82.4287H55.306L56.6575 91.0088C56.8456 92.1303 57.0825 94.5838 57.1521 95.6353C57.1521 95.5371 57.173 95.446 57.173 95.3479C57.1939 94.9693 57.2218 94.6118 57.2427 94.2263C57.3123 93.2519 57.4795 92.3897 57.6955 91.0088L58.9773 82.4287H61.7012V98.7757H59.7367V98.7827Z" fill="white"/>
<path d="M71.8446 84.5808C72.2974 85.7514 72.4576 87.3216 72.4576 90.6092C72.4576 93.8968 72.2904 95.4741 71.8446 96.6377C71.0852 98.6145 69.692 99 68.7654 99C67.8389 99 66.4456 98.6215 65.6863 96.6377C65.2335 95.467 65.0732 93.8968 65.0732 90.6092C65.0732 87.3216 65.2404 85.7444 65.6863 84.5808C66.4456 82.604 67.8389 82.2184 68.7654 82.2184C69.692 82.2184 71.0852 82.597 71.8446 84.5808ZM68.034 96.4695C68.2012 96.8059 68.3892 96.9672 68.7654 96.9672C69.1416 96.9672 69.3367 96.7989 69.4969 96.4695C69.6641 96.133 69.8522 95.5161 69.8522 90.6092C69.8522 85.7023 69.6641 85.0785 69.4969 84.749C69.3297 84.4195 69.1416 84.2513 68.7654 84.2513C68.3892 84.2513 68.1942 84.4195 68.034 84.749C67.8668 85.0855 67.6787 85.7023 67.6787 90.6092C67.6787 95.5161 67.8668 96.14 68.034 96.4695Z" fill="white"/>
<path d="M82.5445 95.0885C82.4749 95.9437 82.1405 97.2125 81.5971 97.9275C80.9353 98.7827 80.1272 98.979 79.2982 98.979C78.5876 98.979 77.5914 98.8388 76.8112 97.7873C76.3166 97.1214 75.5781 95.4741 75.5781 90.469C75.5781 85.8215 76.2399 84.1321 76.8808 83.34C77.2152 82.9334 77.9467 82.2184 79.2494 82.2184C80.1969 82.2184 80.9771 82.597 81.4508 83.1227C82.0639 83.8167 82.4958 85.3378 82.5376 86.3402L80.2874 86.6276C80.2665 86.1299 80.1899 85.5061 80.0018 84.9803C79.8834 84.6439 79.7162 84.2863 79.2703 84.2863C78.6573 84.2863 78.511 84.8121 78.4204 85.2607C78.1627 86.5926 78.1348 89.053 78.1348 90.6723C78.1348 94.703 78.3717 95.6984 78.4901 96.1049C78.5876 96.4624 78.7478 96.9181 79.2982 96.9181C79.751 96.9181 79.9391 96.5816 80.0575 96.2031C80.176 95.8246 80.2735 95.1796 80.2944 94.752L82.5445 95.0885Z" fill="white"/>
<path d="M88.3891 88.9198H89.0509C89.8799 88.9198 90.0192 88.345 90.068 87.9665C90.1864 86.9641 90.2073 86.3963 90.2561 85.5341C90.3048 84.77 90.3257 84.3634 90.3954 84.034C90.5138 83.5363 90.7507 83.0105 91.0572 82.7231C91.4822 82.3166 92.0255 82.2955 92.3808 82.2955C92.6665 82.2955 92.8058 82.3166 93.0217 82.4357V84.3424H92.8824C92.6665 84.3424 92.3599 84.3634 92.339 85.2467C92.3181 85.8425 92.1718 87.5319 92.1231 87.8894C92.0743 88.3871 91.9837 88.9128 91.6494 89.3404C91.4613 89.5998 91.1547 89.8171 90.7995 89.9363V90.0064C91.7469 90.2237 92.0534 90.8616 92.1997 91.2681C92.4575 92.0322 92.4575 92.9575 92.5062 94.1492C92.555 95.6282 92.555 96.1259 92.7431 96.4624C92.9103 96.7498 93.1193 96.7008 93.2168 96.6797V98.7757C93.0287 98.8948 92.8824 98.9159 92.6038 98.9159C92.1509 98.9159 91.2314 98.8458 90.7577 97.6541C90.4233 96.8199 90.3536 95.5301 90.284 93.9108C90.2143 92.6491 90.1655 92.1444 89.9983 91.8359C89.7615 91.4083 89.4062 91.3382 89.0509 91.3382H88.3891V98.7757H86.0205V82.4287H88.3891V88.9128V88.9198Z" fill="white"/>
<path d="M97.0763 82.4357H99.2777C100.086 82.4357 101.103 82.4568 101.904 83.1017C103.019 83.9849 103.137 85.5341 103.137 86.4383C103.137 87.2936 103.019 88.5133 102.566 89.1792C102.35 89.5157 101.925 89.8942 101.312 90.0624C102.141 90.2797 102.636 90.7985 102.9 91.184C103.423 91.9972 103.562 93.329 103.562 94.2333C103.562 96.4274 102.831 97.4508 102.329 97.9065C101.333 98.8107 99.9604 98.7897 99.2707 98.7897H97.0693V82.4427L97.0763 82.4357ZM99.7305 89.2283C100.344 89.2773 100.629 88.8007 100.748 88.5343C100.887 88.2259 100.915 87.8193 100.915 86.7678C100.915 85.457 100.727 85.0294 100.629 84.8401C100.344 84.3144 100.016 84.3144 99.7305 84.3144H99.3961V89.2002L99.7305 89.2213V89.2283ZM99.8002 96.855C100.295 96.855 100.65 96.8059 100.915 96.2101C101.054 95.9016 101.131 95.425 101.131 94.0651C101.131 92.7052 101.033 92.1374 100.845 91.7308C100.539 91.0648 100.232 91.1139 99.8002 91.1139H99.3961V96.855H99.8002Z" fill="white"/>
<path d="M111.525 98.7827L110.954 94.2754H108.99L108.495 98.7827H106.314L108.822 82.4357H111.212L113.796 98.7827H111.525ZM110.362 89.3685C109.937 85.9336 110.055 86.0528 109.867 84.9102C109.61 87.5109 109.888 85.8425 109.491 89.3685L109.157 92.2775H110.717L110.362 89.3685Z" fill="white"/>
</g>
<defs>
<clipPath id="clip0_1019_58">
<rect width="163" height="99" fill="white"/>
</clipPath>
</defs>
</svg>
