<svg width="233" height="106" viewBox="0 0 233 106" fill="none" xmlns="http://www.w3.org/2000/svg">
<path d="M195.204 89.25V81.1912H216.964C219.973 81.1912 221.883 82.2273 221.883 85.1631C221.883 88.0986 220.147 89.25 216.964 89.25H195.204ZM195.204 72.8448V64.7863H216.154C219.337 64.7863 221.073 66.1103 221.073 68.7582C221.073 71.5209 219.337 72.8448 216.154 72.8448H195.204ZM184.844 56.44V97.6539H216.848C225.934 97.6539 232.705 94.085 232.705 86.0265C232.705 81.8821 230.39 78.3707 226.744 76.7016C229.754 74.9747 231.721 71.8088 231.721 68.0673C231.721 59.836 224.777 56.44 216.038 56.44H184.844ZM142.944 47V53.8499L172.055 50.6264V47.0575H142.944V47ZM148.153 56.44H138.604V97.6539H149.542L166.672 69.6214H166.904L166.441 97.6539H176.106V56.44H165.052L147.922 84.5875H147.69L148.153 56.44ZM118.812 82.8606H109.899L114.124 65.8224H114.355L118.812 82.8606ZM108.684 56.44L95.2574 97.6539H105.906L107.758 91.0917H121.069L123.094 97.6539H133.743L120.316 56.44H108.684ZM68.2886 74.3991V64.7288H82.0044C85.3612 64.7288 86.9815 66.5708 86.9815 69.5063C86.9815 72.4419 85.2453 74.3991 82.0044 74.3991H68.2886ZM81.7152 56.44H58.2767V97.6539H68.3464V82.6878H81.773C90.8589 82.6878 96.8778 78.1981 96.8778 69.5063C96.8778 60.8148 90.6854 56.44 81.7152 56.44ZM53.0103 106V89.0196H47.165V56.44H10.0108L9.37401 75.4352C9.20049 80.2127 7.98506 85.1055 5.20728 89.0196H0.288086V106H10.5894V97.6539H42.709V106H53.0103ZM19.1546 76.2411L19.5597 65.0167H36.9794V89.0196H15.798C17.8815 85.6236 18.981 80.9036 19.1546 76.2411Z" fill="#32D264"/>
<path d="M169.122 0.921028H158.939V42.1365H170.164L194.292 13.4699H194.524L194.35 42.1365H204.534V0.921028H193.308L169.18 29.5876H168.949L169.122 0.921028ZM132.843 9.0374V42.1365H142.39V9.0374H153.499V0.921028H121.733V9.0374H132.843ZM92.2239 0.921028H82.966V42.1365H93.7861L107.499 14.2759H107.731L107.094 42.079H116.352V0.921028H105.59L91.8189 28.7819H91.5873L92.2239 0.921028ZM77.469 31.7751L67.806 27.6305C64.7973 33.0991 59.8789 34.1927 53.9193 34.1927C44.1407 34.1927 39.1066 29.8755 39.1066 21.7592V21.1833C39.1066 13.0669 44.0828 8.74974 53.9193 8.74974C59.8789 8.74974 64.7973 9.90089 67.806 15.312L77.469 11.1674C72.8979 1.84205 63.6402 0 53.9193 0C38.2386 0 28.46 8.05884 28.46 20.7228V22.2772C28.46 35.0562 38.2387 43 53.9772 43C63.6402 43 72.8979 41.1004 77.469 31.7751Z" fill="white"/>
</svg>
