<svg width="244" height="93" viewBox="0 0 244 93" fill="none" xmlns="http://www.w3.org/2000/svg">
<g clip-path="url(#clip0_804_464)">
<mask id="mask0_804_464" style="mask-type:luminance" maskUnits="userSpaceOnUse" x="0" y="0" width="244" height="93">
<path d="M244 0H0V92.8096H244V0Z" fill="white"/>
</mask>
<g mask="url(#mask0_804_464)">
<path d="M135.001 28.1643H129.183L121.228 43.0186V28.1643H116.004V64.7651H121.228V54.0701L123.722 49.4356L129.658 64.7651H135.12L126.927 43.3751L135.001 28.1643Z" fill="black"/>
<path d="M151.743 55.9716C151.743 58.2292 149.962 60.1306 147.706 60.1306C145.45 60.1306 143.55 58.3481 143.55 55.9716V28.1643H138.326V55.8526C138.326 60.9626 142.482 65.1216 147.587 65.1216C152.693 65.1216 156.849 60.9626 156.849 55.8526V28.1643H151.624V55.9716H151.743Z" fill="black"/>
<path d="M169.91 28.1643H160.648V64.7651H169.91C175.015 64.7651 179.171 60.6061 179.171 55.4961V37.4332C179.171 32.3236 175.015 28.1643 169.91 28.1643ZM173.947 55.7337C173.947 57.9916 172.166 59.7741 169.91 59.7741H165.754V33.0366H169.91C172.166 33.0366 173.947 34.8191 173.947 37.0767V55.7337Z" fill="black"/>
<path d="M193.775 28.1643H188.789L180.952 64.7651H186.295L187.483 59.0611H195.319L196.507 64.7651H201.85L193.894 28.2831L193.775 28.1643ZM194.132 54.1891H188.314L191.163 40.2852L194.132 54.1891Z" fill="black"/>
<path d="M212.417 27.8071C207.311 27.8071 203.155 31.9664 203.155 37.0761V55.733C203.155 60.8429 207.311 65.0023 212.417 65.0023C217.522 65.0023 221.678 60.8429 221.678 55.733V49.5539H211.942V54.4259H216.454V55.9709C216.454 58.2288 214.673 60.1299 212.417 60.1299C210.16 60.1299 208.261 58.3474 208.261 55.9709V36.8385C208.261 34.5806 210.042 32.6794 212.417 32.6794C214.673 32.6794 216.454 34.4619 216.454 36.8385V39.2151H221.678V37.195C221.678 31.9664 217.522 27.8071 212.417 27.8071Z" fill="black"/>
<path d="M234.739 27.8071C229.633 27.8071 225.478 31.9664 225.478 37.0761V55.733C225.478 60.8429 229.633 65.0023 234.739 65.0023C239.844 65.0023 244 60.8429 244 55.733V37.0761C244 31.9664 239.844 27.8071 234.739 27.8071ZM230.583 36.8385C230.583 34.5806 232.364 32.6794 234.739 32.6794C236.995 32.6794 238.776 34.4619 238.776 36.8385V55.9709C238.776 58.2288 236.995 60.1299 234.739 60.1299C232.483 60.1299 230.583 58.3474 230.583 55.9709V36.8385Z" fill="black"/>
<path fill-rule="evenodd" clip-rule="evenodd" d="M35.8582 1.18795C60.7927 -4.63492 85.7268 10.8135 91.5449 35.7686C97.363 60.7239 81.9274 85.6789 56.993 91.5019C32.0588 97.4434 7.00572 81.995 1.18773 57.04C-4.63026 32.0847 10.924 7.01083 35.8582 1.18795Z" fill="#EE3942"/>
<path fill-rule="evenodd" clip-rule="evenodd" d="M49.3938 38.9766C50.3439 39.8085 51.8875 39.6896 52.7185 38.739C53.5497 37.7881 53.4309 36.2435 52.4811 35.4116C51.531 34.5796 49.9877 34.6986 49.1564 35.6491C48.3252 36.7186 48.444 38.1446 49.3938 38.9766Z" fill="white"/>
<path fill-rule="evenodd" clip-rule="evenodd" d="M39.776 63.3381C38.9451 65.2396 37.7576 66.9035 35.5016 69.1611C35.0268 69.6365 36.214 70.5871 36.689 71.419C36.8079 73.558 36.9264 78.549 37.7576 79.975H39.776C38.47 77.123 39.0636 74.0335 39.1824 70.825C39.0636 70.2306 38.8262 69.7555 38.47 69.28C39.3013 67.26 40.251 66.0715 40.7261 63.6946L39.776 63.3381Z" fill="white"/>
<path fill-rule="evenodd" clip-rule="evenodd" d="M55.0936 65.1204L52.7188 64.8826C52.9564 67.1405 53.9062 68.4476 54.856 69.7549C54.3812 72.3691 53.6688 75.4589 53.7874 79.3804H55.806C56.1622 75.9344 56.9932 71.6561 57.9433 69.2795C56.7558 68.21 55.5684 66.1899 55.0936 65.1204Z" fill="white"/>
<path d="M54.0249 50.8606V49.9097C54.0249 49.7911 53.9064 49.5532 53.6687 49.5532C53.5502 49.5532 53.3125 49.6722 53.3125 49.9097V50.8606C53.3125 50.9792 53.3125 50.9792 53.4313 51.0982C53.5502 51.0982 53.7875 51.0982 53.9064 51.0982C54.0249 50.9792 54.0249 50.9792 54.0249 50.8606Z" fill="white"/>
<path d="M50.6997 50.1475V49.1966C50.6997 49.078 50.5809 48.8401 50.3435 48.8401C50.2247 48.8401 49.9873 48.959 49.9873 49.1966V50.1475C50.1058 50.2661 50.2247 50.385 50.3435 50.385C50.5809 50.385 50.6997 50.2661 50.6997 50.1475Z" fill="white"/>
<path fill-rule="evenodd" clip-rule="evenodd" d="M55.093 46.1072C54.8553 46.1072 54.8553 46.1072 54.8553 46.1072C54.6179 46.8202 54.0241 47.2956 53.1931 47.2956L50.9371 47.4142C50.6997 47.4142 50.3435 47.4142 50.1058 47.2956C50.1058 47.5332 49.9873 47.7707 49.9873 47.8897C50.2247 48.3651 51.1744 48.8402 52.4807 49.0781C54.4991 49.3157 56.6363 48.8402 57.3487 48.1272C58.0611 47.1767 57.1113 46.3447 55.093 46.1072Z" fill="white"/>
<path fill-rule="evenodd" clip-rule="evenodd" d="M43.1016 48.6026C43.2204 48.6026 43.4578 48.7215 43.5766 48.7215L43.814 48.1274H43.2204C43.1016 48.2461 43.1016 48.365 43.1016 48.6026Z" fill="white"/>
<path fill-rule="evenodd" clip-rule="evenodd" d="M33.3648 26.8559C35.3832 27.4501 38.7078 25.5487 41.6763 25.7864C44.0509 25.9052 47.8503 26.8559 50.1063 28.0443L47.0193 36.7192C47.0193 37.4322 46.7816 38.2642 46.3069 38.8582L44.2882 44.4433H44.7633C44.8821 44.4433 45.0006 44.4433 45.1195 44.4433C45.1195 44.3247 45.2383 44.2057 45.2383 44.0868C45.5945 42.8987 46.0692 41.9478 46.5443 41.2348L48.2065 36.7192C48.2065 36.3627 48.4441 35.8873 48.563 35.5308L56.5179 13.4277C56.6368 13.19 56.5179 12.9523 56.2806 12.8335C56.1617 12.8335 55.9244 12.8335 55.8055 12.9523C55.8055 12.9523 55.8055 12.9523 55.8055 12.8335C54.8558 13.903 48.3253 13.19 42.6261 13.0712C38.3516 12.9523 33.8398 12.5958 30.7526 14.1407C28.7341 16.1608 25.2908 22.2214 23.5098 25.4299C27.3093 24.8357 30.6339 26.0241 33.3648 26.8559Z" fill="white"/>
<path fill-rule="evenodd" clip-rule="evenodd" d="M75.6341 45.1568C71.7158 43.2554 71.4785 40.8788 68.3912 38.3833C68.035 38.5022 67.7976 38.5022 67.5602 38.3833C68.1538 37.9079 68.9851 37.3138 70.291 38.6209C69.9348 36.9573 67.204 36.2443 65.3042 37.4327C64.7106 36.8384 64.7106 36.1254 64.7106 35.4124C63.9982 36.3632 63.7605 37.3138 63.7605 38.5022C62.8108 38.1457 61.6233 38.3833 60.6736 39.2152C59.2488 40.2847 59.4861 40.5223 57.824 41.1164C58.0613 41.3542 58.8926 41.2353 59.2488 40.9977C58.5364 42.0672 57.1115 42.4237 55.9241 42.0672C56.1618 42.7802 56.9927 42.8989 57.824 42.8989C57.1115 43.3743 56.518 44.0873 54.7367 43.7308C55.3305 44.2062 56.0429 44.6814 56.9927 44.6814C56.7553 45.0379 56.3991 45.2757 56.1618 45.5133C58.1802 46.1074 58.4175 47.1769 58.0613 48.1277V49.7913C58.0613 49.7913 58.299 49.9102 58.1802 50.1478C58.1802 50.6232 57.5866 51.0987 56.3991 51.4552C56.0429 51.5738 55.6867 51.5738 55.2117 51.5738C55.4494 51.9303 55.5679 52.2868 55.5679 52.6433L54.9743 59.5357C54.9743 60.1298 54.737 60.6052 54.4993 60.9617C54.2619 61.1993 53.7869 61.5558 53.0745 61.5558C53.0745 61.5558 53.0745 61.5558 52.9556 61.5558C52.2432 61.5558 51.0561 61.1993 51.0561 59.1792L51.2935 53.9507C50.5811 53.8317 49.3936 53.7128 48.4439 53.5942C48.325 53.5942 48.0877 53.5942 47.9688 53.4752V59.5357C47.9688 60.7242 47.2564 61.4372 46.0693 61.4372H45.9504H45.8316C44.763 61.1993 44.1694 60.6052 44.0506 59.2982V53.4752C43.6944 53.4752 43.3382 53.3563 42.982 53.3563C41.7949 53.2377 40.7262 53.1187 39.895 52.9998H39.7762C38.9452 52.8812 38.2328 52.4057 37.8763 51.6927C37.7578 51.4552 37.639 51.2173 37.5201 50.9797C37.1639 50.9797 36.9266 51.0987 36.6892 51.0987C36.0953 51.3362 35.5017 51.5738 34.9082 51.9303C32.6521 50.2667 29.4463 49.5537 26.9529 50.8608C23.8658 52.5247 24.8157 55.3767 21.1349 55.9707C23.1534 56.8027 25.5281 55.8518 26.5967 53.7128C26.1217 56.0897 20.8974 59.0603 18.9976 54.7823C18.2852 55.6142 18.8789 57.2778 19.8288 57.7532C18.2852 58.1097 17.6915 57.2778 17.0979 56.3272C16.8604 60.9617 20.185 63.5762 25.0531 61.0807C24.5782 62.0312 22.9159 63.1007 20.0662 62.9818C26.2405 64.7643 29.6838 59.2982 29.6838 56.9213C29.9213 57.8722 29.6838 58.7038 29.2089 59.7733C33.1272 57.7532 29.8025 53.2377 33.3645 52.9998C33.4834 52.9998 33.6019 52.9998 33.7207 52.9998C32.8895 54.0693 32.2959 55.3767 32.2959 56.9213C32.2959 58.1097 32.6521 59.1792 33.3645 60.1298C32.4148 62.8632 31.9397 65.8341 30.5149 67.8542C30.2775 69.3991 30.8711 70.9437 31.1086 72.6076C31.7024 76.0537 31.1086 77.7172 31.1086 79.7376H33.4834C33.8396 77.3607 33.9581 73.7957 33.7207 69.1612C35.8579 67.3787 37.7578 64.8832 38.9452 62.1502C45.7131 62.5067 47.7315 63.9327 55.8056 64.1702C56.518 65.9527 57.824 67.8542 59.2488 68.9237C60.1985 71.4192 59.9612 75.6972 60.1985 79.1432H62.3357C62.0984 74.9842 62.3357 72.0132 62.4546 68.6861C61.7422 65.9527 61.1486 63.8137 61.1486 61.9123C61.7422 61.1993 62.2172 60.2487 62.4546 59.0603C62.9296 53.5942 63.4043 47.4147 65.1854 45.5133C67.4414 45.2757 70.291 47.4147 74.3281 48.0088C74.8031 47.6523 74.9216 47.0582 74.8031 46.2263C75.2779 46.3452 75.5155 46.1074 75.6341 45.1568Z" fill="white"/>
<path fill-rule="evenodd" clip-rule="evenodd" d="M54.4999 51.8114C53.9063 51.8114 53.5501 51.8114 52.3627 51.6925C50.7005 51.4549 49.1569 50.9795 49.038 49.791C49.038 49.791 49.1569 47.771 49.3942 46.5825L49.1569 46.1074C49.1569 46.1074 48.6818 44.206 48.9192 43.8495C49.038 43.7305 49.038 43.6119 49.1569 43.6119L49.6319 45.513C49.7504 45.7509 49.8693 45.9885 50.1066 46.226C50.3443 46.4639 50.5817 46.5825 50.9379 46.5825L53.1939 46.4639C53.7875 46.4639 54.1437 46.1074 54.1437 45.513C54.1437 44.8 53.6687 44.6814 53.0751 44.6814H51.7691L51.1752 42.3045C51.1752 42.1859 51.0567 42.067 51.0567 42.067C50.9379 41.354 50.4628 40.522 49.5131 40.4034C48.4445 40.1655 47.7321 40.641 46.9008 41.5915C46.3073 42.1859 45.8322 43.374 45.476 44.8C45.5949 44.919 45.7134 44.919 45.8322 45.0379C46.1884 45.3944 46.4258 45.8695 46.3073 46.345C46.3073 46.8204 46.0696 47.2955 45.5949 47.5334C45.476 47.652 45.2387 47.771 45.001 47.8899C45.001 48.0085 45.001 48.1275 45.001 48.2464C45.001 48.484 45.001 48.7215 45.001 48.9594C45.476 49.078 45.9511 49.197 46.3073 49.3159C47.3759 49.6724 47.7321 50.3854 47.7321 50.8605C47.8506 51.0984 47.8506 51.336 47.8506 51.5739V52.6434C48.0883 52.6434 48.2068 52.762 48.4445 52.762C49.8693 52.9999 51.8877 53.2374 51.8877 53.2374L51.6503 59.0604C51.6503 60.1299 52.1253 60.7239 52.8377 60.7239C53.6687 60.7239 54.0249 60.1299 54.1437 59.2979L54.8561 52.4055C55.0935 52.1679 54.6187 51.8114 54.4999 51.8114Z" fill="white"/>
<path fill-rule="evenodd" clip-rule="evenodd" d="M47.2572 51.098C47.2572 50.7415 46.9009 50.385 46.3074 50.1474C44.8826 49.672 43.5766 49.3155 42.3892 49.0779C42.3892 48.7214 42.3892 48.3649 42.508 47.8895L41.2017 47.7709C40.2519 47.6519 39.6584 47.0579 39.7769 46.107C39.7769 45.7505 40.1331 45.394 40.4893 45.2751C40.3708 45.394 40.2519 45.6316 40.1331 45.8694C40.1331 46.4635 40.6082 46.9389 41.3206 47.0579L44.4075 47.2954C45.1199 47.2954 45.7138 46.9389 45.7138 46.3449C45.7138 45.7505 45.2388 45.2751 44.5264 45.1564H42.7454V44.9186C42.9827 43.968 43.2204 43.1361 43.5766 42.6609C44.1702 41.829 43.6951 40.1654 42.2703 39.8089C41.2017 39.5711 40.4893 40.0465 39.6584 40.9971C38.5898 42.3044 37.5209 46.82 37.9959 49.7909C38.1147 50.5039 38.2333 51.811 39.8957 52.1675H40.0146C41.0832 52.4054 42.7454 52.524 44.5264 52.6429C44.6452 52.6429 44.6452 52.6429 44.7637 52.6429L45.0014 59.0599C45.1199 60.1294 45.4761 60.367 46.1885 60.4859C46.9009 60.4859 47.376 60.0105 47.376 59.2975V51.4545C47.376 51.4545 47.376 51.3359 47.2572 51.098Z" fill="white"/>
<path fill-rule="evenodd" clip-rule="evenodd" d="M42.3889 38.5017C43.3387 39.3336 44.7635 39.2147 45.5947 38.2641C46.426 37.3135 46.3071 35.8875 45.3574 35.0556C44.4073 34.2237 42.9825 34.3426 42.1516 35.2932C41.3203 36.244 41.4392 37.7887 42.3889 38.5017Z" fill="white"/>
<path d="M55.687 49.7911C55.687 49.6725 55.5682 49.4346 55.3308 49.4346C55.212 49.4346 54.9746 49.5535 54.9746 49.7911V50.742C54.9746 50.8606 55.0934 51.0985 55.3308 51.0985C55.4497 51.0985 55.687 50.9795 55.687 50.742V49.7911Z" fill="white"/>
<path d="M57.23 49.3152C57.23 49.1966 57.1115 48.9587 56.8738 48.9587C56.7553 48.9587 56.5176 49.0777 56.5176 49.3152V50.2661C56.5176 50.3847 56.6364 50.6226 56.8738 50.6226C56.9926 50.6226 57.23 50.5037 57.23 50.2661V49.3152Z" fill="white"/>
<path d="M52.0066 49.4346C51.8878 49.4346 51.6504 49.5535 51.6504 49.7911V50.742C51.6504 50.8606 51.6504 50.8606 51.7692 50.8606C51.8878 50.8606 52.0066 50.8606 52.244 50.9795C52.3628 50.9795 52.3628 50.8606 52.3628 50.742V49.7911C52.3628 49.6725 52.1254 49.4346 52.0066 49.4346Z" fill="white"/>
</g>
</g>
<defs>
<clipPath id="clip0_804_464">
<rect width="244" height="93" fill="white"/>
</clipPath>
</defs>
</svg>
