<svg width="342" height="50" viewBox="0 0 342 50" fill="none" xmlns="http://www.w3.org/2000/svg">
<path d="M7.29496 43.2152L78.6494 49.0675L334.585 46.6054L324.727 22.1451L324.727 4.32014L83 8.32014L19.0663 4.32014L9.44257 3.00012L12.8007 7.70977L17.2774 7.42043L12.8242 12.8285L15.0707 14.4364L11.2451 11.6977L5.48846 15.215L7.29496 43.2152Z" fill="#EDCFFC"/>
<path d="M37.08 16.6001H41.24V38.0001H37.08V28.5601H26.52V38.0001H22.36V16.6001H26.52V24.7201H37.08V16.6001ZM54.3538 16.2001C59.6738 16.2001 62.5938 18.8001 62.5938 23.1201V38.0001H58.4738V35.2401C57.1138 37.3601 54.6338 38.4001 51.4738 38.4001C46.7938 38.4001 43.9538 36.1601 43.9538 32.4401C43.9538 29.1201 45.9938 27.2801 50.6738 25.9601L54.9138 24.8001C57.6338 24.0401 58.4338 23.7601 58.4338 22.4801C58.4338 21.1201 56.9538 19.8401 54.1538 19.8401C51.0338 19.8401 49.3138 21.4401 49.1538 24.4001H44.9538C45.1938 19.0801 48.5138 16.2001 54.3538 16.2001ZM51.9938 34.9201C55.8338 34.9201 58.5138 32.5201 58.5138 28.2801V26.8801C57.8338 27.4001 57.3938 27.6001 55.7138 28.0801L51.6738 29.2401C49.3138 29.8801 48.2338 30.7201 48.2338 32.2401C48.2338 33.9201 49.6338 34.9201 51.9938 34.9201ZM84.6781 38.4001C78.2381 38.4001 73.8381 33.8801 73.8381 27.2801C73.8381 20.7201 78.2381 16.2001 84.6781 16.2001C91.1181 16.2001 95.5181 20.7201 95.5181 27.2801C95.5181 33.8801 91.1181 38.4001 84.6781 38.4001ZM84.6781 34.6401C88.7581 34.6401 91.2781 31.8001 91.2781 27.2801C91.2781 22.8001 88.7581 19.9601 84.6781 19.9601C80.6381 19.9601 78.0781 22.8001 78.0781 27.2801C78.0781 31.8001 80.6381 34.6401 84.6781 34.6401ZM118.102 34.1601H121.462V43.6401H117.302V38.0001H100.502V43.6401H96.3416V34.1601H98.3016C98.3016 34.1601 100.942 33.0401 100.942 24.8401V16.6001H118.102V34.1601ZM113.902 34.1601V20.4401H105.062V24.8401C105.062 33.0401 103.102 34.1601 103.102 34.1601H113.902ZM138.939 16.6001H143.099V38.0001H138.939V28.5601H128.379V38.0001H124.219V16.6001H128.379V24.7201H138.939V16.6001ZM156.653 38.4001C150.213 38.4001 145.813 33.8801 145.813 27.2801C145.813 20.7201 150.213 16.2001 156.653 16.2001C163.093 16.2001 167.493 20.7201 167.493 27.2801C167.493 33.8801 163.093 38.4001 156.653 38.4001ZM156.653 34.6401C160.733 34.6401 163.253 31.8001 163.253 27.2801C163.253 22.8001 160.733 19.9601 156.653 19.9601C152.613 19.9601 150.053 22.8001 150.053 27.2801C150.053 31.8001 152.613 34.6401 156.653 34.6401ZM179.797 15.1201C175.917 15.1201 173.357 13.4401 173.117 9.72012H176.837C177.077 11.4001 178.117 12.0801 179.797 12.0801C181.357 12.0801 182.557 11.3601 182.757 9.72012H186.477C186.237 13.4001 183.557 15.1201 179.797 15.1201ZM185.317 16.6001H189.397V38.0001H185.317V22.8401L174.317 38.0001H170.237V16.6001H174.317V31.8001L185.317 16.6001ZM211.755 38.4001C205.315 38.4001 200.835 33.8801 200.835 27.2801C200.835 20.7201 205.315 16.2001 211.755 16.2001C217.275 16.2001 221.155 19.4801 221.675 24.6001H217.515C216.995 21.6801 214.995 19.9601 211.715 19.9601C207.755 19.9601 205.075 22.7201 205.075 27.2801C205.075 31.8801 207.755 34.6401 211.715 34.6401C215.475 34.6401 217.795 32.4001 218.075 28.7201H222.195C221.955 34.4801 217.835 38.4001 211.755 38.4001ZM243.265 34.1601H246.625V43.6401H242.465V38.0001H224.985V16.6001H229.145V34.1601H239.065V16.6001H243.265V34.1601ZM265.14 30.0001H269.3C268.62 35.1201 264.78 38.4001 259.02 38.4001C252.66 38.4001 248.18 33.8801 248.18 27.2801C248.18 20.7201 252.66 16.2001 259.06 16.2001C265.02 16.2001 268.98 20.0401 268.98 26.2001C268.98 27.0801 268.94 27.7201 268.94 27.7201H252.42C252.58 32.0001 255.14 34.6401 259.02 34.6401C262.5 34.6401 264.54 32.9601 265.14 30.0001ZM259.06 19.8801C255.98 19.8801 253.74 21.5601 252.82 24.4001H264.86C264.3 21.5601 262.26 19.8801 259.06 19.8801ZM286.933 16.6001H291.093V38.0001H286.933V28.5601H276.373V38.0001H272.213V16.6001H276.373V24.7201H286.933V16.6001ZM310.767 30.0001H314.927C314.247 35.1201 310.407 38.4001 304.647 38.4001C298.287 38.4001 293.807 33.8801 293.807 27.2801C293.807 20.7201 298.287 16.2001 304.687 16.2001C310.647 16.2001 314.607 20.0401 314.607 26.2001C314.607 27.0801 314.567 27.7201 314.567 27.7201H298.047C298.207 32.0001 300.767 34.6401 304.647 34.6401C308.127 34.6401 310.167 32.9601 310.767 30.0001ZM304.687 19.8801C301.607 19.8801 299.367 21.5601 298.447 24.4001H310.487C309.927 21.5601 307.887 19.8801 304.687 19.8801Z" fill="#131313"/>
<path d="M0 3.58874L3.58862 10.5001L5.38293 9.00486L3.58862 0.00012207L0 3.58874Z" fill="#EDCFFC"/>
<path d="M339.414 4.03151L333.514 5.01553L335.235 2.60629L337.447 1.32774L337.299 0.442815L340.102 0.884933L339.414 4.03151Z" fill="#EDCFFC"/>
<path d="M332.525 10.2374L331.148 7.43522L330.116 8.51695L330.755 12.3516L332.525 10.2374Z" fill="#EDCFFC"/>
</svg>
