<svg width="345" height="56" viewBox="0 0 345 56" fill="none" xmlns="http://www.w3.org/2000/svg">
<path d="M329.838 4.97314L263.8 0L11.5603 4.97314L15.7751 30.1855L15.7753 56L315.557 56L327.365 52.1333L323.498 46.7363L318.343 47.0679L323.471 40.8705L320.884 39.028L325.29 42.1664L331.918 38.1357L329.838 4.97314Z" fill="#8654CC"/>
<path d="M69.28 42.0253L66.4 34.8253H53.56L50.68 42.0253H46.16L57.4 14.0253H62.6L73.88 42.0253H69.28ZM55.16 30.7853H64.8L59.96 18.7453L55.16 30.7853ZM90.6869 30.5453C92.8869 31.4653 94.0069 33.1853 94.0069 35.7053C94.0069 39.7053 91.2469 42.0253 86.2469 42.0253H75.6069V20.6253H86.5669C90.8469 20.6253 93.2069 22.5453 93.2069 26.1853C93.2069 28.1853 92.3269 29.6653 90.6869 30.5453ZM79.7669 24.2253V28.9853H86.0869C88.1669 28.9853 89.2469 28.2653 89.2469 26.5853C89.2469 24.9453 88.2469 24.2253 86.3269 24.2253H79.7669ZM86.0869 38.3453C88.6869 38.3453 90.0069 37.3853 90.0069 35.4253C90.0069 33.4253 88.7669 32.4253 86.3669 32.4253H79.7669V38.3453H86.0869ZM102.756 42.0253V24.4653H95.5163V20.6253H114.156V24.4653H106.916V42.0253H102.756ZM126.303 42.4253C119.863 42.4253 115.463 37.9053 115.463 31.3053C115.463 24.7453 119.863 20.2253 126.303 20.2253C132.743 20.2253 137.143 24.7453 137.143 31.3053C137.143 37.9053 132.743 42.4253 126.303 42.4253ZM126.303 38.6653C130.383 38.6653 132.903 35.8253 132.903 31.3053C132.903 26.8253 130.383 23.9853 126.303 23.9853C122.263 23.9853 119.703 26.8253 119.703 31.3053C119.703 35.8253 122.263 38.6653 126.303 38.6653ZM151.207 20.2253C157.447 20.2253 161.247 24.5453 161.247 31.3053C161.247 38.1053 157.447 42.4253 151.207 42.4253C148.207 42.4253 145.727 41.3453 144.047 39.3053V48.8253H139.887V20.6253H144.047V23.3053C145.727 21.3053 148.167 20.2253 151.207 20.2253ZM150.527 38.6653C154.687 38.7053 157.007 35.9453 157.007 31.3053C157.007 26.7053 154.687 23.9453 150.527 23.9853C146.487 24.0253 143.927 26.8253 143.927 31.3053C143.927 35.8253 146.487 38.6253 150.527 38.6653ZM179.049 20.6253H183.129V42.0253H179.049V26.8653L168.049 42.0253H163.969V20.6253H168.049V35.8253L179.049 20.6253ZM202.397 30.4253C204.677 31.2653 206.037 33.0653 206.037 35.4253C206.037 39.6653 202.197 42.4253 196.277 42.4253C189.517 42.4253 186.037 39.2253 185.917 32.9453H190.037C190.357 37.1053 192.157 38.7453 196.317 38.7453C199.837 38.7453 201.957 37.4253 201.957 35.3853C201.957 33.4253 200.477 32.4653 197.517 32.4653H194.157V28.7853H197.557C199.997 28.7853 201.157 27.9453 201.157 26.5453C201.157 24.7853 199.477 23.8653 196.357 23.8653C192.757 23.8653 191.117 25.2253 190.717 28.5453H186.637C186.957 23.0653 190.317 20.2253 196.477 20.2253C201.917 20.2253 205.197 22.4253 205.197 26.3053C205.197 28.2253 204.157 29.6653 202.397 30.4253ZM218.171 20.2253C223.491 20.2253 226.411 22.8253 226.411 27.1453V42.0253H222.291V39.2653C220.931 41.3853 218.451 42.4253 215.291 42.4253C210.611 42.4253 207.771 40.1853 207.771 36.4653C207.771 33.1453 209.811 31.3053 214.491 29.9853L218.731 28.8253C221.451 28.0653 222.251 27.7853 222.251 26.5053C222.251 25.1453 220.771 23.8653 217.971 23.8653C214.851 23.8653 213.131 25.4653 212.971 28.4253H208.771C209.011 23.1053 212.331 20.2253 218.171 20.2253ZM215.811 38.9453C219.651 38.9453 222.331 36.5453 222.331 32.3053V30.9053C221.651 31.4253 221.211 31.6253 219.531 32.1053L215.491 33.2653C213.131 33.9053 212.051 34.7453 212.051 36.2653C212.051 37.9453 213.451 38.9453 215.811 38.9453ZM248.404 38.1853H251.764V47.6653H247.604V42.0253H230.124V20.6253H234.284V38.1853H244.204V20.6253H248.404V38.1853ZM269.599 20.6253H273.679V42.0253H269.599V26.8653L258.599 42.0253H254.519V20.6253H258.599V35.8253L269.599 20.6253ZM295.347 20.6253V42.0253H291.187V34.0653H286.747L280.907 42.0253H276.107L282.147 33.7853C278.707 32.9853 276.787 30.7053 276.787 27.2653C276.787 22.9453 279.507 20.6253 284.627 20.6253H295.347ZM291.187 30.3453V24.3453H284.787C282.147 24.3453 280.827 25.3853 280.827 27.3453C280.827 29.3453 282.227 30.3453 285.107 30.3453H291.187Z" fill="white"/>
<path d="M0 3.80346L3.33333 11.0308L5 9.46718L3.33333 0.0507812L0 3.80346Z" fill="#8654CC"/>
<path d="M342.496 41.0814L336.191 42.1295L338.014 39.4703L340.372 38.0686L340.207 37.0862L343.209 37.597L342.496 41.0814Z" fill="#8654CC"/>
<path d="M335.171 47.9131L333.677 44.7955L332.581 45.9876L333.293 50.2448L335.171 47.9131Z" fill="#8654CC"/>
</svg>
