<svg width="55" height="82" viewBox="0 0 55 82" fill="none" xmlns="http://www.w3.org/2000/svg">
<path d="M46.4875 7.04829L3.14355 0L2.86453 4.02198L46.4875 7.04829Z" fill="#C3F598"/>
<path fill-rule="evenodd" clip-rule="evenodd" d="M40.0604 78.289L54.8988 77.0976L49.3889 8.47037L0 5.59094L6.05594 81.0191L29.8591 79.108L34.6315 76.547L40.0604 78.289ZM5.57455 42.5336C5.57455 59.4708 13.5935 69.5882 27.1583 69.5882C40.723 69.5882 48.742 59.5458 48.742 42.5336C48.742 25.5964 40.723 15.6289 27.1583 15.6289C13.5935 15.6289 5.57455 25.6713 5.57455 42.5336ZM37.4255 42.5336C37.4255 53.4753 33.9032 59.246 27.1583 59.246C20.4133 59.246 16.891 53.5503 16.891 42.5336C16.891 31.6668 20.4133 25.9711 27.1583 25.9711C33.8282 25.9711 37.4255 31.7417 37.4255 42.5336Z" fill="#C3F598"/>
</svg>
