<svg width="550" height="391" viewBox="0 0 550 391" fill="none" xmlns="http://www.w3.org/2000/svg">
<path d="M59.7217 2.72527L448.007 24.5354L431.212 192.748L548.522 227.087L548.521 346.514L403.171 389.149L2.60505 389.489L59.7217 2.72527Z" fill="#EDCFFC"/>
<path d="M113.496 101V78.6H129.24V81.96H117.08V101H113.496ZM141.137 94.6H144.465C143.921 98.696 140.849 101.32 136.241 101.32C131.153 101.32 127.569 97.704 127.569 92.424C127.569 87.176 131.153 83.56 136.273 83.56C141.041 83.56 144.209 86.632 144.209 91.56C144.209 92.264 144.177 92.776 144.177 92.776H130.961C131.089 96.2 133.137 98.312 136.241 98.312C139.025 98.312 140.657 96.968 141.137 94.6ZM136.273 86.504C133.809 86.504 132.017 87.848 131.281 90.12H140.913C140.465 87.848 138.833 86.504 136.273 86.504ZM158.572 83.88H161.9V101H158.572V93.448H150.124V101H146.796V83.88H150.124V90.376H158.572V83.88ZM177.639 94.6H180.967C180.423 98.696 177.351 101.32 172.743 101.32C167.655 101.32 164.071 97.704 164.071 92.424C164.071 87.176 167.655 83.56 172.775 83.56C177.543 83.56 180.711 86.632 180.711 91.56C180.711 92.264 180.679 92.776 180.679 92.776H167.463C167.591 96.2 169.639 98.312 172.743 98.312C175.527 98.312 177.159 96.968 177.639 94.6ZM172.775 86.504C170.311 86.504 168.519 87.848 167.783 90.12H177.415C176.967 87.848 175.335 86.504 172.775 86.504ZM192.353 83.56C197.345 83.56 200.385 87.016 200.385 92.424C200.385 97.864 197.345 101.32 192.353 101.32C189.953 101.32 187.969 100.456 186.625 98.824V106.44H183.297V83.88H186.625V86.024C187.969 84.424 189.921 83.56 192.353 83.56ZM191.809 98.312C195.137 98.344 196.993 96.136 196.993 92.424C196.993 88.744 195.137 86.536 191.809 86.568C188.577 86.6 186.529 88.84 186.529 92.424C186.529 96.04 188.577 98.28 191.809 98.312ZM209.923 83.56C214.179 83.56 216.515 85.64 216.515 89.096V101H213.219V98.792C212.131 100.488 210.147 101.32 207.619 101.32C203.875 101.32 201.603 99.528 201.603 96.552C201.603 93.896 203.235 92.424 206.979 91.368L210.371 90.44C212.547 89.832 213.187 89.608 213.187 88.584C213.187 87.496 212.003 86.472 209.763 86.472C207.267 86.472 205.891 87.752 205.763 90.12H202.403C202.595 85.864 205.251 83.56 209.923 83.56ZM208.035 98.536C211.107 98.536 213.251 96.616 213.251 93.224V92.104C212.707 92.52 212.355 92.68 211.011 93.064L207.779 93.992C205.891 94.504 205.027 95.176 205.027 96.392C205.027 97.736 206.147 98.536 208.035 98.536ZM235.326 83.88V101H231.966V86.952H224.926V90.312C224.926 98.248 223.806 101.128 219.102 101.128H217.95V97.96H218.622C220.926 97.96 221.598 96.616 221.598 90.312V83.88H235.326ZM246.822 89.736C251.046 89.736 253.318 91.688 253.318 95.304C253.318 98.92 250.854 101 246.534 101H238.47V83.88H241.798V89.736H246.822ZM246.406 97.96C248.87 97.96 250.054 97.128 250.054 95.368C250.054 93.64 248.934 92.744 246.662 92.744H241.798V97.96H246.406ZM267.294 83.88H270.622V101H267.294V93.448H258.846V101H255.518V83.88H258.846V90.376H267.294V83.88ZM281.465 89.736C285.689 89.736 287.961 91.688 287.961 95.304C287.961 98.92 285.497 101 281.177 101H273.753V83.88H277.081V89.736H281.465ZM290.201 83.88H293.561V101H290.201V83.88ZM281.049 97.96C283.513 97.96 284.697 97.128 284.697 95.368C284.697 93.64 283.577 92.744 281.305 92.744H277.081V97.96H281.049ZM304.355 82.696C301.251 82.696 299.203 81.352 299.011 78.376H301.987C302.179 79.72 303.011 80.264 304.355 80.264C305.603 80.264 306.563 79.688 306.723 78.376H309.699C309.507 81.32 307.363 82.696 304.355 82.696ZM308.771 83.88H312.035V101H308.771V88.872L299.971 101H296.707V83.88H299.971V96.04L308.771 83.88ZM127.832 113.88V131H124.504V116.952H116.216V131H112.888V113.88H127.832ZM138.327 113.56C142.583 113.56 144.919 115.64 144.919 119.096V131H141.623V128.792C140.535 130.488 138.551 131.32 136.023 131.32C132.279 131.32 130.007 129.528 130.007 126.552C130.007 123.896 131.639 122.424 135.383 121.368L138.775 120.44C140.951 119.832 141.591 119.608 141.591 118.584C141.591 117.496 140.407 116.472 138.167 116.472C135.671 116.472 134.295 117.752 134.167 120.12H130.807C130.999 115.864 133.655 113.56 138.327 113.56ZM136.439 128.536C139.511 128.536 141.655 126.616 141.655 123.224V122.104C141.111 122.52 140.759 122.68 139.415 123.064L136.183 123.992C134.295 124.504 133.431 125.176 133.431 126.392C133.431 127.736 134.551 128.536 136.439 128.536ZM156.945 113.56C161.937 113.56 164.977 117.016 164.977 122.424C164.977 127.864 161.937 131.32 156.945 131.32C154.545 131.32 152.561 130.456 151.217 128.824V136.44H147.889V113.88H151.217V116.024C152.561 114.424 154.513 113.56 156.945 113.56ZM156.401 128.312C159.729 128.344 161.585 126.136 161.585 122.424C161.585 118.744 159.729 116.536 156.401 116.568C153.169 116.6 151.121 118.84 151.121 122.424C151.121 126.04 153.169 128.28 156.401 128.312ZM171.515 131V116.952H165.723V113.88H180.635V116.952H174.843V131H171.515ZM194.417 113.88H197.745V131H194.417V123.448H185.969V131H182.641V113.88H185.969V120.376H194.417V113.88ZM213.484 124.6H216.812C216.268 128.696 213.196 131.32 208.588 131.32C203.5 131.32 199.916 127.704 199.916 122.424C199.916 117.176 203.5 113.56 208.62 113.56C213.388 113.56 216.556 116.632 216.556 121.56C216.556 122.264 216.524 122.776 216.524 122.776H203.308C203.436 126.2 205.484 128.312 208.588 128.312C211.372 128.312 213.004 126.968 213.484 124.6ZM208.62 116.504C206.156 116.504 204.364 117.848 203.628 120.12H213.26C212.812 117.848 211.18 116.504 208.62 116.504ZM228.198 113.56C233.19 113.56 236.23 117.016 236.23 122.424C236.23 127.864 233.19 131.32 228.198 131.32C225.798 131.32 223.814 130.456 222.47 128.824V136.44H219.142V113.88H222.47V116.024C223.814 114.424 225.766 113.56 228.198 113.56ZM227.654 128.312C230.982 128.344 232.838 126.136 232.838 122.424C232.838 118.744 230.982 116.536 227.654 116.568C224.422 116.6 222.374 118.84 222.374 122.424C222.374 126.04 224.422 128.28 227.654 128.312Z" fill="#131313"/>
</svg>
