<svg width="238" height="55" viewBox="0 0 238 55" fill="none" xmlns="http://www.w3.org/2000/svg">
<path d="M223.996 7.6179L140.786 3L6.9901 7.6179L10.8966 31.0293L10.8967 54.9999L210.759 54.9999L221.704 51.4094L218.12 46.3979L213.342 46.7058L218.095 40.9511L215.697 39.2402L219.78 42.1544L225.924 38.4117L223.996 7.6179Z" fill="#C3F598"/>
<path d="M37.68 20.2C43.92 20.2 47.72 24.52 47.72 31.28C47.72 38.08 43.92 42.4 37.68 42.4C34.68 42.4 32.2 41.32 30.52 39.28V48.8H26.36V20.6H30.52V23.28C32.2 21.28 34.64 20.2 37.68 20.2ZM37 38.64C41.16 38.68 43.48 35.92 43.48 31.28C43.48 26.68 41.16 23.92 37 23.96C32.96 24 30.4 26.8 30.4 31.28C30.4 35.8 32.96 38.6 37 38.64ZM60.0828 42.4C53.6428 42.4 49.2428 37.88 49.2428 31.28C49.2428 24.72 53.6428 20.2 60.0828 20.2C66.5228 20.2 70.9228 24.72 70.9228 31.28C70.9228 37.88 66.5228 42.4 60.0828 42.4ZM60.0828 38.64C64.1628 38.64 66.6828 35.8 66.6828 31.28C66.6828 26.8 64.1628 23.96 60.0828 23.96C56.0428 23.96 53.4828 26.8 53.4828 31.28C53.4828 35.8 56.0428 38.64 60.0828 38.64ZM87.6663 42L81.0663 32.12L77.8263 35.4V42H73.6663V20.6H77.8263V30L87.1063 20.6H92.3463L84.0263 29.04L92.5863 42H87.6663ZM94.7497 31.56V27.56H107.35V31.56H94.7497ZM122.838 21.32C128.718 21.32 132.798 25.64 132.798 31.8C132.798 38.16 128.398 42.44 121.958 42.44C114.838 42.44 110.958 38.04 110.958 29.72C110.958 18.68 113.998 15.48 122.998 14.48L127.118 14C129.038 13.8 130.038 13.44 130.358 13.36L130.918 17.24C130.598 17.36 129.558 17.56 127.598 17.8L123.318 18.28C117.878 18.84 115.678 20 114.958 24.96C116.518 22.64 119.278 21.32 122.838 21.32ZM121.958 38.68C126.038 38.68 128.558 36.04 128.558 31.8C128.558 27.6 126.038 24.92 121.958 24.92C117.878 24.92 115.318 27.6 115.318 31.8C115.318 36.04 117.878 38.68 121.958 38.68ZM145.044 20.2C151.604 20.2 156.164 24.72 156.164 31.28C156.164 37.88 151.604 42.4 145.044 42.4C138.844 42.4 134.684 38.52 134.404 32.76H138.524C138.804 36.44 141.204 38.68 145.084 38.68C148.764 38.68 151.364 36.44 151.884 32.64H142.844V29H151.724C150.924 25.8 148.444 23.92 145.084 23.92C141.684 23.92 139.604 25.64 139.044 28.56H134.924C135.484 23.44 139.404 20.2 145.044 20.2ZM173.585 20.6H177.745V42H173.585V32.56H163.025V42H158.865V20.6H163.025V28.72H173.585V20.6ZM201.498 38.16H204.858V47.64H200.698V42H183.898V47.64H179.738V38.16H181.698C181.698 38.16 184.338 37.04 184.338 28.84V20.6H201.498V38.16ZM197.298 38.16V24.44H188.458V28.84C188.458 37.04 186.498 38.16 186.498 38.16H197.298Z" fill="#131313"/>
<path d="M0 3.41773L3.33333 10L5 8.57594L3.33333 0L0 3.41773Z" fill="#C3F598"/>
<path d="M235.342 36.1478L229.498 37.1209L231.188 34.6517L233.373 33.3502L233.221 32.4379L236.003 32.9122L235.342 36.1478Z" fill="#C3F598"/>
<path d="M228.553 42.4914L227.168 39.5965L226.152 40.7034L226.813 44.6566L228.553 42.4914Z" fill="#C3F598"/>
</svg>
