<svg width="349" height="50" viewBox="0 0 349 50" fill="none" xmlns="http://www.w3.org/2000/svg">
<path d="M5.05983 46.9997L154.595 49.5L336.095 49.5L333.087 28.9705L333.087 4.99986L188.095 9L20.2246 4.99986L9.28004 8.59038L12.8642 13.6019L17.6422 13.294L12.8893 19.0486L15.287 20.7596L11.2039 17.8454L5.05983 21.5881L5.05983 46.9997Z" fill="#C3F598"/>
<path d="M34.08 41.4C27.64 41.4 23.16 36.88 23.16 30.28C23.16 23.72 27.64 19.2 34.08 19.2C39.6 19.2 43.48 22.48 44 27.6H39.84C39.32 24.68 37.32 22.96 34.04 22.96C30.08 22.96 27.4 25.72 27.4 30.28C27.4 34.88 30.08 37.64 34.04 37.64C37.8 37.64 40.12 35.4 40.4 31.72H44.52C44.28 37.48 40.16 41.4 34.08 41.4ZM56.51 19.2C61.83 19.2 64.75 21.8 64.75 26.12V41H60.63V38.24C59.27 40.36 56.79 41.4 53.63 41.4C48.95 41.4 46.11 39.16 46.11 35.44C46.11 32.12 48.15 30.28 52.83 28.96L57.07 27.8C59.79 27.04 60.59 26.76 60.59 25.48C60.59 24.12 59.11 22.84 56.31 22.84C53.19 22.84 51.47 24.44 51.31 27.4H47.11C47.35 22.08 50.67 19.2 56.51 19.2ZM54.15 37.92C57.99 37.92 60.67 35.52 60.67 31.28V29.88C59.99 30.4 59.55 30.6 57.87 31.08L53.83 32.24C51.47 32.88 50.39 33.72 50.39 35.24C50.39 36.92 51.79 37.92 54.15 37.92ZM95.9831 41H91.8631L88.9431 25.16L83.4631 41H80.0231L74.5431 25.28L71.6231 41H67.5831L71.6231 19.6H76.5431L81.8231 34.72L87.0631 19.6H91.9831L95.9831 41ZM108.67 26.92C113.95 26.92 116.79 29.36 116.79 33.88C116.79 38.4 113.71 41 108.31 41H99.0303V19.6H103.19V26.92H108.67ZM119.59 19.6H123.79V41H119.59V19.6ZM108.15 37.2C111.23 37.2 112.71 36.16 112.71 33.96C112.71 31.8 111.31 30.68 108.47 30.68H103.19V37.2H108.15ZM137.283 18.12C133.403 18.12 130.843 16.44 130.603 12.72H134.323C134.563 14.4 135.603 15.08 137.283 15.08C138.843 15.08 140.043 14.36 140.243 12.72H143.963C143.723 16.4 141.043 18.12 137.283 18.12ZM142.803 19.6H146.883V41H142.803V25.84L131.803 41H127.723V19.6H131.803V34.8L142.803 19.6ZM174.441 19.6V23.44H163.681V41H159.521V19.6H174.441ZM188.283 19.2C194.523 19.2 198.323 23.52 198.323 30.28C198.323 37.08 194.523 41.4 188.283 41.4C185.283 41.4 182.803 40.32 181.123 38.28V47.8H176.963V19.6H181.123V22.28C182.803 20.28 185.243 19.2 188.283 19.2ZM187.603 37.64C191.763 37.68 194.083 34.92 194.083 30.28C194.083 25.68 191.763 22.92 187.603 22.96C183.563 23 181.003 25.8 181.003 30.28C181.003 34.8 183.563 37.6 187.603 37.64ZM210.686 41.4C204.246 41.4 199.846 36.88 199.846 30.28C199.846 23.72 204.246 19.2 210.686 19.2C217.126 19.2 221.526 23.72 221.526 30.28C221.526 36.88 217.126 41.4 210.686 41.4ZM210.686 37.64C214.766 37.64 217.286 34.8 217.286 30.28C217.286 25.8 214.766 22.96 210.686 22.96C206.646 22.96 204.086 25.8 204.086 30.28C204.086 34.8 206.646 37.64 210.686 37.64ZM251.399 41H247.279L244.359 25.16L238.879 41H235.439L229.959 25.28L227.039 41H222.999L227.039 19.6H231.959L237.239 34.72L242.479 19.6H247.399L251.399 41ZM268.446 41L261.846 31.12L258.606 34.4V41H254.446V19.6H258.606V29L267.886 19.6H273.126L264.806 28.04L273.366 41H268.446ZM290.249 19.6H294.329V41H290.249V25.84L279.249 41H275.169V19.6H279.249V34.8L290.249 19.6ZM307.797 18.12C303.917 18.12 301.357 16.44 301.117 12.72H304.837C305.077 14.4 306.117 15.08 307.797 15.08C309.357 15.08 310.557 14.36 310.757 12.72H314.477C314.237 16.4 311.557 18.12 307.797 18.12ZM313.317 19.6H317.397V41H313.317V25.84L302.317 41H298.237V19.6H302.317V34.8L313.317 19.6Z" fill="#131313"/>
<path d="M0 6.41773L3.33333 13L5 11.5759L3.33333 3L0 6.41773Z" fill="#C3F598"/>
<path d="M346.342 4.14776L340.498 5.12094L342.188 2.65171L344.373 1.35017L344.221 0.437904L347.003 0.912237L346.342 4.14776Z" fill="#C3F598"/>
<path d="M339.553 10.4914L338.168 7.59653L337.152 8.70343L337.813 12.6566L339.553 10.4914Z" fill="#C3F598"/>
</svg>
