<svg width="52" height="78" viewBox="0 0 52 78" fill="none" xmlns="http://www.w3.org/2000/svg">
<path d="M2.76953 0L17.6456 0.544861L22.8348 2.90726L27.873 0.919453L51.7367 1.7935L48.967 77.4137L0.249548 68.802L2.76953 0Z" fill="#6933B0"/>
<path d="M43.7209 76.6007L0.169922 70.9712L0.0223553 75.0001L43.7209 76.6007Z" fill="#6933B0"/>
<path d="M24.688 62.9237C11.1323 62.4272 3.48905 52.0231 4.10898 35.0972C4.72618 18.2463 13.1073 8.50408 26.663 9.00058C40.2187 9.49708 47.8674 19.7514 47.2475 36.6773C46.6248 53.678 38.2436 63.4202 24.688 62.9237ZM25.0665 52.5884C31.8069 52.8353 35.5381 47.1975 35.9386 36.263C36.3336 25.4784 32.9499 19.58 26.2844 19.3358C19.5441 19.089 15.8156 24.6519 15.4179 35.5114C15.0146 46.5207 18.3261 52.3416 25.0665 52.5884Z" fill="white"/>
</svg>
