<svg width="345" height="56" viewBox="0 0 345 56" fill="none" xmlns="http://www.w3.org/2000/svg">
<path d="M329.841 4.97313L263.891 0L11.9893 4.97313L16.1984 30.1854L16.1985 55.9999L315.579 55.9999L327.371 52.1332L323.51 46.7362L318.362 47.0678L323.482 40.8704L320.899 39.0279L325.298 42.1663L331.918 38.1357L329.841 4.97313Z" fill="#8654CC"/>
<path d="M64.88 14C70.8 14 73.96 16.72 73.96 21.8C73.96 26.84 70.6 29.6 64.6 29.6H55.6V42H51.12V14H64.88ZM64.4 25.52C67.84 25.52 69.52 24.28 69.52 21.8C69.52 19.32 67.92 18.08 64.68 18.08H55.6V25.52H64.4ZM91.6481 34H95.8081C95.1281 39.12 91.2881 42.4 85.5281 42.4C79.1681 42.4 74.6881 37.88 74.6881 31.28C74.6881 24.72 79.1681 20.2 85.5681 20.2C91.5281 20.2 95.4881 24.04 95.4881 30.2C95.4881 31.08 95.4481 31.72 95.4481 31.72H78.9281C79.0881 36 81.6481 38.64 85.5281 38.64C89.0081 38.64 91.0481 36.96 91.6481 34ZM85.5681 23.88C82.4881 23.88 80.2481 25.56 79.3281 28.4H91.3681C90.8081 25.56 88.7681 23.88 85.5681 23.88ZM113.641 20.6V24.44H102.881V42H98.7209V20.6H113.641ZM131.243 20.6H135.323V42H131.243V26.84L120.243 42H116.163V20.6H120.243V35.8L131.243 20.6ZM148.95 42.4C142.51 42.4 138.03 37.88 138.03 31.28C138.03 24.72 142.51 20.2 148.95 20.2C154.47 20.2 158.35 23.48 158.87 28.6H154.71C154.19 25.68 152.19 23.96 148.91 23.96C144.95 23.96 142.27 26.72 142.27 31.28C142.27 35.88 144.95 38.64 148.91 38.64C152.67 38.64 154.99 36.4 155.27 32.72H159.39C159.15 38.48 155.03 42.4 148.95 42.4ZM167.63 42V24.44H160.39V20.6H179.03V24.44H171.79V42H167.63ZM192.857 20.2C199.097 20.2 202.897 24.52 202.897 31.28C202.897 38.08 199.097 42.4 192.857 42.4C189.857 42.4 187.377 41.32 185.697 39.28V48.8H181.537V20.6H185.697V23.28C187.377 21.28 189.817 20.2 192.857 20.2ZM192.177 38.64C196.337 38.68 198.657 35.92 198.657 31.28C198.657 26.68 196.337 23.92 192.177 23.96C188.137 24 185.577 26.8 185.577 31.28C185.577 35.8 188.137 38.6 192.177 38.64ZM214.819 20.2C220.139 20.2 223.059 22.8 223.059 27.12V42H218.939V39.24C217.579 41.36 215.099 42.4 211.939 42.4C207.259 42.4 204.419 40.16 204.419 36.44C204.419 33.12 206.459 31.28 211.139 29.96L215.379 28.8C218.099 28.04 218.899 27.76 218.899 26.48C218.899 25.12 217.419 23.84 214.619 23.84C211.499 23.84 209.779 25.44 209.619 28.4H205.419C205.659 23.08 208.979 20.2 214.819 20.2ZM212.459 38.92C216.299 38.92 218.979 36.52 218.979 32.28V30.88C218.299 31.4 217.859 31.6 216.179 32.08L212.139 33.24C209.779 33.88 208.699 34.72 208.699 36.24C208.699 37.92 210.099 38.92 212.459 38.92ZM245.053 38.16H248.413V47.64H244.253V42H226.773V20.6H230.933V38.16H240.853V20.6H245.053V38.16ZM266.248 20.6H270.328V42H266.248V26.84L255.248 42H251.168V20.6H255.248V35.8L266.248 20.6ZM291.995 20.6V42H287.835V34.04H283.395L277.555 42H272.755L278.795 33.76C275.355 32.96 273.435 30.68 273.435 27.24C273.435 22.92 276.155 20.6 281.275 20.6H291.995ZM287.835 30.32V24.32H281.435C278.795 24.32 277.475 25.36 277.475 27.32C277.475 29.32 278.875 30.32 281.755 30.32H287.835Z" fill="white"/>
<path d="M0 3.75951L3.33333 11L5 9.43354L3.33333 0L0 3.75951Z" fill="#8654CC"/>
<path d="M342.466 40.6889L336.09 41.7487L337.933 39.0557L340.317 37.6367L340.15 36.6415L343.186 37.1598L342.466 40.6889Z" fill="#8654CC"/>
<path d="M335.061 47.6065L333.549 44.4483L332.441 45.6554L333.162 49.9678L335.061 47.6065Z" fill="#8654CC"/>
</svg>
