<svg width="324" height="224" viewBox="0 0 324 224" fill="none" xmlns="http://www.w3.org/2000/svg">
<rect x="17" width="308" height="198" rx="10" transform="rotate(4.8585 17 0)" fill="#C3F598"/>
<g clip-path="url(#clip0_383_10)">
<path fill-rule="evenodd" clip-rule="evenodd" d="M124.013 72.754C124.316 72.2579 124.756 71.7735 124.989 71.6889C125.24 71.5885 125.571 71.5818 125.771 71.6685C126.539 72.0294 126.652 72.3348 131.642 88.5369C139.284 113.349 139.919 115.265 141.203 117.305C141.524 117.819 142.071 118.526 142.409 118.833C143.051 119.445 144.387 120.063 145.197 120.132C145.696 120.174 146.179 120.615 146.147 120.995C146.135 121.133 145.944 121.343 145.725 121.464C145.36 121.676 144.289 121.62 137.467 121.04C129.629 120.374 128.482 120.189 128.32 119.653C128.215 119.245 128.455 118.882 128.874 118.848C131.112 118.639 131.36 118.59 131.682 118.269C131.855 118.075 132.014 117.828 132.025 117.707C132.06 117.293 128.284 104.36 128.089 104.204C127.828 104.008 114.34 102.861 114.049 103.01C113.776 103.161 109.593 111.747 108.942 113.483C108.356 115.068 108.311 115.812 108.777 116.444C109.101 116.924 109.27 116.973 110.658 117.178C111.496 117.318 112.28 117.489 112.395 117.569C112.703 117.821 112.555 118.539 112.176 118.716C111.943 118.8 109.25 118.641 104.581 118.244L97.329 117.627L97.1056 117.191C96.6551 116.37 96.9856 116.154 98.7605 116.096C99.9608 116.059 101.382 115.467 102.157 114.715C102.517 114.363 103.126 113.528 103.51 112.882C103.896 112.219 108.556 103.135 113.852 92.6778C119.148 82.2211 123.728 73.2517 124.013 72.754ZM127.188 100.509L125.028 92.654C123.852 88.3268 122.836 84.7613 122.805 84.7239C122.726 84.6302 122.433 85.2141 118.468 93.4878C116.966 96.6652 115.717 99.3076 115.71 99.394C115.704 99.463 118.282 99.7518 121.452 100.021L127.188 100.509ZM47.4746 66.4549C47.5699 66.1499 47.7976 65.717 48.0076 65.4913C48.5601 64.9121 49.292 65.0787 49.8619 65.9273C50.0924 66.2774 53.4362 74.7029 57.2926 84.6506C61.1317 94.5968 64.308 102.747 64.3223 102.783C64.3381 102.802 65.6905 100.568 67.3124 97.8186C81.4384 73.9178 84.3337 69.0497 84.6616 68.6601C84.9308 68.3525 85.2182 68.2377 85.5629 68.267C86.1485 68.3168 86.4837 68.6585 86.6604 69.4389C86.7373 69.7586 87.3543 79.0307 88.0484 90.0489C88.7425 101.067 89.3751 110.567 89.4646 111.148C89.6897 112.785 90.0155 113.648 90.6058 114.255C91.1633 114.842 92.9994 115.694 93.8434 115.765C94.7047 115.839 95.231 116.179 95.1253 116.605C94.9544 117.391 94.6415 117.399 86.2006 116.681C79.3786 116.101 78.2273 115.968 78.057 115.728C77.7793 115.321 78.082 114.616 78.5547 114.57L78.6387 114.559C81.0098 114.274 81.0454 114.27 81.2355 113.649C81.377 113.209 81.2403 109.51 80.722 99.6894C80.3413 92.3335 79.9957 85.9895 79.9605 85.5864C79.9015 84.8508 79.8816 84.8839 75.3472 92.5003C64.9576 110.004 62.4401 114.104 61.9672 114.36C60.9669 114.901 60.7994 114.626 58.1551 108.382C55.7265 102.661 53.3602 96.6149 50.5474 89.087C49.3218 85.7472 48.2703 83.0136 48.2186 83.0092C48.1152 83.0005 42.9883 106.362 42.6515 108.282C42.2884 110.512 42.8271 111.114 45.7981 111.68C46.6349 111.838 47.3826 112.024 47.4816 112.084C47.7582 112.299 47.5917 113.033 47.231 113.194C46.9983 113.278 44.3223 113.12 39.7227 112.729C32.7115 112.133 32.5564 112.12 32.2255 111.727C32.0522 111.52 31.9536 111.251 31.9969 111.15C32.1498 110.781 32.9298 110.586 33.8944 110.668C35.6688 110.819 36.6149 110.099 37.2849 108.138C37.4913 107.547 39.8252 98.056 42.4965 87.0456C45.1505 76.0337 47.3965 66.7614 47.4746 66.4549ZM242.874 82.4951C243.036 82.2305 243.302 81.9574 243.464 81.8842C243.989 81.6331 244.241 81.7242 244.758 82.377C245.071 82.7863 247.819 89.6476 252.285 101.195C256.154 111.196 259.362 119.384 259.412 119.406C259.464 119.41 264.018 111.761 269.534 102.401C276.972 89.8128 279.714 85.3144 280.079 85.1019C280.483 84.8405 280.641 84.8192 280.971 85.0212C281.203 85.1453 281.487 85.4825 281.601 85.7706C281.73 86.0947 282.343 94.601 283.125 106.827C283.83 118.125 284.497 127.836 284.603 128.419C284.859 129.902 285.395 130.939 286.119 131.401C286.96 131.925 288.508 132.491 289.232 132.553C289.852 132.605 290.421 133.054 290.269 133.406C290.03 133.977 289.424 133.961 281.246 133.213C273.876 132.552 273.154 132.473 273.022 132.183C272.767 131.709 273.397 131.241 274.355 131.201C275.942 131.11 276.307 130.897 276.389 129.93C276.478 129.085 275.079 102.072 274.956 101.888C274.893 101.813 271.099 108.066 266.504 115.782C261.91 123.497 257.911 130.115 257.621 130.474C257.175 131.027 257.011 131.118 256.511 131.075C255.736 131.009 255.617 130.773 253.049 124.658C250.522 118.667 248.48 113.501 245.571 105.669C244.327 102.345 243.29 99.6478 243.252 99.6793C243.084 99.8216 237.826 124.32 237.73 125.442C237.629 126.634 237.663 126.846 237.994 127.239C238.451 127.783 239.274 128.096 240.951 128.378C242.814 128.71 243.297 129.151 242.367 129.681C242.019 129.895 240.983 129.842 234.712 129.309C227.167 128.667 227.048 128.639 227.108 127.931C227.145 127.499 227.589 127.381 229.028 127.381C229.756 127.391 230.512 127.282 230.749 127.145C231.348 126.831 231.9 126.06 232.301 125.016C232.48 124.544 234.861 114.9 237.595 103.565C240.346 92.2305 242.714 82.7425 242.874 82.4951ZM150.606 76.0937C150.465 75.7164 150.508 75.6157 150.876 75.3687C151.282 75.09 151.731 75.1108 159.879 75.8036C168.941 76.5741 169.522 76.6757 169.462 77.3838C169.416 77.9192 169.067 78.1504 168.36 78.0904C167.551 78.0215 166.527 78.2302 166.242 78.5191C165.901 78.8554 166.146 79.6417 167.286 81.9479C168.989 85.3978 174.091 94.7729 174.25 94.7343C174.569 94.657 183.141 84.0439 184.042 82.6246C184.885 81.2871 185.034 80.3431 184.448 79.8931C184.238 79.7187 183.511 79.483 182.827 79.3726C181.714 79.191 181.133 78.8807 181.166 78.5007C181.172 78.4317 181.293 78.2332 181.446 78.0549C181.714 77.7646 182.026 77.7737 188.593 78.2799C195.918 78.8679 196.259 78.9317 196.295 79.735C196.324 80.2071 195.949 80.3318 194.222 80.4459C192.563 80.5658 191.754 80.8971 190.712 81.9391C190.047 82.6132 177.009 97.8043 176.458 98.5577C176.379 98.6728 178.233 102.17 181.005 107.12C188.629 120.711 189.072 121.427 190.198 122.462C191.148 123.326 192.516 123.981 193.918 124.222C194.534 124.327 195.178 124.503 195.343 124.604C195.721 124.845 195.641 125.586 195.209 125.776C194.976 125.86 191.749 125.656 185.926 125.16C178.122 124.497 176.954 124.363 176.63 124.092C176.226 123.744 176.198 123.255 176.603 122.976C176.751 122.867 177.436 122.769 178.114 122.757C179.628 122.711 179.994 122.482 179.805 121.648C179.607 120.709 171.463 105.265 171.171 105.24C170.998 105.226 161.191 117.717 160.566 118.742C159.535 120.464 159.805 121.165 161.58 121.507C163.168 121.816 163.674 122.399 162.78 122.914C162.432 123.128 161.447 123.079 155.607 122.582C149.698 122.08 148.822 121.971 148.619 121.71C148.082 121.09 148.521 120.623 149.746 120.501C151.093 120.372 152.501 119.727 153.699 118.698C154.561 117.953 165.095 105.889 168.597 101.629L169.044 101.076L163.409 90.8204C157.279 79.6531 156.785 78.9327 154.781 77.8056C154.169 77.4578 153.109 77.0719 152.242 76.859C150.949 76.5577 150.731 76.4696 150.606 76.0937ZM203.932 80.7322C203.604 80.3042 203.849 79.8727 204.501 79.7542C204.73 79.7042 208.731 79.9922 213.367 80.3689C222.137 81.0972 222.582 81.1698 222.661 81.8724C222.72 82.3993 222.181 82.6144 220.794 82.6009C218.14 82.6013 217.609 83.1302 217.116 86.2717C216.67 89.0693 214.332 116.564 214.211 120.433C214.1 123.781 214.192 124.537 214.731 125.14C215.238 125.704 215.945 125.956 217.966 126.267C218.91 126.399 219.847 126.601 220.065 126.689C220.531 126.92 220.501 127.474 219.972 127.777C219.607 127.989 218.381 127.92 210.147 127.22C201.31 126.468 200.708 126.4 200.371 126.076C200.115 125.828 200.045 125.63 200.154 125.361C200.326 124.976 200.556 124.926 202.603 124.926C204.723 124.897 205.079 124.371 205.722 120.285C206.207 117.23 208.795 86.7993 208.735 84.8459C208.667 82.3873 208.065 81.7099 205.583 81.3075C204.538 81.1491 204.134 81.0103 203.932 80.7322ZM133.356 145.62C134.024 146.004 134.783 146.232 135.631 146.304C136.447 146.373 137.211 146.28 137.923 146.024C138.645 145.769 139.28 145.392 139.826 144.893C140.385 144.384 140.835 143.795 141.176 143.126C141.519 142.446 141.723 141.727 141.787 140.969C141.85 140.232 141.774 139.506 141.561 138.79C141.348 138.073 141.021 137.413 140.58 136.808C140.138 136.203 139.584 135.703 138.916 135.308C138.259 134.914 137.512 134.681 136.675 134.61C135.848 134.54 135.073 134.638 134.349 134.903C133.637 135.159 133.002 135.542 132.444 136.051C131.898 136.55 131.448 137.139 131.094 137.818C130.752 138.487 130.549 139.206 130.484 139.975C130.421 140.712 130.496 141.443 130.708 142.171C130.921 142.887 131.248 143.548 131.689 144.152C132.143 144.747 132.698 145.236 133.356 145.62ZM132.873 141.635C132.76 141.156 132.725 140.667 132.768 140.169C132.808 139.693 132.918 139.233 133.099 138.79C133.289 138.348 133.542 137.955 133.856 137.611C134.17 137.266 134.543 137.004 134.975 136.822C135.418 136.631 135.917 136.559 136.472 136.606C136.994 136.65 137.453 136.798 137.848 137.05C138.254 137.292 138.583 137.609 138.835 138.001C139.098 138.384 139.286 138.814 139.399 139.293C139.523 139.762 139.564 140.245 139.522 140.744C139.482 141.209 139.367 141.669 139.175 142.121C138.995 142.564 138.747 142.963 138.432 143.318C138.118 143.663 137.739 143.93 137.296 144.122C136.853 144.302 136.36 144.37 135.816 144.323C135.283 144.278 134.813 144.134 134.407 143.893C134.012 143.641 133.683 143.324 133.419 142.941C133.168 142.549 132.986 142.113 132.873 141.635ZM44.2829 130.829L43.6391 138.4L45.8906 138.592L46.8714 127.056L44.4731 126.852L40.4563 133.122L37.5882 126.267L35.1736 126.062L34.1928 137.597L36.4443 137.789L37.088 130.217L39.578 136.108L40.8342 136.215L44.2829 130.829ZM63.1412 128.44L60.8571 128.245L55.6017 139.418L57.9184 139.615L59.2234 136.829L63.2695 137.173L64.1017 140.14L66.4184 140.337L63.1412 128.44ZM61.8016 130.666L62.9957 135.562L59.7327 135.285L61.8016 130.666ZM78.2956 129.728L80.8051 134.229L84.0221 130.215L86.4693 130.423L81.9585 135.931L85.358 141.948L82.9107 141.74L80.5343 137.414L77.4453 141.275L74.9817 141.065L79.3482 135.709L75.832 129.519L78.2956 129.728ZM96.0543 131.238L95.0735 142.774L97.3246 142.965L98.3054 131.43L96.0543 131.238ZM117.606 144.69L118.25 137.118L114.801 142.504L113.545 142.397L111.055 136.507L110.412 144.078L108.16 143.886L109.141 132.351L111.556 132.556L114.424 139.411L118.44 133.142L120.839 133.345L119.858 144.881L117.606 144.69ZM154.326 140.349L153.696 147.758L151.445 147.567L152.426 136.031L154.22 136.184L159.561 144.297L160.206 136.709L162.458 136.901L161.478 148.42L159.602 148.26L154.326 140.349ZM175.539 137.996L173.288 137.805L172.307 149.341L180.464 150.034L180.631 148.068L174.725 147.566L175.539 137.996ZM191.234 139.331L193.485 139.522L192.504 151.058L190.253 150.867L191.234 139.331ZM205.591 152.171L206.221 144.762L211.497 152.673L213.373 152.832L214.352 141.313L212.101 141.122L211.456 148.709L206.115 140.596L204.32 140.444L203.339 151.979L205.591 152.171ZM232.412 152.471L232.245 154.437L224.201 153.753L225.182 142.217L233.079 142.889L232.911 144.855L227.266 144.375L227.03 147.153L231.908 147.568L231.754 149.388L226.876 148.973L226.62 151.979L232.412 152.471ZM242.356 152.94L242.157 155.28L243.952 155.432L244.151 153.093L242.356 152.94ZM255.482 144.794L260.605 145.229C261.138 145.275 261.618 145.425 262.046 145.679C262.484 145.935 262.851 146.26 263.146 146.656C263.452 147.053 263.672 147.487 263.807 147.956C263.954 148.427 264.007 148.901 263.966 149.377C263.925 149.865 263.797 150.328 263.585 150.769C263.384 151.199 263.111 151.568 262.767 151.877C262.423 152.186 262.032 152.415 261.592 152.563L263.866 157.126L261.386 156.915L259.333 152.845L257.081 152.654L256.753 156.521L254.501 156.329L255.482 144.794ZM257.249 150.688L260.071 150.928C260.354 150.952 260.611 150.892 260.842 150.748C261.074 150.593 261.268 150.381 261.422 150.11C261.577 149.84 261.669 149.531 261.698 149.184C261.73 148.816 261.681 148.49 261.551 148.206C261.423 147.912 261.246 147.673 261.021 147.49C260.806 147.308 260.563 147.206 260.291 147.183L257.566 146.951L257.249 150.688ZM276.299 157.806C276.925 158.165 277.701 158.384 278.626 158.462C279.518 158.538 280.297 158.457 280.963 158.219C281.631 157.971 282.188 157.603 282.635 157.118C283.093 156.622 283.444 156.036 283.688 155.358C283.943 154.682 284.104 153.948 284.171 153.157L284.671 147.276L282.436 147.086L281.936 152.967C281.896 153.433 281.808 153.889 281.672 154.336C281.536 154.771 281.344 155.159 281.096 155.498C280.859 155.838 280.546 156.1 280.158 156.285C279.782 156.461 279.322 156.525 278.778 156.479C278.245 156.434 277.808 156.293 277.466 156.056C277.125 155.82 276.861 155.514 276.673 155.138C276.486 154.762 276.363 154.348 276.303 153.896C276.254 153.433 276.25 152.964 276.291 152.487L276.791 146.606L274.539 146.414L274.039 152.296C273.976 153.043 274.007 153.771 274.133 154.48C274.26 155.178 274.496 155.815 274.842 156.39C275.198 156.965 275.684 157.438 276.299 157.806Z" fill="black"/>
</g>
<defs>
<clipPath id="clip0_383_10">
<rect width="259.251" height="73.7167" fill="white" transform="translate(36 64) rotate(4.86)"/>
</clipPath>
</defs>
</svg>
