<svg width="1400" height="1777" viewBox="0 0 1400 1777" fill="none" xmlns="http://www.w3.org/2000/svg">
<path fill-rule="evenodd" clip-rule="evenodd" d="M1444.45 24.1572C1439.17 21.2515 1421.48 23.2578 1426.1 24.3648C1426.03 26.0871 1422.65 26.2214 1417.67 26.4193C1413.64 26.5791 1408.57 26.7804 1403.36 27.8932C1397.49 30.3989 1391.46 28.1606 1386.54 26.3383C1381.69 24.5379 1377.93 23.1437 1376.51 27.1322C1372.87 29.4816 1369.26 26.9502 1365.67 24.4342C1361.55 21.5418 1357.46 18.6698 1353.38 23.2578C1347.04 27.626 1340.67 24.4498 1334.21 21.2266C1332.89 20.57 1331.57 19.9115 1330.25 19.3143C1325.58 19.4314 1320.83 17.2204 1316.06 14.996C1306.71 10.6453 1297.25 6.24293 1288.13 19.1068C1284.38 21.0577 1280.96 20.9762 1277.55 20.8947C1273.71 20.8028 1269.86 20.7111 1265.55 23.5346C1261.41 24.518 1257.2 21.4743 1253 18.4299C1247.73 14.6208 1242.46 10.8106 1237.33 14.8865C1234.3 6.57842 1232.55 10.7266 1230.2 16.2555L1230.2 16.257C1229.15 18.7388 1227.98 21.4985 1226.53 23.5346C1225.56 23.8307 1224.57 25.4391 1223.57 27.0595C1221.3 30.7401 1218.99 34.4828 1216.82 23.0503C1212.06 33.469 1208.07 32.5406 1203.18 31.4057L1202.84 31.327L1202.65 31.2832C1200.1 29.0766 1197.37 30.4473 1194.63 31.8285C1191.43 33.4354 1188.21 35.0566 1185.2 31.0757C1181.48 35.8641 1177.37 34.009 1173.52 32.2678C1172.3 31.7197 1171.11 31.1828 1169.97 30.8681C1169.56 31.4759 1169.13 31.7417 1168.72 31.9871C1168.12 32.3562 1167.58 32.6792 1167.35 34.0506C1163.84 29.4851 1160.31 33.6817 1156.81 37.8476C1153.78 41.4465 1150.78 45.0226 1147.82 42.9062L1147.05 43.0123C1136.81 44.4336 1126.43 45.8747 1116.19 42.837C1110.75 39.0986 1105.26 40.4893 1099.78 41.8765C1095.53 42.9539 1091.28 44.0293 1087.07 42.6986C1082.44 36.8116 1078.05 40.8419 1073.66 44.873C1070.52 47.7584 1067.37 50.6442 1064.14 49.8938C1063.78 50.0871 1063.42 50.2806 1063.08 50.471C1057.93 53.2808 1054.01 55.4232 1050.09 46.1579C1048.22 39.1124 1046.55 38.9665 1044.78 38.8112C1043.11 38.6646 1041.34 38.5096 1039.21 32.5285C1036.4 31.1964 1033.8 28.3776 1031.21 25.5684C1026.53 20.4993 1021.88 15.4614 1016.11 19.2451C1015.71 18.7784 1015.3 18.3134 1014.9 17.8513C1004.22 5.57575 995.389 -4.57466 984.412 11.4273C981.121 11.2819 978.241 17.0203 975.39 22.6988C972.817 27.8245 970.269 32.9014 967.465 33.5578C960.381 26.2934 956.976 23.2493 950.283 26.5702C938.189 18.3372 927.817 12.1107 915.293 14.0478C914.955 13.5457 914.619 13.0443 914.286 12.5461C907.591 2.54252 901.754 -6.17935 894.745 5.81488C893.149 3.61193 890.284 4.71986 887.868 5.65431C886.49 6.1872 885.258 6.66367 884.49 6.43754C884.008 8.42461 883.683 10.0809 883.417 11.4324L883.417 11.4338C882.84 14.3636 882.546 15.8611 881.555 16.1925C876.975 23.3185 861.007 19.1675 856.075 16.9536C852.123 12.9283 848.573 12.1828 844.876 11.4064C843.044 11.0218 841.177 10.6297 839.206 9.82757C836.36 7.01173 833.465 8.95608 830.566 10.9032C827.125 13.2139 823.679 15.5286 820.302 9.89676C816.911 3.8525 810.884 6.23562 806.045 8.14888C804.292 8.84168 802.696 9.47288 801.437 9.62002C799.291 8.3849 797.668 11.9498 796.051 15.5008C793.865 20.304 791.69 25.082 788.247 17.9221C785.524 16.5986 782.801 16.9724 780.086 17.3451C778.118 17.6154 776.153 17.885 774.196 17.507C771.639 18.2092 769.156 20.1503 766.698 22.072C761.408 26.209 756.232 30.2559 750.673 21.6581C749.932 22.0786 749.19 22.5181 748.449 22.9575C741.996 26.7834 735.568 30.5944 729.108 21.6581C725.788 28.5385 723.097 26.9663 720.519 25.4599C718.69 24.3912 716.918 23.3555 715.018 25.3941C713.842 26.2095 712.796 29.5552 711.767 32.8493C710.089 38.2192 708.454 43.4519 706.368 37.3629C702.336 44.7657 697.405 45.6651 693.334 42.1367C692.933 42.7282 692.54 41.6203 692.135 40.4764C691.356 38.2756 690.529 35.9415 689.499 45.3191C687.219 44.5598 684.102 44.8361 681.514 45.0654C681.037 45.1077 680.577 45.1485 680.145 45.1808C674.998 48.2019 669.852 46.4755 664.706 44.7491C659.128 42.8778 653.55 41.0065 647.972 45.1808C641.553 45.5959 634.939 45.7342 628.52 45.25C624.449 37.3629 622.101 34.4572 618.344 39.1617C615.995 35.6333 612.825 30.3146 610.633 18.5533C610.1 17.7907 609.649 17.2901 609.238 16.8353L609.238 16.8348C608.235 15.7219 607.478 14.8829 606.367 11.1506C601.944 14.679 596.7 11.5657 591.338 7.41462C588.05 10.3895 585.428 11.6349 582.257 8.24483C582.201 9.85571 581.849 9.8061 581.426 9.74643C580.977 9.68309 580.447 9.60841 580.105 11.4965C575.114 16.9374 568.298 14.7554 562.2 12.8032C560.312 12.1987 558.492 11.6161 556.817 11.2889C549.503 8.65955 542.049 9.61104 534.641 10.5565C530.355 11.1036 526.084 11.6487 521.866 11.4965C517.482 13.5028 513.647 11.7041 509.302 7.20707C508.695 6.6202 508.082 5.89812 507.466 5.1722C504.67 1.87599 501.806 -1.49943 499.048 7.34544C495.918 14.7212 492.684 11.9241 489.481 9.15453C487.156 7.14409 484.848 5.14819 482.609 7.0687C478.192 5.65266 474.404 8.16412 470.43 10.7982C467.609 12.6684 464.695 14.6005 461.396 15.2325C457.571 14.4454 454.917 16.9699 452.343 19.4193C449.94 21.7066 447.605 23.9284 444.449 23.327C437.404 20.6288 430.241 18.3457 423.196 19.1068C417.09 12.3267 410.906 12.6726 404.801 19.1068C400.278 22.9658 395.756 21.6998 391.234 20.4338C388.946 19.7933 386.658 19.1527 384.37 19.176C383.011 18.2149 381.678 17.0903 380.36 15.9791C375.04 11.4908 369.977 7.22006 364.487 14.8173C362.491 9.76689 360.495 10.6663 358.577 15.8551C358.246 18.3108 357.866 18.5704 357.422 18.8734C357.078 19.1081 356.695 19.369 356.268 20.698C352.902 18.6225 350.515 20.0062 346.601 23.0503C342.312 19.9258 338.839 21.8828 335.117 23.98C333.811 24.7155 332.475 25.4683 331.062 26.0252C324.119 31.0239 316.334 29.4373 308.797 27.9011C305.798 27.2899 302.838 26.6867 299.986 26.5095C298.122 26.7253 296.777 26.7347 295.77 26.7417C294.622 26.7497 293.912 26.7546 293.369 27.0584C292.487 27.5516 292.046 28.8328 290.89 32.1939C290.377 33.6822 289.725 35.5782 288.831 37.9941C287.329 43.1961 286.801 42.4685 286.136 41.5542C285.538 40.7296 284.828 39.7532 283.195 42.837C280.63 40.5876 277.804 41.5629 274.976 42.5391C272.324 43.4543 269.67 44.3703 267.226 42.6295C261.473 46.1186 255.735 44.9233 249.993 43.7274C246.399 42.9788 242.804 42.2299 239.203 42.6295C233.635 46.6303 228.138 42.4594 222.687 38.323C217.486 34.3768 212.327 30.4619 207.187 33.7047C203.572 32.0024 200.02 28.6454 196.481 25.3001C191.246 20.3518 186.037 15.429 180.69 15.9243C177.815 14.1894 176.354 18.1424 175.121 21.4778C173.6 25.591 172.426 28.7651 169.379 19.176C169.379 30.7484 165.18 27.0137 160.378 22.7423C156.482 19.2763 152.188 15.457 149.418 19.176C144.907 19.6151 140.117 25.0468 135.301 30.5066C130.256 36.2277 125.183 41.9797 120.376 42.0505C117.639 42.1238 114.622 42.7166 111.493 43.3312C102.814 45.0365 93.282 46.9092 86.521 38.3145C82.2995 37.9539 78.0528 37.1706 73.7632 36.3794C67.3547 35.1974 60.8506 33.9977 54.192 34.1635C49.2556 40.1243 44.256 38.481 39.1657 36.8078C34.4487 35.2574 29.6538 33.6813 24.7594 38.107C22.85 34.888 20.7968 37.1606 18.737 39.4406C16.2368 42.2079 13.7268 44.9861 11.4521 37.9686C8.65332 43.9404 6.95468 48.5373 5.76028 51.7699L5.7601 51.7703C5.45193 52.6043 5.17734 53.3475 4.92606 54H-2V66.316C-2.92871 66.738 -3.78741 66.1853 -4.64536 65.6331C-6.15021 64.6646 -7.65268 63.6977 -9.52649 67.9946C-13.6752 80.517 -16.6107 78.1647 -20.6812 69.3783C-23.46 80.2402 -25.5344 78.4414 -28.2741 73.6677C-30.068 61.9542 -32.1805 66.7547 -34.2863 71.5402C-36.086 75.6299 -37.8809 79.7087 -39.468 73.4602C-44.4729 79.4476 -49.4942 77.4414 -54.5108 75.4372C-57.2617 74.3381 -60.0112 73.2396 -62.7557 73.4602C-66.1613 72.0289 -71.8852 72.6468 -76.9564 73.1941C-80.2196 73.5464 -83.2125 73.8694 -85.1433 73.5985C-86.5414 76.9036 -87.2508 81.4133 -87.7645 84.6788L-87.7646 84.6792C-88.4443 89.0009 -88.7813 91.1432 -89.9183 85.4291C-90.7904 82.6785 -91.655 85.8969 -92.6166 89.4763C-93.856 94.0898 -95.2565 99.3028 -97.0417 93.1085C-98.578 95.0645 -100.101 97.67 -101.612 100.254C-106.567 108.728 -111.384 116.966 -116.063 101.272C-118.71 103.497 -121.575 103.441 -124.579 103.381C-128.86 103.297 -133.42 103.207 -138.02 109.713C-145.848 97.3979 -153.754 100.442 -160.643 107.015C-165.093 109.506 -168.717 103.518 -172.348 97.5199C-176.382 90.8571 -180.423 84.1808 -185.614 89.0958C-191.563 86.096 -197.688 87.6845 -203.803 89.2707C-209.958 90.8671 -216.103 92.4612 -222.052 89.3726C-230.624 71.4538 -239.743 73.1142 -248.236 80.4478C-251.176 84.9508 -253.161 80.9271 -255.466 76.2555L-255.466 76.2554C-255.924 75.3287 -256.394 74.3764 -256.886 73.4602C-261.387 60.5919 -265.497 60.9378 -270.859 65.4348C-274.13 66.2258 -277.517 65.1348 -280.929 64.0359C-286.17 62.3476 -291.469 60.6408 -296.495 65.7115C-299.574 63.8554 -302.097 63.7089 -304.476 63.5708C-308.657 63.328 -312.39 63.1113 -317.904 53.6735C-319.443 56.5981 -321.682 54.9759 -323.891 53.3754C-326.176 51.72 -328.428 50.0877 -329.841 53.5351C-331.682 52.6389 -332.963 55.0549 -334.296 57.5668C-335.741 60.2907 -337.245 63.1273 -339.587 61.9756C-345.575 64.6046 -352.933 65.0889 -359 61.6988C-359 63.4685 -358.109 75.8832 -357.127 89.5699L-357.127 89.57C-355.921 106.382 -354.577 125.113 -354.577 128.393C-351.397 132.851 -349.311 134.322 -346.101 136.587C-344.728 137.555 -343.149 138.669 -341.192 140.223C-340.549 140.12 -339.907 140.004 -339.265 139.889L-339.264 139.888C-335.61 139.23 -331.977 138.575 -328.315 140.223C-326.75 140.206 -324.991 140.327 -323.151 140.453C-317.489 140.84 -311.05 141.281 -307.062 137.94C-305.494 131.267 -304.648 131.233 -303.371 131.183C-302.768 131.159 -302.069 131.131 -301.152 130.399C-298.212 117.043 -295.57 121.372 -292.549 126.324C-292.112 127.041 -291.666 127.771 -291.211 128.462C-288.975 129.305 -287.085 130.349 -285.324 131.322L-285.323 131.322C-282.46 132.904 -279.934 134.3 -276.808 134.342C-275.376 135.531 -274.249 137.566 -273.208 139.446C-270.977 143.477 -269.139 146.797 -265.536 139.531C-264.031 150.68 -265.014 153.588 -265.465 154.922C-265.565 155.218 -265.639 155.437 -265.653 155.651C-263.212 154.519 -260.634 156.148 -258.005 157.808C-254.691 159.901 -251.298 162.044 -248.001 158.764C-245.231 158.054 -242.701 159.585 -240.109 161.154C-237.903 162.49 -235.651 163.852 -233.168 163.884C-221.5 176.501 -209.382 169.759 -197.92 163.383C-196.309 162.487 -194.71 161.598 -193.128 160.771C-185.74 146.467 -177.304 151.15 -169.192 155.653C-165.572 157.663 -162.016 159.637 -158.647 159.871C-157.038 159.901 -155.478 159.995 -153.953 160.087C-144.936 160.629 -137.128 161.098 -127.688 147.903C-121.872 139.67 -115.113 142.569 -108.672 145.333C-104.449 147.144 -100.363 148.898 -96.7677 147.418C-95.408 143.765 -94.7536 145.619 -94.2524 147.039C-93.6715 148.685 -93.2961 149.749 -92.2667 140.984C-90.7332 133.639 -88.9184 135.384 -87.1285 137.104C-86.0859 138.107 -85.0518 139.101 -84.0865 138.286C-81.7426 130.788 -79.3986 132.919 -77.0546 135.049C-76.9328 135.16 -76.811 135.271 -76.6893 135.38C-73.9714 150.235 -69.6852 140.255 -67.0847 134.199C-66.8391 133.627 -66.6085 133.09 -66.3957 132.613C-65.0455 131.075 -64.0656 128.381 -63.159 125.887C-61.3325 120.864 -59.8031 116.659 -56.1412 124.38C-51.1314 135.103 -46.0433 135.103 -41.0335 124.657C-38.4448 125.721 -37.0908 123.147 -35.8689 120.825C-34.7076 118.618 -33.6657 116.638 -31.7967 118.222C-28.7197 111.569 -23.3397 109.309 -18.8243 107.411C-17.4238 106.823 -16.1065 106.27 -14.9668 105.631C-14.0154 105.702 -13.0934 105.885 -12.1894 106.064C-8.74011 106.75 -5.55368 107.383 -2 101.51V1643H6.26785C6.08865 1643.53 5.91989 1644.04 5.76013 1644.52C4.13177 1649.42 3.44046 1651.5 2.17612 1650.79C-0.672913 1662.77 -2.66119 1661.34 -4.64536 1659.93C-6.15021 1658.85 -7.65268 1657.78 -9.52649 1662.55C-13.6752 1676.46 -16.6107 1673.85 -20.6812 1664.09C-23.46 1676.16 -25.5344 1674.16 -28.2741 1668.85C-30.068 1655.84 -32.1805 1661.17 -34.2863 1666.49C-36.086 1671.03 -37.8809 1675.57 -39.468 1668.62C-44.4729 1675.28 -49.4942 1673.05 -54.5107 1670.82C-57.2617 1669.6 -60.0112 1668.38 -62.7557 1668.62C-66.1612 1667.03 -71.8851 1667.72 -76.9562 1668.33C-80.2195 1668.72 -83.2124 1669.08 -85.1433 1668.78C-86.5415 1672.45 -87.2509 1677.46 -87.7646 1681.09C-88.4443 1685.89 -88.7813 1688.27 -89.9183 1681.92C-90.7904 1678.86 -91.655 1682.44 -92.6166 1686.42C-93.856 1691.54 -95.2565 1697.34 -97.0417 1690.45C-98.578 1692.63 -100.101 1695.52 -101.612 1698.39C-106.567 1707.81 -111.384 1716.96 -116.063 1699.52C-118.71 1702 -121.575 1701.93 -124.579 1701.87C-128.86 1701.77 -133.42 1701.67 -138.02 1708.9C-145.848 1695.22 -153.754 1698.6 -160.643 1705.91C-165.093 1708.67 -168.717 1702.02 -172.348 1695.36C-176.382 1687.95 -180.423 1680.53 -185.614 1686C-191.563 1682.66 -197.688 1684.43 -203.803 1686.19C-209.958 1687.96 -216.103 1689.73 -222.052 1686.3C-230.624 1666.39 -239.743 1668.24 -248.236 1676.39C-251.176 1681.39 -253.161 1676.92 -255.466 1671.73C-255.924 1670.7 -256.394 1669.64 -256.886 1668.62C-261.387 1654.32 -265.497 1654.71 -270.859 1659.71C-274.13 1660.58 -277.517 1659.37 -280.929 1658.15C-286.17 1656.28 -291.469 1654.38 -296.495 1660.01C-299.574 1657.95 -302.097 1657.79 -304.476 1657.63C-308.657 1657.36 -312.39 1657.12 -317.904 1646.64C-319.443 1649.89 -321.682 1648.08 -323.891 1646.31C-326.176 1644.47 -328.428 1642.65 -329.841 1646.48C-331.682 1645.49 -332.963 1648.17 -334.296 1650.96C-335.741 1653.99 -337.245 1657.14 -339.587 1655.86C-345.575 1658.78 -352.933 1659.32 -359 1655.55C-359 1657.52 -358.109 1671.31 -357.127 1686.52C-355.921 1705.2 -354.577 1726.01 -354.577 1729.66C-351.397 1734.61 -349.311 1736.25 -346.101 1738.76C-344.728 1739.84 -343.149 1741.08 -341.192 1742.8C-340.548 1742.69 -339.905 1742.56 -339.263 1742.43C-335.61 1741.7 -331.977 1740.97 -328.315 1742.8C-326.75 1742.78 -324.992 1742.92 -323.152 1743.06H-323.151C-317.49 1743.49 -311.05 1743.98 -307.062 1740.27C-305.494 1732.85 -304.648 1732.81 -303.371 1732.76C-302.768 1732.73 -302.069 1732.7 -301.152 1731.89C-298.212 1717.05 -295.57 1721.86 -292.549 1727.36L-292.548 1727.36C-292.111 1728.16 -291.666 1728.97 -291.211 1729.74C-288.975 1730.67 -287.085 1731.83 -285.324 1732.91C-282.46 1734.67 -279.934 1736.22 -276.808 1736.27C-275.376 1737.59 -274.249 1739.85 -273.208 1741.94C-270.977 1746.42 -269.139 1750.11 -265.536 1742.03C-264.031 1754.42 -265.014 1757.65 -265.465 1759.14C-265.565 1759.46 -265.639 1759.71 -265.653 1759.95C-263.212 1758.69 -260.634 1760.5 -258.006 1762.34C-254.691 1764.67 -251.298 1767.05 -248.001 1763.4C-245.231 1762.62 -242.701 1764.32 -240.109 1766.06C-237.903 1767.54 -235.651 1769.06 -233.168 1769.09C-221.5 1783.11 -209.382 1775.62 -197.92 1768.54L-197.913 1768.53C-196.304 1767.54 -194.708 1766.55 -193.128 1765.63C-185.74 1749.74 -177.304 1754.94 -169.192 1759.95C-165.572 1762.18 -162.016 1764.37 -158.647 1764.63C-157.038 1764.67 -155.478 1764.77 -153.953 1764.87C-144.936 1765.48 -137.128 1766 -127.688 1751.34C-121.872 1742.19 -115.113 1745.41 -108.672 1748.48C-104.449 1750.49 -100.363 1752.44 -96.7677 1750.8C-95.408 1746.74 -94.7536 1748.8 -94.2524 1750.38C-93.6715 1752.21 -93.2961 1753.39 -92.2667 1743.65C-90.7332 1735.49 -88.9184 1737.43 -87.1285 1739.34C-86.0859 1740.45 -85.0518 1741.56 -84.0865 1740.65C-81.7426 1732.32 -79.3986 1734.69 -77.0546 1737.06C-76.9328 1737.18 -76.811 1737.3 -76.6893 1737.42C-73.9714 1753.93 -69.6852 1742.84 -67.0847 1736.11C-66.8391 1735.47 -66.6085 1734.88 -66.3957 1734.35C-65.0455 1732.64 -64.0656 1729.65 -63.159 1726.87C-61.3325 1721.29 -59.8031 1716.62 -56.1412 1725.2C-51.1314 1737.11 -46.0433 1737.11 -41.0335 1725.51C-38.4448 1726.69 -37.0908 1723.83 -35.8689 1721.25C-34.7076 1718.8 -33.6657 1716.6 -31.7967 1718.36C-28.7197 1710.97 -23.3396 1708.45 -18.8242 1706.35C-17.4237 1705.69 -16.1064 1705.08 -14.9668 1704.37C-14.0154 1704.45 -13.0933 1704.65 -12.1893 1704.85C-8.66803 1705.63 -5.42072 1706.34 -1.77692 1699.37C4.40707 1698.68 11.0607 1696.99 16.6185 1683C18.6424 1686.03 20.3659 1680.32 22.1153 1674.53C23.6475 1669.46 25.1995 1664.32 26.9904 1664.93C29.7821 1661.84 34.0597 1663.04 38.2416 1664.21C41.8573 1665.22 45.4014 1666.21 47.8515 1664.39C50.6588 1665.07 53.1166 1664.24 55.4281 1663.46C59.9487 1661.94 63.9096 1660.6 68.8301 1671.08C70.4642 1687.18 72.0273 1683.2 73.603 1679.19C74.3672 1677.24 75.1345 1675.29 75.9143 1675.62C77.0057 1678.25 77.8805 1678.4 78.707 1678.53C79.8367 1678.72 80.8761 1678.9 82.2549 1685.38C84.1475 1686.64 86.5402 1687.3 89.0847 1688.01C93.0648 1689.11 97.4164 1690.32 100.807 1694.07C105.758 1702.95 111.205 1700.1 116.457 1697.34C118.43 1696.31 120.374 1695.29 122.255 1694.91C122.959 1695.26 123.707 1695.73 124.482 1696.22C127.973 1698.42 132.018 1700.97 135.093 1694.3C139.232 1696.69 141.92 1683.28 144.072 1672.55C146.071 1662.57 147.608 1654.91 149.418 1664.35C150.152 1665.68 151.046 1668.68 152.045 1672.02C153.974 1678.48 156.295 1686.25 158.615 1685.95C159.745 1688.4 161.407 1687.89 163.166 1687.35C165.369 1686.67 167.725 1685.94 169.379 1690.94C171.741 1691.6 174.109 1695.02 176.473 1698.45C180.221 1703.87 183.961 1709.28 187.657 1703.63C189.804 1708.76 192.805 1706.82 195.739 1704.93C198.207 1703.33 200.627 1701.77 202.451 1704.47C203.694 1703.28 204.834 1701.98 205.931 1700.72C209.292 1696.88 212.243 1693.51 216.463 1695.25C218.476 1696.07 220.843 1695.81 223.227 1695.56C225.988 1695.26 228.773 1694.96 231.062 1696.32C233.332 1706.24 235.25 1714 237.716 1703.55C241.355 1692.25 244.878 1696.79 248.479 1705.24C250.913 1716.41 253.497 1714.16 256.125 1711.88C258.146 1710.12 260.192 1708.34 262.217 1712.62C264.839 1704.84 267.692 1708.43 270.548 1712.03C273.192 1715.36 275.838 1718.7 278.303 1713.01C283.039 1723.69 287.774 1729.07 292.51 1713.01C299.79 1719.08 306.013 1716.23 313.058 1708.47C320.299 1702.78 330.397 1695.79 337.638 1709.55C338.223 1710.3 338.808 1711.08 339.392 1711.86C343.802 1717.74 348.169 1723.55 352.628 1718.46C356.541 1720.11 360.219 1722.31 363.896 1724.51C366.213 1725.9 368.53 1727.29 370.906 1728.53C375.955 1733.91 392.354 1732.84 397.286 1729.84C396.502 1704.33 411.17 1712.8 418.165 1716.84L418.171 1716.84C418.508 1717.03 418.827 1717.22 419.125 1717.39C423.182 1718.01 427.084 1717.86 430.943 1717.72H430.945C438.07 1717.45 445.05 1717.18 452.589 1721.77C457.251 1722.08 461.33 1725.18 465.323 1728.21C470.114 1731.84 474.782 1735.38 480.183 1733.91C482.953 1733.33 486.318 1734.45 489.832 1735.61C495.601 1737.52 501.77 1739.56 506.367 1734.45C506.942 1734.34 507.512 1734.24 508.08 1734.15C508.487 1734.08 508.893 1734.02 509.297 1733.95C516.068 1732.89 522.413 1731.89 529.537 1718.23C538.93 1725.31 546.993 1724.92 556.269 1721.77C559.441 1720.93 562.613 1721.53 565.785 1722.13C569.619 1722.85 573.453 1723.58 577.287 1721.77C578.53 1721.22 579.774 1722.14 581.013 1723.06C583.051 1724.57 585.076 1726.07 587.072 1721C590.085 1717.46 592.786 1714.77 595.76 1713.85C596.942 1711.33 598.317 1711.76 599.616 1712.17C600.34 1712.4 601.04 1712.62 601.671 1712.31C605.898 1710.78 608.99 1706.78 613.217 1698.17C616.569 1690.59 621.251 1690.84 625.119 1691.05C625.45 1691.07 625.775 1691.09 626.093 1691.1C627.742 1690.7 629.205 1691.05 630.628 1691.4C633.022 1691.98 635.3 1692.54 638.148 1689.41C641.193 1686.76 643.711 1694.78 646.112 1702.42C648.742 1710.79 651.232 1718.71 654.117 1711.68C661.301 1704.92 670.441 1705.24 679.167 1705.54C682.848 1705.66 686.456 1705.79 689.812 1705.38C695.421 1700.65 700.396 1700.8 705.258 1700.95C710.133 1701.09 714.894 1701.23 720.067 1696.46C723.069 1691.06 726.027 1695.45 729.054 1699.95C731.67 1703.84 734.337 1707.8 737.131 1705.59C739.802 1695.96 743.377 1699.53 746.516 1702.65C747.562 1703.7 748.56 1704.69 749.46 1705.13C757.131 1711.74 762.65 1711.97 770.008 1698.91C772.741 1703.17 775.725 1700.95 778.719 1698.72C780.312 1697.54 781.909 1696.35 783.472 1696.14C784.803 1687.99 786.329 1690.68 787.66 1697.06C788.03 1698.81 788.349 1699.13 788.705 1699.48C789.177 1699.95 789.713 1700.48 790.517 1704.52C792.482 1701.1 794.588 1701.02 796.594 1700.94C798.385 1700.87 800.096 1700.8 801.554 1698.37C806.364 1697.78 811.212 1698.86 816.082 1699.94C822.111 1701.27 828.173 1702.61 834.235 1700.83C837.024 1702.2 839.812 1700.64 842.6 1699.08C846.544 1696.87 850.487 1694.67 854.431 1700.75C860.434 1706.86 866.021 1706.84 871.247 1706.83C874.506 1706.82 877.624 1706.81 880.615 1708.28C882.931 1705.47 885.684 1704.69 888.604 1703.86C892.394 1702.78 896.465 1701.62 900.224 1695.84C906.981 1688.82 913.462 1693.17 919.897 1697.48C921.848 1698.78 923.794 1700.09 925.743 1701.07C929.878 1707.36 934.152 1697.57 938.466 1687.7C941.38 1681.03 944.311 1674.32 947.23 1672.49C954.784 1682.95 966.174 1697.02 975.606 1691.17C977.049 1693.52 977.844 1690.57 978.683 1687.46C979.415 1684.74 980.18 1681.9 981.438 1682.33C982.866 1680.12 984.929 1681.6 987.102 1683.16C989.753 1685.06 992.567 1687.08 994.589 1682.64C996.643 1682.82 998.931 1684.93 1001.28 1687.08C1006.85 1692.2 1012.76 1697.63 1016.7 1678.49C1018.21 1677.04 1019.19 1675.85 1020.04 1674.82C1021.98 1672.49 1023.19 1671.03 1028.17 1669.27C1032.94 1672.88 1037.25 1674.42 1041.99 1674.11C1045.12 1669.73 1048.37 1670.11 1051.5 1673.95C1054.09 1676.94 1056.07 1675.55 1057.89 1674.27C1060.34 1672.55 1062.51 1671.03 1065.51 1680.49C1073.02 1677.41 1081.44 1680.34 1089.5 1695.94C1092.65 1698.08 1095.91 1701.14 1099.23 1704.25L1099.23 1704.26C1108.44 1712.9 1118.14 1722.01 1127.54 1713.31C1132.15 1711.43 1136.75 1712.23 1141.36 1713.04C1145.75 1713.81 1150.15 1714.58 1154.55 1713.01C1157.53 1713.01 1160.5 1712.31 1163.48 1711.61C1169.51 1710.2 1175.53 1708.79 1181.56 1713.16C1189.46 1727.3 1201.28 1724 1208.56 1710.62C1210.82 1709.48 1212.79 1707.39 1214.74 1705.31C1218.17 1701.65 1221.53 1698.08 1226.25 1700.09C1231.48 1689.4 1236.72 1693.09 1241.96 1696.78C1245.31 1699.14 1248.66 1701.5 1252.01 1700.09C1260.89 1706.16 1272.55 1708.39 1281.28 1700.4C1283.21 1698.91 1284.41 1693.97 1285.43 1689.78C1286.83 1684.02 1287.88 1679.68 1290.01 1687.64C1292.57 1674.96 1296.36 1680.49 1299.77 1685.48C1301.58 1688.11 1303.28 1690.6 1304.65 1690.17C1311.13 1685.25 1317.62 1692.16 1324.1 1699.05C1329.96 1705.27 1335.8 1711.49 1341.6 1708.93C1349.67 1722.32 1356.14 1724.01 1364.66 1726.23L1365.24 1726.38C1366.86 1726.33 1368.47 1726.31 1370.06 1726.3H1370.06C1380 1726.22 1389.35 1726.14 1398.9 1716.46C1406.98 1697.54 1414.21 1701.29 1422.32 1705.51C1424.62 1706.71 1426.98 1707.94 1429.46 1708.7C1431.98 1700.73 1434.34 1705.09 1436.72 1709.51C1438.75 1713.27 1440.79 1717.06 1442.97 1713.31C1447.27 1703.32 1451.69 1703.93 1456 1713.16C1456 1708.94 1455.03 1701.7 1453.65 1691.33L1453.65 1691.33L1453.65 1691.32C1452.64 1683.75 1451.41 1674.51 1450.17 1663.58C1448.29 1651.76 1446.39 1633.15 1445.29 1622.35L1445.29 1622.35C1444.83 1617.76 1444.5 1614.57 1444.39 1613.93L1444.45 1613.84C1439.17 1610.61 1421.48 1612.84 1426.1 1614.07C1426.03 1615.99 1422.65 1616.14 1417.67 1616.35C1413.64 1616.53 1408.57 1616.76 1403.36 1617.99C1402.24 1618.52 1401.12 1618.86 1400 1619.05V114.307C1407.64 99.7918 1414.58 103.037 1422.32 106.66C1424.62 107.735 1426.98 108.844 1429.46 109.531C1431.98 102.353 1434.34 106.286 1436.72 110.26C1438.75 113.641 1440.79 117.053 1442.97 113.682C1447.27 104.688 1451.69 105.241 1456 113.543C1456 109.747 1455.03 103.226 1453.65 93.9018L1453.65 93.8968L1453.65 93.8885C1452.64 87.0731 1451.41 78.7605 1450.17 68.9195C1448.29 58.2849 1446.4 41.5387 1445.29 31.8184L1445.29 31.8136L1445.29 31.8107C1444.83 27.6781 1444.5 24.817 1444.39 24.2381L1444.45 24.1572ZM1063.21 1643H1052.42C1055.61 1647.61 1058.95 1645.58 1063.08 1643.08C1063.12 1643.05 1063.16 1643.03 1063.21 1643Z" fill="white"/>
</svg>
