<svg width="216" height="52" viewBox="0 0 216 52" fill="none" xmlns="http://www.w3.org/2000/svg">
<path d="M6.94244 47.3821L44.2129 52L202.271 47.3821L200.251 23.9707L200.275 0.000117779L19.1542 0.000117779L8.18695 3.59064L10.058 8.60212L12.5594 8.29423L10.0656 14.0489L11.3189 15.7598L9.18454 12.8456L5.96458 16.5883L6.94244 47.3821Z" fill="#EDCFFC"/>
<path d="M35.36 38L28.76 28.12L25.52 31.4V38H21.36V16.6H25.52V26L34.8 16.6H40.04L31.72 25.04L40.28 38H35.36ZM50.9422 38.4C44.5022 38.4 40.1022 33.88 40.1022 27.28C40.1022 20.72 44.5022 16.2 50.9422 16.2C57.3822 16.2 61.7822 20.72 61.7822 27.28C61.7822 33.88 57.3822 38.4 50.9422 38.4ZM50.9422 34.64C55.0222 34.64 57.5422 31.8 57.5422 27.28C57.5422 22.8 55.0222 19.96 50.9422 19.96C46.9022 19.96 44.3422 22.8 44.3422 27.28C44.3422 31.8 46.9022 34.64 50.9422 34.64ZM91.655 38H87.535L84.615 22.16L79.135 38H75.695L70.215 22.28L67.295 38H63.255L67.295 16.6H72.215L77.495 31.72L82.735 16.6H87.655L91.655 38ZM103.902 16.2C109.222 16.2 112.142 18.8 112.142 23.12V38H108.022V35.24C106.662 37.36 104.182 38.4 101.022 38.4C96.3422 38.4 93.5022 36.16 93.5022 32.44C93.5022 29.12 95.5422 27.28 100.222 25.96L104.462 24.8C107.182 24.04 107.982 23.76 107.982 22.48C107.982 21.12 106.502 19.84 103.702 19.84C100.582 19.84 98.8622 21.44 98.7022 24.4H94.5022C94.7422 19.08 98.0622 16.2 103.902 16.2ZM101.542 34.92C105.382 34.92 108.062 32.52 108.062 28.28V26.88C107.382 27.4 106.942 27.6 105.262 28.08L101.222 29.24C98.8622 29.88 97.7822 30.72 97.7822 32.24C97.7822 33.92 99.1822 34.92 101.542 34.92ZM130.575 16.6H134.735V38H130.575V28.56H120.015V38H115.855V16.6H120.015V24.72H130.575V16.6ZM158.489 34.16H161.849V43.64H157.689V38H140.889V43.64H136.729V34.16H138.689C138.689 34.16 141.329 33.04 141.329 24.84V16.6H158.489V34.16ZM154.289 34.16V20.44H145.449V24.84C145.449 33.04 143.489 34.16 143.489 34.16H154.289ZM173.807 16.2C179.127 16.2 182.047 18.8 182.047 23.12V38H177.927V35.24C176.567 37.36 174.087 38.4 170.927 38.4C166.247 38.4 163.407 36.16 163.407 32.44C163.407 29.12 165.447 27.28 170.127 25.96L174.367 24.8C177.087 24.04 177.887 23.76 177.887 22.48C177.887 21.12 176.407 19.84 173.607 19.84C170.487 19.84 168.767 21.44 168.607 24.4H164.407C164.647 19.08 167.967 16.2 173.807 16.2ZM171.447 34.92C175.287 34.92 177.967 32.52 177.967 28.28V26.88C177.287 27.4 176.847 27.6 175.167 28.08L171.127 29.24C168.767 29.88 167.687 30.72 167.687 32.24C167.687 33.92 169.087 34.92 171.447 34.92ZM186 43.52C186 43.52 188.04 41.76 188.04 38H185.76V32.68H190.96V38C190.96 41.76 189.36 43.52 189.36 43.52H186Z" fill="#131313"/>
<path d="M0 3.41773L3.33333 10L5 8.57594L3.33333 0L0 3.41773Z" fill="#EDCFFC"/>
<path d="M213.342 9.14776L207.498 10.1209L209.188 7.65171L211.373 6.35017L211.221 5.4379L214.003 5.91224L213.342 9.14776Z" fill="#EDCFFC"/>
<path d="M206.553 15.4914L205.168 12.5965L204.152 13.7034L204.813 17.6566L206.553 15.4914Z" fill="#EDCFFC"/>
</svg>
