<svg width="300" height="63" viewBox="0 0 300 63" fill="none" xmlns="http://www.w3.org/2000/svg">
<path d="M7.81098 58.3821L77.0524 63L283.247 56.3821L283.247 14.4946L30.4052 11.0001L10.0395 14.5906L13.5246 19.6021L18.1706 19.2942L13.549 25.0489L15.8805 26.7598L11.9102 23.8456L5.93598 27.5883L7.81098 58.3821Z" fill="#C3F598"/>
<path d="M0 7.50769L6.01296 23L7.81685 21.5385L3.60778 4L0 7.50769Z" fill="#C3F598"/>
<path d="M286.733 1.27355L286.777 7.12424L284.757 5.09259L283.879 2.75921L283.02 2.7661L283.859 0.126403L286.733 1.27355Z" fill="#C3F598"/>
<path d="M298.028 17.9655L295.17 18.866L296.038 20.0293L299.762 19.9994L298.028 17.9655Z" fill="#C3F598"/>
</svg>
