<svg width="342" height="50" viewBox="0 0 342 50" fill="none" xmlns="http://www.w3.org/2000/svg">
<path d="M7.29496 43.2151L78.6494 49.0674L334.585 46.6053L324.727 22.145L324.727 4.32002L83 8.32002L19.0663 4.32002L9.44257 3L12.8007 7.70965L17.2774 7.4203L12.8242 12.8284L15.0707 14.4363L11.2451 11.6976L5.48846 15.2148L7.29496 43.2151Z" fill="#EDCFFC"/>
<path d="M37.08 16.6H41.24V38H37.08V28.56H26.52V38H22.36V16.6H26.52V24.72H37.08V16.6ZM54.3538 16.2C59.6738 16.2 62.5938 18.8 62.5938 23.12V38H58.4738V35.24C57.1138 37.36 54.6338 38.4 51.4738 38.4C46.7938 38.4 43.9538 36.16 43.9538 32.44C43.9538 29.12 45.9938 27.28 50.6738 25.96L54.9138 24.8C57.6338 24.04 58.4338 23.76 58.4338 22.48C58.4338 21.12 56.9538 19.84 54.1538 19.84C51.0338 19.84 49.3138 21.44 49.1538 24.4H44.9538C45.1938 19.08 48.5138 16.2 54.3538 16.2ZM51.9938 34.92C55.8338 34.92 58.5138 32.52 58.5138 28.28V26.88C57.8338 27.4 57.3938 27.6 55.7138 28.08L51.6738 29.24C49.3138 29.88 48.2338 30.72 48.2338 32.24C48.2338 33.92 49.6338 34.92 51.9938 34.92ZM84.6781 38.4C78.2381 38.4 73.8381 33.88 73.8381 27.28C73.8381 20.72 78.2381 16.2 84.6781 16.2C91.1181 16.2 95.5181 20.72 95.5181 27.28C95.5181 33.88 91.1181 38.4 84.6781 38.4ZM84.6781 34.64C88.7581 34.64 91.2781 31.8 91.2781 27.28C91.2781 22.8 88.7581 19.96 84.6781 19.96C80.6381 19.96 78.0781 22.8 78.0781 27.28C78.0781 31.8 80.6381 34.64 84.6781 34.64ZM118.102 34.16H121.462V43.64H117.302V38H100.502V43.64H96.3416V34.16H98.3016C98.3016 34.16 100.942 33.04 100.942 24.84V16.6H118.102V34.16ZM113.902 34.16V20.44H105.062V24.84C105.062 33.04 103.102 34.16 103.102 34.16H113.902ZM138.939 16.6H143.099V38H138.939V28.56H128.379V38H124.219V16.6H128.379V24.72H138.939V16.6ZM156.653 38.4C150.213 38.4 145.813 33.88 145.813 27.28C145.813 20.72 150.213 16.2 156.653 16.2C163.093 16.2 167.493 20.72 167.493 27.28C167.493 33.88 163.093 38.4 156.653 38.4ZM156.653 34.64C160.733 34.64 163.253 31.8 163.253 27.28C163.253 22.8 160.733 19.96 156.653 19.96C152.613 19.96 150.053 22.8 150.053 27.28C150.053 31.8 152.613 34.64 156.653 34.64ZM179.797 15.12C175.917 15.12 173.357 13.44 173.117 9.72H176.837C177.077 11.4 178.117 12.08 179.797 12.08C181.357 12.08 182.557 11.36 182.757 9.72H186.477C186.237 13.4 183.557 15.12 179.797 15.12ZM185.317 16.6H189.397V38H185.317V22.84L174.317 38H170.237V16.6H174.317V31.8L185.317 16.6ZM211.755 38.4C205.315 38.4 200.835 33.88 200.835 27.28C200.835 20.72 205.315 16.2 211.755 16.2C217.275 16.2 221.155 19.48 221.675 24.6H217.515C216.995 21.68 214.995 19.96 211.715 19.96C207.755 19.96 205.075 22.72 205.075 27.28C205.075 31.88 207.755 34.64 211.715 34.64C215.475 34.64 217.795 32.4 218.075 28.72H222.195C221.955 34.48 217.835 38.4 211.755 38.4ZM243.265 34.16H246.625V43.64H242.465V38H224.985V16.6H229.145V34.16H239.065V16.6H243.265V34.16ZM265.14 30H269.3C268.62 35.12 264.78 38.4 259.02 38.4C252.66 38.4 248.18 33.88 248.18 27.28C248.18 20.72 252.66 16.2 259.06 16.2C265.02 16.2 268.98 20.04 268.98 26.2C268.98 27.08 268.94 27.72 268.94 27.72H252.42C252.58 32 255.14 34.64 259.02 34.64C262.5 34.64 264.54 32.96 265.14 30ZM259.06 19.88C255.98 19.88 253.74 21.56 252.82 24.4H264.86C264.3 21.56 262.26 19.88 259.06 19.88ZM286.933 16.6H291.093V38H286.933V28.56H276.373V38H272.213V16.6H276.373V24.72H286.933V16.6ZM310.767 30H314.927C314.247 35.12 310.407 38.4 304.647 38.4C298.287 38.4 293.807 33.88 293.807 27.28C293.807 20.72 298.287 16.2 304.687 16.2C310.647 16.2 314.607 20.04 314.607 26.2C314.607 27.08 314.567 27.72 314.567 27.72H298.047C298.207 32 300.767 34.64 304.647 34.64C308.127 34.64 310.167 32.96 310.767 30ZM304.687 19.88C301.607 19.88 299.367 21.56 298.447 24.4H310.487C309.927 21.56 307.887 19.88 304.687 19.88Z" fill="#131313"/>
<path d="M0 3.58862L3.58862 10.5L5.38293 9.00474L3.58862 0L0 3.58862Z" fill="#EDCFFC"/>
<path d="M339.413 4.03139L333.514 5.01541L335.234 2.60617L337.446 1.32762L337.299 0.442693L340.101 0.884811L339.413 4.03139Z" fill="#EDCFFC"/>
<path d="M332.525 10.2373L331.148 7.43509L330.115 8.51683L330.755 12.3515L332.525 10.2373Z" fill="#EDCFFC"/>
</svg>
