<?xml version="1.0" encoding="UTF-8" standalone="no"?>
<svg
   xmlns:dc="http://purl.org/dc/elements/1.1/"
   xmlns:cc="http://creativecommons.org/ns#"
   xmlns:rdf="http://www.w3.org/1999/02/22-rdf-syntax-ns#"
   xmlns:svg="http://www.w3.org/2000/svg"
   xmlns="http://www.w3.org/2000/svg"
   viewBox="0 0 1357.3333 805.33331"
   height="805.33331"
   width="1357.3333"
   xml:space="preserve"
   id="svg2"
   version="1.1"><metadata
     id="metadata8"><rdf:RDF><cc:Work
         rdf:about=""><dc:format>image/svg+xml</dc:format><dc:type
           rdf:resource="http://purl.org/dc/dcmitype/StillImage" /></cc:Work></rdf:RDF></metadata><defs
     id="defs6"><clipPath
       id="clipPath18"
       clipPathUnits="userSpaceOnUse"><path
         id="path16"
         d="M 0,604 H 1018 V 0 H 0 Z" /></clipPath></defs><g
     transform="matrix(1.3333333,0,0,-1.3333333,0,805.33333)"
     id="g10"><g
       id="g12"><g
         clip-path="url(#clipPath18)"
         id="g14"><g
           transform="translate(540.5068,437.9383)"
           id="g20"><path
             id="path22"
             style="fill:#000000;fill-opacity:1;fill-rule:evenodd;stroke:none"
             d="M 0,0 V 0 C 0.123,9.491 0.478,18.967 0.489,28.458 25.946,28.147 51.426,28.424 76.894,28.325 77.26,18.879 77.415,9.424 77.648,-0.022 70.221,0.044 62.794,0 55.366,0 c 0.112,-25.301 0.023,-50.613 0.045,-75.916 -11.102,-0.02 -22.193,0 -33.284,-0.01 0.045,25.334 -0.11,50.68 0.078,76.015 C 14.811,-0.088 7.405,0.056 0,0 m -33.938,-33.818 c -4.419,0.009 -8.827,0.009 -13.234,-0.014 2.42,11.466 4.541,22.998 6.894,34.473 1.698,-11.554 3.986,-23.018 6.34,-34.459 m -25.624,62.076 -0.789,-0.727 c -9.88,-34.47 -19.772,-68.953 -29.564,-103.457 h 34.383 c 1.088,5.064 1.854,10.195 2.997,15.249 l 0.7,0.507 c 7.627,0.265 15.276,-0.021 22.915,0.122 1.01,-5.296 2.065,-10.593 3.064,-15.901 12.123,0.067 24.258,-0.02 36.392,0.045 -10.247,34.726 -20.339,69.504 -30.53,104.239 -13.19,-0.077 -26.39,0.111 -39.568,-0.077 M -406.48,28.28 v 0 c 22.937,0.178 333.598,-0.275 333.598,-0.275 L -80.559,0.42 h -236.527 c -4.227,0 -34.178,-1.906 -38.391,-2.175 -1.521,1.32 -3.914,2.175 -6.614,2.175 -4.599,0 -8.327,-2.47 -8.327,-5.517 0,-3.047 3.728,-5.517 8.327,-5.517 2.699,0 5.091,0.855 6.612,2.174 4.206,-0.269 34.166,-2.174 38.393,-2.174 H -83.63 l -7.063,-25.379 h -226.393 c -4.569,0 -34.213,-1.903 -38.393,-2.174 -1.521,1.319 -3.914,2.174 -6.612,2.174 -4.599,0 -8.327,-2.47 -8.327,-5.517 0,-3.047 3.728,-5.516 8.327,-5.516 2.697,0 5.089,0.854 6.611,2.172 4.076,-0.275 32.508,-2.172 38.394,-2.172 h 223.322 l -7.984,-28.689 c 0,0 -281.34,-0.211 -304.843,-0.211 0.111,34.736 -0.111,69.471 0.111,104.206 m -45.596,-39.755 v 0 c 2.087,0.077 3.675,1.896 3.663,3.939 0.09,2.902 0.867,6.488 -1.509,8.727 -4.819,1.545 -10.036,0.332 -15.01,0.916 0.066,-4.589 0.077,-9.18 -0.023,-13.769 4.286,0.254 8.582,-0.045 12.879,0.187 m 1.965,-38.311 v 0 c 2.786,0.352 3.22,3.641 3.253,5.893 0.044,2.967 0.366,7.37 -3.265,8.397 -4.896,0.717 -9.88,0.143 -14.809,0.374 0.066,-5.021 0.077,-10.041 -0.012,-15.073 4.929,0.366 9.915,-0.231 14.833,0.409 m -46.296,78.056 v 0 c 14.877,0.11 29.765,0.043 44.652,0.043 9.881,-0.087 20.562,-2.173 27.878,-9.279 11.291,-10.879 9.148,-33.004 -5.829,-39.634 6.429,-2.318 12.113,-7.106 14.278,-13.716 3.608,-10.791 1.821,-24.177 -6.85,-32.154 -7.894,-7.173 -19.03,-9.126 -29.366,-9.412 -14.954,-0.099 -29.897,-0.022 -44.852,-0.044 0.056,34.736 -0.122,69.471 0.089,104.196 m 46.473,54.255 v 0 c -4.951,0.805 -10.003,0.198 -14.998,0.408 0.055,-5.009 0.088,-10.03 -0.011,-15.063 4.84,0.354 9.725,-0.187 14.554,0.365 2.953,0.188 3.553,3.597 3.531,5.959 0.033,2.924 0.366,7.15 -3.076,8.331 m 0.012,36.731 v 0 c -4.83,1.524 -10.026,0.344 -14.999,0.917 0.044,-4.59 0.066,-9.18 -0.022,-13.759 4.296,0.242 8.592,-0.067 12.889,0.176 2.032,0.099 3.63,1.864 3.63,3.873 0.101,2.923 0.866,6.521 -1.498,8.793 m -2.843,-77.094 v 0 c -14.577,-0.055 -29.153,-0.012 -43.742,-0.012 0.133,34.746 -0.222,69.505 0.189,104.252 15.232,-0.044 30.475,0.055 45.718,-0.044 9.526,-0.222 19.729,-2.439 26.746,-9.292 11.246,-10.858 9.125,-32.913 -5.796,-39.557 6.329,-2.427 12.024,-7.061 14.177,-13.649 3.775,-11.034 1.787,-24.883 -7.393,-32.795 -8.194,-6.984 -19.44,-8.749 -29.899,-8.903 m 46.185,-0.022 v 0 c 0.133,34.756 -0.233,69.525 0.189,104.273 10.935,-0.156 21.882,0.231 32.818,-0.21 -0.078,-25.379 0.177,-50.768 -0.122,-76.148 10.902,0.431 21.826,-0.055 32.739,0.255 -0.277,-9.391 -0.421,-18.781 -0.777,-28.17 z m 115.317,76.609 v 0 c -2.175,-11.519 -4.429,-23.028 -6.816,-34.503 4.408,0.011 8.826,0 13.234,0.011 -2.399,11.442 -4.563,22.94 -6.418,34.492 m 14.445,-76.576 v 0 c -0.911,5.296 -2.021,10.559 -2.987,15.845 -7.66,-0.145 -15.332,0.155 -22.982,-0.133 l -0.654,-0.486 c -1.133,-5.053 -1.933,-10.184 -2.976,-15.259 -11.501,-0.012 -22.98,0.01 -34.472,-0.012 9.926,34.461 19.729,68.964 29.609,103.435 l 0.822,0.771 c 13.178,0.156 26.368,0 39.545,0.068 10.203,-34.737 20.307,-69.517 30.532,-104.252 -12.146,0 -24.292,-0.043 -36.437,0.023 m 74.883,77.923 c 9.281,0.728 18.551,-1.047 27.499,-3.333 1.155,8.86 2.243,17.743 3.52,26.583 -11.757,4.049 -24.425,5.527 -36.804,4.268 -10.313,-1.157 -20.782,-5.98 -26.345,-15.037 -6.061,-10.12 -6.494,-23.405 -1.265,-33.942 5.518,-10.472 17.164,-15.151 27.666,-19.145 3.564,-1.512 8.604,-3.078 8.815,-7.68 -0.4,-3.001 -3.741,-4.082 -6.373,-4.237 -10.213,-0.629 -20.327,2.339 -29.486,6.642 -1.133,-8.926 -2.643,-17.808 -4.008,-26.702 13.233,-6.642 28.832,-8.695 43.375,-5.98 10.991,1.985 21.427,9.081 25.368,19.751 4.009,10.857 3.287,24.34 -4.674,33.3 -6.772,7.791 -16.985,10.89 -26.189,14.797 -2.82,1.357 -6.684,3.002 -6.65,6.677 -0.167,2.957 3.219,3.805 5.551,4.038 m 89.693,-77.968 v 0 c -11.09,0.022 -22.182,0 -33.272,0.022 0.044,25.335 -0.101,50.669 0.077,75.993 -7.405,-0.156 -14.81,-0.033 -22.204,-0.068 0.133,9.48 0.466,18.958 0.488,28.437 25.468,-0.288 50.937,-0.022 76.416,-0.134 0.366,-9.434 0.488,-18.868 0.766,-28.312 -7.427,0.009 -14.865,0 -22.293,0.009 0.078,-25.312 0.034,-50.635 0.022,-75.947" /></g><g
           transform="translate(637.9375,490.8543)"
           id="g24"><path
             id="path26"
             style="fill:#cb6942;fill-opacity:1;fill-rule:evenodd;stroke:none"
             d="m 0,0 h -168.391 c -1.691,0 -3.061,1.373 -3.061,3.067 v 36.822 c 0,1.693 1.37,3.067 3.061,3.067 H 0 c 1.691,0 3.063,-1.374 3.063,-3.067 V 3.067 C 3.063,1.373 1.691,0 0,0" /></g><g
           transform="translate(637.9375,490.8543)"
           id="g28"><path
             id="path30"
             style="fill:none;stroke:#cb6942;stroke-width:0.21600001;stroke-linecap:butt;stroke-linejoin:miter;stroke-miterlimit:22.9260006;stroke-dasharray:none;stroke-opacity:1"
             d="m 0,0 h -168.391 c -1.691,0 -3.061,1.373 -3.061,3.067 v 36.822 c 0,1.693 1.37,3.067 3.061,3.067 H 0 c 1.691,0 3.063,-1.374 3.063,-3.067 V 3.067 C 3.063,1.373 1.691,0 0,0 Z" /></g><g
           transform="translate(485.2192,507.451)"
           id="g32"><path
             id="path34"
             style="fill:#ffffff;fill-opacity:1;fill-rule:nonzero;stroke:none"
             d="m 0,0 v 8.815 c 0,1.224 -0.193,2.076 -0.577,2.557 -0.386,0.48 -0.964,0.72 -1.734,0.72 H -3.895 V -3.31 h 1.552 C -0.782,-3.31 0,-2.207 0,0 m 4.357,-0.262 c 0,-2.513 -0.55,-4.309 -1.65,-5.391 C 1.606,-6.734 0.01,-7.275 -2.08,-7.275 h -6.139 v 23.333 h 6.139 c 2.068,0 3.659,-0.514 4.77,-1.541 1.111,-1.027 1.667,-2.84 1.667,-5.439 z" /></g><g
           transform="translate(500.4692,516.2009)"
           id="g36"><path
             id="path38"
             style="fill:#ffffff;fill-opacity:1;fill-rule:nonzero;stroke:none"
             d="m 0,0 v 0.328 c 0,1.048 -0.171,1.813 -0.512,2.294 -0.341,0.48 -0.907,0.72 -1.7,0.72 h -1.683 v -6.357 h 1.683 C -0.737,-3.015 0,-2.01 0,0 M 4.819,-16.025 H 0.297 l -2.939,9.307 h -1.253 v -9.307 H -8.187 V 7.308 h 6.668 c 3.961,0 5.943,-2.207 5.943,-6.62 V 0.131 c 0,-3.015 -1.036,-5.003 -3.104,-5.964 z" /></g><g
           transform="translate(520.0107,507.0252)"
           id="g40"><path
             id="path42"
             style="fill:#ffffff;fill-opacity:1;fill-rule:nonzero;stroke:none"
             d="m 0,0 c 0,-4.697 -2.135,-7.046 -6.403,-7.046 -4.292,0 -6.437,2.349 -6.437,7.046 v 16.483 h 4.323 V 0.131 c 0,-1.18 0.15,-2.01 0.447,-2.491 0.296,-0.48 0.851,-0.721 1.667,-0.721 0.792,0 1.336,0.241 1.632,0.721 0.298,0.481 0.447,1.311 0.447,2.491 V 16.483 H 0 Z" /></g><g
           transform="translate(538.958,500.1761)"
           id="g44"><path
             id="path46"
             style="fill:#ffffff;fill-opacity:1;fill-rule:nonzero;stroke:none"
             d="m 0,0 h -4.06 v 11.24 l 0.066,2.393 -0.461,-2 -2.18,-7.144 h -2.64 l -2.211,7.144 -0.463,2 0.066,-2.393 V 0 h -4.06 v 23.332 h 4.06 l 3.929,-12.748 3.927,12.748 H 0 Z" /></g><g
           transform="translate(561.4648,507.3523)"
           id="g48"><path
             id="path50"
             style="fill:#ffffff;fill-opacity:1;fill-rule:nonzero;stroke:none"
             d="m 0,0 c -0.089,-4.937 -2.179,-7.406 -6.271,-7.406 -4.226,0 -6.338,2.392 -6.338,7.177 v 9.438 c 0,4.784 2.112,7.177 6.338,7.177 1.958,0 3.487,-0.563 4.587,-1.688 1.1,-1.125 1.663,-3.021 1.684,-5.686 h -4.391 c -0.022,1.289 -0.165,2.179 -0.428,2.671 -0.264,0.492 -0.749,0.737 -1.452,0.737 -0.662,0 -1.157,-0.229 -1.487,-0.688 -0.33,-0.459 -0.495,-1.333 -0.495,-2.621 v -9.209 c 0,-1.289 0.171,-2.169 0.512,-2.638 0.342,-0.47 0.82,-0.705 1.435,-0.705 0.66,0 1.139,0.246 1.437,0.737 0.297,0.493 0.456,1.393 0.478,2.704 z" /></g><g
           transform="translate(574.6016,500.1761)"
           id="g52"><path
             id="path54"
             style="fill:#ffffff;fill-opacity:1;fill-rule:nonzero;stroke:none"
             d="M 0,0 H -10.893 V 23.332 H 0 v -3.965 h -6.568 v -5.636 h 5.546 V 9.798 H -6.568 V 3.965 l 6.568,0 z" /></g><g
           transform="translate(590.082,500.1761)"
           id="g56"><path
             id="path58"
             style="fill:#ffffff;fill-opacity:1;fill-rule:nonzero;stroke:none"
             d="m 0,0 h -3.564 l -4.952,11.895 -0.758,2.098 0.098,-2.262 V 0 h -4.059 v 23.332 h 3.597 l 4.951,-11.895 0.727,-2.13 -0.066,2.326 V 23.332 H 0 Z" /></g><g
           transform="translate(604.5078,519.5432)"
           id="g60"><path
             id="path62"
             style="fill:#ffffff;fill-opacity:1;fill-rule:nonzero;stroke:none"
             d="M 0,0 H -4.06 V -19.367 H -8.384 V 0 h -4.127 V 3.965 H 0 Z" /></g><g
           transform="translate(617.249,500.1761)"
           id="g64"><path
             id="path66"
             style="fill:#ffffff;fill-opacity:1;fill-rule:nonzero;stroke:none"
             d="M 0,0 H -10.894 V 23.332 H 0 v -3.965 h -6.569 v -5.636 h 5.546 V 9.798 H -6.569 V 3.965 l 6.569,0 z" /></g><g
           transform="translate(627.6807,516.2009)"
           id="g68"><path
             id="path70"
             style="fill:#ffffff;fill-opacity:1;fill-rule:nonzero;stroke:none"
             d="m 0,0 v 0.328 c 0,1.048 -0.171,1.813 -0.512,2.294 -0.342,0.48 -0.908,0.72 -1.7,0.72 h -1.683 v -6.357 h 1.683 C -0.737,-3.015 0,-2.01 0,0 M 4.819,-16.025 H 0.297 l -2.939,9.307 h -1.253 v -9.307 H -8.187 V 7.308 h 6.668 c 3.961,0 5.943,-2.207 5.943,-6.62 V 0.131 c 0,-3.015 -1.036,-5.003 -3.104,-5.964 z" /></g></g></g></g></svg>