<svg width="398" height="361" viewBox="0 0 398 361" fill="none" xmlns="http://www.w3.org/2000/svg">
<path d="M97.0282 1.44325L329.609 50.4757L318.105 194.085L376.626 238.118L397.133 317.177L257.084 361.71L-21.5755 361.709L97.0282 1.44325Z" fill="white"/>
<path d="M-109 221L98.0728 211.041L73.7646 93.8292L25.8378 85.4045L27.3855 100.75L10.3404 91.7999L16.5407 79.0114L-2.8058 74.9808L-79.3762 56.1323L-94.1881 138.566L-91.9451 154.47L-79.392 177.487L-96.5959 168.537L-101.594 179.783L-109 221Z" fill="#EDCFFC"/>
<path d="M177.394 108H169.336L165.626 88.0005L158.727 108H152.235L145.394 88.1744L141.684 108H133.627L139.655 76.1168H148.699L155.539 95.7684L162.379 76.1168H171.423L177.394 108ZM204.142 96.0583H212.374C211.273 103.768 205.244 108.58 196.78 108.58C187.157 108.58 180.433 101.739 180.433 92.0584C180.433 82.3775 187.215 75.5371 196.896 75.5371C206.055 75.5371 212.084 81.45 212.084 90.5512C212.084 92.2903 211.968 93.3917 211.968 93.3917H188.665C189.128 98.2032 192.143 101.16 196.78 101.16C200.838 101.16 203.215 99.2466 204.142 96.0583ZM196.896 82.7833C193.302 82.7833 190.693 84.5224 189.418 87.5368H203.968C203.041 84.5224 200.606 82.7833 196.896 82.7833ZM240.452 76.1168V83.7688H225.669V108H217.438V76.1168H240.452ZM256.91 75.5951C265.026 75.5951 269.837 79.595 269.837 86.3194V108H261.837V105.159C260.098 107.362 256.91 108.58 252.852 108.58C245.838 108.58 241.432 104.928 241.432 99.1307C241.432 94.4931 244.447 91.7686 251.693 89.7976L257.606 88.1744C260.968 87.2469 261.779 86.7832 261.779 85.5658C261.779 83.8847 259.75 82.7253 256.91 82.7253C252.968 82.7253 250.939 84.5224 250.823 88.3484H242.765C243.055 80.1747 248.215 75.5951 256.91 75.5951ZM254.012 101.913C258.823 101.913 261.837 99.1307 261.837 94.725V92.9859C261.142 93.5656 260.214 93.9714 258.301 94.4931L253.606 95.7684C250.765 96.522 249.78 97.3916 249.78 98.9568C249.78 100.812 251.403 101.913 254.012 101.913Z" fill="#6933B0"/>
<path d="M223.054 193.975C223.054 170.457 223.218 158.698 223.545 158.698V158.498C223.545 158.23 223.349 158.097 222.956 158.097L223.054 157.896C223.054 157.696 223.152 157.596 223.349 157.596L223.447 157.195H223.054V157.095C223.054 157.095 223.218 156.927 223.545 156.593L223.349 155.992C223.48 155.992 223.545 155.959 223.545 155.892L223.742 156.092H223.938C224.069 156.092 224.135 156.026 224.135 155.892C224.004 155.892 223.775 155.758 223.447 155.491C223.447 155.357 223.48 155.057 223.545 154.589C223.545 154.522 223.349 154.489 222.956 154.489V153.988L223.545 154.088V153.787C223.414 152.852 223.218 152.251 222.956 151.983C222.956 151.783 223.152 151.649 223.545 151.583C223.545 151.315 223.447 151.081 223.25 150.881C223.316 150.881 223.349 150.814 223.349 150.681L223.447 150.48L223.152 150.179V149.979C223.414 149.979 223.545 149.879 223.545 149.678V149.278C223.545 149.144 223.447 149.044 223.25 148.977L223.545 138.354V137.853C223.218 137.786 223.054 137.686 223.054 137.552V137.352L223.447 137.051C223.513 136.851 223.382 136.717 223.054 136.65V135.848L222.857 135.047C223.119 135.047 223.316 134.278 223.447 132.742C223.513 132.474 223.644 132.307 223.84 132.24L223.644 131.739V130.737L223.84 130.036L223.644 130.136C223.513 129.134 223.349 128.499 223.152 128.232C223.218 128.299 223.349 128.232 223.545 128.031L223.25 127.53L223.447 127.33L223.25 127.129L223.545 126.428C223.545 126.227 223.382 125.86 223.054 125.325L223.25 125.025L223.152 124.624C223.152 124.423 223.283 124.357 223.545 124.423V124.323C223.545 124.056 223.349 123.689 222.956 123.221C222.956 122.887 223.087 122.486 223.349 122.018L223.152 121.417V121.317C223.152 120.916 223.447 120.482 224.037 120.014H224.823L224.725 119.914L261.281 119.012L261.969 192.271L223.054 193.975ZM245.951 189.264H258.333L248.309 155.892L257.841 131.238L245.951 131.138L245.852 131.238L238.384 151.182V131.038L226.69 130.938V189.264H238.384V161.103L245.951 189.264Z" fill="#6933B0"/>
<path d="M204.012 156.235V166.117C204.012 171.241 204.045 175.067 204.11 177.596C204.11 180.391 204.012 182.255 203.815 183.186C203.618 184.051 202.83 184.75 201.452 185.282C200.074 185.748 198.893 185.549 197.908 184.684C196.989 183.818 196.432 182.854 196.235 181.789C196.038 180.724 195.874 178.794 195.742 175.999V157.033C195.742 155.569 195.775 153.906 195.841 152.042C195.906 150.179 196.628 148.781 198.007 147.85C199.385 146.852 200.632 146.752 201.748 147.55C202.863 148.349 203.52 149.547 203.717 151.144C203.913 152.741 204.012 154.438 204.012 156.235ZM222.52 126.788V199.856L180.779 193.168C180.844 192.902 180.877 192.636 180.877 192.37C180.943 192.37 181.107 192.403 181.369 192.47C181.632 192.47 181.763 192.403 181.763 192.27V192.07C181.369 192.07 181.041 191.97 180.779 191.771L180.188 191.97C180.188 191.638 180.254 191.405 180.385 191.272C180.319 190.54 180.122 190.174 179.794 190.174C179.729 189.774 179.597 189.575 179.4 189.575V189.475C179.729 189.275 179.925 189.175 179.991 189.175V188.577C180.516 188.577 180.779 188.51 180.779 188.377V188.277C180.188 188.011 179.794 187.878 179.597 187.878V187.678C179.597 187.545 180.024 187.312 180.877 186.979L180.582 185.083C180.844 185.083 180.976 185.016 180.976 184.883V184.184C180.976 183.985 180.844 183.719 180.582 183.386V183.186C180.582 183.053 180.68 182.987 180.877 182.987L180.779 182.088V181.988L180.877 181.689C180.549 181.556 180.385 181.456 180.385 181.389V181.29C180.582 181.29 180.647 173.803 180.582 158.83C180.516 143.857 180.385 136.271 180.188 136.071C180.319 136.071 180.418 135.971 180.483 135.771L180.385 135.173L180.483 134.973L180.385 134.673L180.483 133.975C180.483 133.708 180.352 133.342 180.09 132.877L180.385 132.378L180.188 132.078C180.188 131.812 180.319 131.679 180.582 131.679C180.582 131.346 180.385 130.947 179.991 130.481C179.991 130.148 180.122 129.682 180.385 129.083L180.188 128.385V128.285C180.188 127.819 180.45 127.387 180.976 126.987H181.763V126.788H222.52ZM180.09 195.464C180.418 195.265 180.68 195.032 180.877 194.765L222.027 204.648L221.338 213.532L193.872 211.435L193.773 212.134C193.642 212.4 193.511 212.533 193.38 212.533L190.722 212.234L181.172 204.149L181.271 202.551L179.794 201.653C179.925 201.453 179.991 201.32 179.991 201.254C180.779 201.187 181.172 201.121 181.172 201.054V200.755C180.713 200.688 180.418 200.389 180.286 199.856C180.483 199.856 180.615 199.623 180.68 199.158C180.68 198.625 181.008 198.259 181.665 198.06V197.261L181.074 197.061V197.361H181.271V197.76L180.385 197.361V196.862C180.647 196.862 181.041 196.795 181.566 196.662L180.976 196.063L181.763 195.963C181.763 195.83 181.632 195.764 181.369 195.764L180.09 195.664V195.464ZM215.432 168.612V153.34C215.497 148.482 214.841 145.155 213.463 143.358C211.953 141.361 210.28 139.997 208.442 139.265C206.604 138.467 204.471 138.067 202.043 138.067C201.452 138.067 200.894 138.101 200.369 138.167C199.91 138.101 199.451 138.067 198.991 138.067C195.25 138.067 192.33 138.666 190.229 139.864C188.195 141.062 186.685 142.825 185.701 145.155C184.716 147.484 184.126 150.379 183.929 153.839V177.996C184.126 181.456 184.716 184.351 185.701 186.68C186.685 189.009 188.195 190.773 190.229 191.97C192.33 193.168 195.25 193.767 198.991 193.767C199.451 193.767 199.91 193.734 200.369 193.667C200.96 193.734 201.518 193.767 202.043 193.767C204.471 193.767 206.736 193.401 208.836 192.669C210.936 191.871 212.675 190.273 214.053 187.878C215.497 185.416 215.989 178.994 215.53 168.612H215.432ZM216.022 123.893C214.578 122.895 213.856 121.63 213.856 120.1H213.364V124.991L216.022 123.893ZM220.452 145.254C219.862 144.19 219.337 143.657 218.877 143.657H218.385C218.385 143.79 218.549 144.489 218.877 145.754H219.369L220.452 145.254ZM240.24 148.948C239.518 148.948 239.157 149.28 239.157 149.946V150.545C239.748 150.545 240.109 150.179 240.24 149.447V148.948ZM233.152 140.164C232.561 139.099 232.036 138.566 231.577 138.566V140.663H232.069L233.152 140.164ZM214.447 137.269L211.691 138.367L212.872 140.463C213.922 139.997 214.447 139.465 214.447 138.866V137.269ZM228.23 130.88C227.179 131.346 226.654 131.878 226.654 132.477V133.575H228.23V130.88ZM219.862 135.771L219.271 133.076H218.188L218.779 134.174V136.969C218.319 136.969 217.729 137.169 217.007 137.568C217.466 138.167 217.696 138.866 217.696 139.664H218.779L219.862 135.771Z" fill="#6933B0"/>
<path d="M153.13 148.585C153.263 145.076 153.793 142.295 154.722 140.242C155.717 138.123 157.938 136.998 161.387 136.865C164.836 136.733 166.892 137.627 167.555 139.547C168.284 141.401 168.749 144.083 168.947 147.592C169.213 151.102 169.345 155.339 169.345 160.306C169.345 165.205 169.213 169.377 168.947 172.82C168.749 175.138 168.251 177.588 167.455 180.17C166.726 182.686 164.57 183.944 160.989 183.944C157.474 183.944 155.319 182.686 154.523 180.17C153.727 177.588 153.263 175.138 153.13 172.82C152.865 169.377 152.732 165.205 152.732 160.306C152.732 155.339 152.865 151.433 153.13 148.585ZM151.936 133.985V129.813H144.376V209.47H152.931V187.719C153.86 190.102 156.513 191.592 160.89 192.188C164.869 192.188 167.953 191.526 170.141 190.202C172.396 188.877 174.054 186.891 175.115 184.242C176.176 181.527 176.806 178.184 177.005 174.211C177.204 170.37 177.304 165.834 177.304 160.603C177.304 155.306 177.204 150.704 177.005 146.798C176.806 142.825 176.176 139.514 175.115 136.865C174.054 134.217 172.396 132.23 170.141 130.906C167.953 129.515 164.968 129.052 161.188 129.515C157.408 129.979 154.324 131.469 151.936 133.985ZM180.487 211.357H139.203V123.357H180.487V211.357Z" fill="#6933B0"/>
<path d="M265.919 201.697L252.315 206.95L263.118 209.374L271.521 204.122L281.524 190.384L270.721 185.132L265.919 201.697Z" fill="#6933B0"/>
<path d="M240.712 198.869H248.714L245.913 201.697L242.712 202.91V204.122L239.111 202.91L240.712 198.869Z" fill="#6933B0"/>
<path d="M269.52 173.415L270.721 177.455L272.321 176.243V170.99L269.52 173.415Z" fill="#6933B0"/>
<path d="M139.881 232L154.686 224.728L156.286 220.283L129.478 229.172L139.881 232Z" fill="#6933B0"/>
<path d="M126.677 214.223L131.079 219.475L134.28 215.839H132.279V213.415L126.677 214.223Z" fill="#6933B0"/>
<path d="M117.475 139.071L125.477 160.485L127.878 158.465L122.276 134.223L117.475 139.071Z" fill="#6933B0"/>
</svg>
