<svg width="251" height="44" viewBox="0 0 251 44" fill="none" xmlns="http://www.w3.org/2000/svg">
<path d="M0.288086 0L250.276 2.49497L237.042 37.9514L207.884 40.0649L207.833 35.5717L196.72 37.8376L203.727 42.8272L11.5742 39.4271L8.1828 24.0525L9.64136 19.7125L17.4046 13.4682L6.90204 15.8473L3.9347 12.7521L0.288086 0Z" fill="#8654CC"/>
<path d="M33.5351 25V13.8H35.3271V18.216H41.1511V13.8H42.9431V25H41.1511V19.896H35.3271V25H33.5351ZM48.3374 16.28C50.4654 16.28 51.6334 17.32 51.6334 19.048V25H49.9854V23.896C49.4414 24.744 48.4494 25.16 47.1854 25.16C45.3134 25.16 44.1774 24.264 44.1774 22.776C44.1774 21.448 44.9934 20.712 46.8654 20.184L48.5614 19.72C49.6494 19.416 49.9694 19.304 49.9694 18.792C49.9694 18.248 49.3774 17.736 48.2574 17.736C47.0094 17.736 46.3214 18.376 46.2574 19.56H44.5774C44.6734 17.432 46.0014 16.28 48.3374 16.28ZM47.3934 23.768C48.9294 23.768 50.0014 22.808 50.0014 21.112V20.552C49.7294 20.76 49.5534 20.84 48.8814 21.032L47.2654 21.496C46.3214 21.752 45.8894 22.088 45.8894 22.696C45.8894 23.368 46.4494 23.768 47.3934 23.768ZM60.4306 16.44V25H58.7666V17.976H54.6226V25H52.9586V16.44H60.4306ZM67.87 16.44H69.502V25H67.87V18.936L63.47 25H61.838V16.44H63.47V22.52L67.87 16.44ZM74.7929 25.16C72.2169 25.16 70.4249 23.352 70.4249 20.712C70.4249 18.088 72.2169 16.28 74.7929 16.28C77.0009 16.28 78.5529 17.592 78.7609 19.64H77.0969C76.8889 18.472 76.0889 17.784 74.7769 17.784C73.1929 17.784 72.1209 18.888 72.1209 20.712C72.1209 22.552 73.1929 23.656 74.7769 23.656C76.2809 23.656 77.2089 22.76 77.3209 21.288H78.9689C78.8729 23.592 77.2249 25.16 74.7929 25.16ZM83.6049 16.28C85.7329 16.28 86.9009 17.32 86.9009 19.048V25H85.2529V23.896C84.7089 24.744 83.7169 25.16 82.4529 25.16C80.5809 25.16 79.4449 24.264 79.4449 22.776C79.4449 21.448 80.2609 20.712 82.1329 20.184L83.8289 19.72C84.9169 19.416 85.2369 19.304 85.2369 18.792C85.2369 18.248 84.6449 17.736 83.5249 17.736C82.2769 17.736 81.5889 18.376 81.5249 19.56H79.8449C79.9409 17.432 81.2689 16.28 83.6049 16.28ZM82.6609 23.768C84.1969 23.768 85.2689 22.808 85.2689 21.112V20.552C84.9969 20.76 84.8209 20.84 84.1489 21.032L82.5329 21.496C81.5889 21.752 81.1569 22.088 81.1569 22.696C81.1569 23.368 81.7169 23.768 82.6609 23.768ZM90.5621 25V17.976H87.6661V16.44H95.1221V17.976H92.2261V25H90.5621ZM100.141 19.368C102.253 19.368 103.389 20.344 103.389 22.152C103.389 23.96 102.157 25 99.9969 25H95.9649V16.44H97.6289V19.368H100.141ZM99.9329 23.48C101.165 23.48 101.757 23.064 101.757 22.184C101.757 21.32 101.197 20.872 100.061 20.872H97.6289V23.48H99.9329ZM111.517 25.16C108.941 25.16 107.181 23.352 107.181 20.712C107.181 18.088 108.941 16.28 111.517 16.28C114.093 16.28 115.853 18.088 115.853 20.712C115.853 23.352 114.093 25.16 111.517 25.16ZM111.517 23.656C113.149 23.656 114.157 22.52 114.157 20.712C114.157 18.92 113.149 17.784 111.517 17.784C109.901 17.784 108.877 18.92 108.877 20.712C108.877 22.52 109.901 23.656 111.517 23.656ZM121.318 16.28C123.814 16.28 125.334 18.008 125.334 20.712C125.334 23.432 123.814 25.16 121.318 25.16C120.118 25.16 119.126 24.728 118.454 23.912V27.72H116.79V16.44H118.454V17.512C119.126 16.712 120.102 16.28 121.318 16.28ZM121.046 23.656C122.71 23.672 123.638 22.568 123.638 20.712C123.638 18.872 122.71 17.768 121.046 17.784C119.43 17.8 118.406 18.92 118.406 20.712C118.406 22.52 119.43 23.64 121.046 23.656ZM132.232 16.44V17.976H127.928V25H126.264V16.44H132.232ZM136.604 16.28C138.732 16.28 139.9 17.32 139.9 19.048V25H138.252V23.896C137.708 24.744 136.716 25.16 135.452 25.16C133.58 25.16 132.444 24.264 132.444 22.776C132.444 21.448 133.26 20.712 135.132 20.184L136.828 19.72C137.916 19.416 138.236 19.304 138.236 18.792C138.236 18.248 137.644 17.736 136.524 17.736C135.276 17.736 134.588 18.376 134.524 19.56H132.844C132.94 17.432 134.268 16.28 136.604 16.28ZM135.66 23.768C137.196 23.768 138.268 22.808 138.268 21.112V20.552C137.996 20.76 137.82 20.84 137.148 21.032L135.532 21.496C134.588 21.752 134.156 22.088 134.156 22.696C134.156 23.368 134.716 23.768 135.66 23.768ZM147.113 16.44H148.777V25H147.113V21.224H142.889V25H141.225V16.44H142.889V19.688H147.113V16.44ZM156.215 16.44H157.847V25H156.215V18.936L151.815 25H150.183V16.44H151.815V22.52L156.215 16.44ZM165.394 20.36C166.306 20.696 166.85 21.416 166.85 22.36C166.85 24.056 165.314 25.16 162.946 25.16C160.242 25.16 158.85 23.88 158.802 21.368H160.45C160.578 23.032 161.298 23.688 162.962 23.688C164.37 23.688 165.218 23.16 165.218 22.344C165.218 21.56 164.626 21.176 163.442 21.176H162.098V19.704H163.458C164.434 19.704 164.898 19.368 164.898 18.808C164.898 18.104 164.226 17.736 162.978 17.736C161.538 17.736 160.882 18.28 160.722 19.608H159.09C159.218 17.416 160.562 16.28 163.026 16.28C165.202 16.28 166.514 17.16 166.514 18.712C166.514 19.48 166.098 20.056 165.394 20.36ZM171.544 16.28C173.672 16.28 174.84 17.32 174.84 19.048V25H173.192V23.896C172.648 24.744 171.656 25.16 170.392 25.16C168.52 25.16 167.384 24.264 167.384 22.776C167.384 21.448 168.2 20.712 170.072 20.184L171.768 19.72C172.856 19.416 173.176 19.304 173.176 18.792C173.176 18.248 172.584 17.736 171.464 17.736C170.216 17.736 169.528 18.376 169.464 19.56H167.784C167.88 17.432 169.208 16.28 171.544 16.28ZM170.6 23.768C172.136 23.768 173.208 22.808 173.208 21.112V20.552C172.936 20.76 172.76 20.84 172.088 21.032L170.472 21.496C169.528 21.752 169.096 22.088 169.096 22.696C169.096 23.368 169.656 23.768 170.6 23.768ZM178.501 25V17.976H175.605V16.44H183.061V17.976H180.165V25H178.501ZM187.76 25.16C185.184 25.16 183.424 23.352 183.424 20.712C183.424 18.088 185.184 16.28 187.76 16.28C190.336 16.28 192.096 18.088 192.096 20.712C192.096 23.352 190.336 25.16 187.76 25.16ZM187.76 23.656C189.392 23.656 190.4 22.52 190.4 20.712C190.4 18.92 189.392 17.784 187.76 17.784C186.144 17.784 185.12 18.92 185.12 20.712C185.12 22.52 186.144 23.656 187.76 23.656ZM197.561 16.28C200.057 16.28 201.577 18.008 201.577 20.712C201.577 23.432 200.057 25.16 197.561 25.16C196.361 25.16 195.369 24.728 194.697 23.912V27.72H193.033V16.44H194.697V17.512C195.369 16.712 196.345 16.28 197.561 16.28ZM197.289 23.656C198.953 23.672 199.881 22.568 199.881 20.712C199.881 18.872 198.953 17.768 197.289 17.784C195.673 17.8 194.649 18.92 194.649 20.712C194.649 22.52 195.673 23.64 197.289 23.656ZM206.186 16.28C208.314 16.28 209.482 17.32 209.482 19.048V25H207.834V23.896C207.29 24.744 206.298 25.16 205.034 25.16C203.162 25.16 202.026 24.264 202.026 22.776C202.026 21.448 202.842 20.712 204.714 20.184L206.41 19.72C207.498 19.416 207.818 19.304 207.818 18.792C207.818 18.248 207.226 17.736 206.106 17.736C204.858 17.736 204.17 18.376 204.106 19.56H202.426C202.522 17.432 203.85 16.28 206.186 16.28ZM205.242 23.768C206.778 23.768 207.85 22.808 207.85 21.112V20.552C207.578 20.76 207.402 20.84 206.73 21.032L205.114 21.496C204.17 21.752 203.738 22.088 203.738 22.696C203.738 23.368 204.298 23.768 205.242 23.768ZM221.815 25H220.167L218.999 18.664L216.807 25H215.431L213.239 18.712L212.071 25H210.455L212.071 16.44H214.039L216.151 22.488L218.247 16.44H220.215L221.815 25Z" fill="white"/>
</svg>
