<svg width="760" height="217" viewBox="0 0 760 217" fill="none" xmlns="http://www.w3.org/2000/svg">
<path fill-rule="evenodd" clip-rule="evenodd" d="M259.259 3.72668C260.02 2.19598 261.185 0.665277 261.844 0.359137C262.554 0.00197317 263.517 -0.100074 264.125 0.10402C266.456 0.971417 266.862 1.83881 285.462 48.117C313.946 118.988 316.278 124.448 320.535 130.112C321.599 131.54 323.373 133.479 324.438 134.295C326.465 135.928 330.519 137.408 332.902 137.408C334.371 137.408 335.892 138.581 335.892 139.704C335.892 140.112 335.385 140.775 334.777 141.184C333.763 141.898 330.621 142 310.55 142C287.49 142 284.094 141.745 283.486 140.214C283.08 139.041 283.689 137.918 284.905 137.714C291.392 136.541 292.102 136.336 292.964 135.316C293.42 134.704 293.825 133.938 293.825 133.581C293.825 132.357 279.583 95.3646 278.975 94.9565C278.164 94.4462 238.48 94.4462 237.669 94.9565C236.908 95.4667 226.823 121.693 225.353 126.948C224.035 131.744 224.086 133.938 225.606 135.673C226.67 137 227.177 137.102 231.283 137.357C233.766 137.561 236.097 137.867 236.452 138.071C237.415 138.735 237.162 140.877 236.098 141.49C235.439 141.796 227.532 142 213.797 142H192.46L191.699 140.775C190.179 138.479 191.091 137.765 196.261 137.153C199.758 136.745 203.762 134.653 205.84 132.255C206.803 131.132 208.374 128.53 209.337 126.54C210.3 124.499 221.653 96.6913 234.526 64.6996C247.4 32.7079 258.55 5.25738 259.259 3.72668ZM275.427 84.3436L267.166 61.8423C262.655 49.4436 258.803 39.2389 258.702 39.1369C258.449 38.8818 257.739 40.6676 248.211 65.9242C244.612 75.6186 241.622 83.6803 241.622 83.9354C241.622 84.1395 249.224 84.3436 258.55 84.3436H275.427ZM34.1267 4.33896C34.3295 3.42054 34.887 2.09393 35.4445 1.3796C36.9143 -0.457237 39.0937 -0.151097 40.9689 2.19598C41.7292 3.16542 53.5889 27.0444 67.324 55.2603C81.0083 83.4762 92.3105 106.59 92.3612 106.692C92.4119 106.743 95.8076 99.8547 99.8623 91.3848C135.188 17.7581 142.436 2.75724 143.297 1.53267C144.007 0.56323 144.818 0.155043 145.832 0.155043C147.555 0.155043 148.619 1.07346 149.329 3.31849C149.633 4.23691 153.738 31.2793 158.502 63.424C163.266 95.5687 167.473 123.274 167.879 124.958C168.943 129.703 170.109 132.152 171.984 133.785C173.758 135.367 179.333 137.408 181.816 137.408C184.35 137.408 185.972 138.275 185.769 139.551C185.465 141.898 184.553 142 159.719 142C139.648 142 136.252 141.898 135.695 141.235C134.783 140.112 135.492 137.969 136.861 137.714L137.104 137.663C143.959 136.234 144.062 136.213 144.463 134.346C144.767 133.02 143.449 122.203 139.496 93.5278C136.557 72.047 133.972 53.5255 133.769 52.3519C133.414 50.209 133.364 50.311 122.011 73.7818C96.0104 127.713 89.675 140.367 88.3573 141.235C85.5697 143.071 85.0122 142.306 75.7373 124.652C67.2226 108.478 58.8092 91.3338 48.7234 69.955C44.314 60.4647 40.5635 52.7091 40.4114 52.7091C40.1073 52.7091 30.9337 122.509 30.4269 128.224C29.9201 134.857 31.6433 136.489 40.4621 137.408C42.9455 137.663 45.1756 138.02 45.4797 138.173C46.3413 138.735 46.0372 140.929 45.0235 141.49C44.3647 141.796 36.5088 142 22.9765 142C2.34866 142 1.89252 142 0.828183 140.929C0.270673 140.367 -0.0841065 139.602 0.017259 139.296C0.372038 138.173 2.60208 137.408 5.44031 137.408C10.6606 137.408 13.2455 135.061 14.7153 129.142C15.1714 127.356 19.6315 98.9363 24.6998 65.9752C29.7173 33.0141 33.9747 5.25738 34.1267 4.33896ZM608.869 2.65519C609.275 1.83881 609.984 0.971417 610.44 0.7163C611.91 -0.151097 612.67 0.0529966 614.343 1.83881C615.357 2.96133 625.088 22.4012 641.002 55.1582C654.788 83.5272 666.191 106.743 666.343 106.794C666.495 106.794 677.899 83.2211 691.685 54.3929C710.285 15.6151 717.178 1.73677 718.192 1.02244C719.307 0.155043 719.763 0.0529965 720.777 0.56323C721.486 0.86937 722.398 1.78779 722.804 2.60417C723.26 3.52259 727.163 28.3199 732.484 63.9853C737.35 96.9464 741.709 125.264 742.165 126.948C743.28 131.234 745.104 134.142 747.334 135.316C749.919 136.643 754.582 137.918 756.711 137.918C758.535 137.918 760.309 139.092 759.954 140.163C759.397 141.898 757.623 142 733.549 141.847C711.856 141.745 709.728 141.694 709.272 140.877C708.41 139.551 710.133 138.02 712.921 137.663C717.533 137 718.547 136.285 718.547 133.428C718.597 130.928 707.802 52.0458 707.396 51.5356C707.194 51.3315 697.665 70.6183 686.16 94.3952C674.655 118.172 664.62 138.581 663.86 139.704C662.694 141.439 662.238 141.745 660.768 141.745C658.487 141.745 658.082 141.082 649.06 123.785C640.191 106.845 632.943 92.2012 622.503 69.955C618.043 60.5157 614.343 52.8622 614.241 52.9642C613.785 53.4234 604.51 126.591 604.51 129.907C604.51 133.428 604.662 134.04 605.727 135.112C607.197 136.592 609.68 137.306 614.647 137.714C620.171 138.224 621.692 139.398 619.107 141.184C618.144 141.898 615.103 142 596.655 142C574.456 142 574.101 141.949 574.101 139.857C574.101 138.581 575.368 138.122 579.574 137.765C581.703 137.612 583.882 137.102 584.541 136.643C586.214 135.571 587.633 133.173 588.545 130.01C588.951 128.581 593.512 99.7016 598.682 65.7711C603.902 31.8406 608.464 3.42054 608.869 2.65519ZM337.767 6.89013C337.26 5.81864 337.362 5.5125 338.375 4.69612C339.49 3.7777 340.808 3.72668 364.781 3.72668C391.44 3.72668 393.163 3.87975 393.163 5.97171C393.163 7.55343 392.2 8.31878 390.122 8.31878C387.74 8.31878 384.801 9.18618 384.04 10.1046C383.128 11.1761 384.04 13.4211 387.943 19.9011C393.772 29.5955 411.004 55.8215 411.46 55.6685C412.372 55.3623 434.774 22.0951 437.055 17.7071C439.183 13.5742 439.386 10.7679 437.561 9.59437C436.903 9.13516 434.723 8.62492 432.696 8.47185C429.401 8.21674 427.628 7.45139 427.628 6.32887C427.628 6.12478 427.932 5.5125 428.337 4.95124C429.047 4.03282 429.959 3.9818 449.269 3.82873C470.809 3.72668 471.823 3.82873 472.127 6.1758C472.33 7.55343 471.265 8.01264 466.248 8.77799C461.433 9.54334 459.152 10.7169 456.365 14.0334C454.591 16.1764 420.279 63.9853 418.859 66.3324C418.657 66.6895 424.941 76.486 434.267 90.3133C459.912 128.275 461.382 130.265 464.93 133.02C467.92 135.316 472.076 136.898 476.232 137.255C478.057 137.408 479.983 137.765 480.49 138.02C481.655 138.632 481.605 140.826 480.388 141.49C479.729 141.796 470.252 142 453.121 142C430.162 142 426.715 141.898 425.702 141.184C424.435 140.265 424.232 138.837 425.347 137.918C425.752 137.561 427.729 137.102 429.706 136.898C434.115 136.387 435.129 135.622 434.368 133.224C433.557 130.52 405.935 87.2519 405.074 87.2519C404.567 87.2519 379.023 126.336 377.452 129.499C374.867 134.806 375.83 136.796 381.101 137.357C385.814 137.867 387.436 139.449 384.953 141.184C383.99 141.898 381.101 142 363.919 142C346.535 142 343.95 141.898 343.292 141.184C341.568 139.5 342.734 138.02 346.282 137.357C350.184 136.643 354.138 134.398 357.381 131.081C359.713 128.683 387.487 90.6705 396.66 77.3024L397.826 75.5676L378.82 46.8924C358.142 15.6661 356.52 13.6762 350.387 10.87C348.512 10.0026 345.319 9.13516 342.734 8.72697C338.882 8.16571 338.223 7.96162 337.767 6.89013ZM494.681 7.19627C493.617 6.02273 494.225 4.69612 496.1 4.18589C496.759 3.9818 508.517 3.82873 522.151 3.7777C547.948 3.72668 549.266 3.82873 549.672 5.86966C549.976 7.40036 548.455 8.16571 544.401 8.47185C536.646 9.13516 535.227 10.8189 534.568 20.1562C533.96 28.473 533.96 109.702 534.568 121.08C535.075 130.928 535.531 133.122 537.254 134.755C538.876 136.285 541.005 136.847 546.985 137.255C549.773 137.408 552.561 137.765 553.219 137.969C554.639 138.53 554.689 140.163 553.219 141.184C552.206 141.898 548.607 142 524.381 142C498.381 142 496.607 141.949 495.542 141.082C494.732 140.418 494.478 139.857 494.732 139.041C495.137 137.867 495.796 137.663 501.776 137.153C507.96 136.541 508.872 134.908 509.734 122.764C510.393 113.682 510.393 23.7789 509.734 18.0642C508.923 10.8699 506.997 9.03311 499.648 8.47185C496.556 8.26776 495.34 7.96162 494.681 7.19627ZM304.646 215.12C306.694 216.08 308.966 216.56 311.462 216.56C313.862 216.56 316.07 216.096 318.086 215.168C320.134 214.24 321.894 212.976 323.366 211.376C324.87 209.744 326.038 207.904 326.87 205.856C327.702 203.776 328.118 201.616 328.118 199.376C328.118 197.2 327.718 195.088 326.918 193.04C326.118 190.992 324.998 189.136 323.558 187.472C322.118 185.808 320.374 184.48 318.326 183.488C316.31 182.496 314.07 182 311.606 182C309.174 182 306.934 182.48 304.886 183.44C302.87 184.368 301.11 185.648 299.606 187.28C298.134 188.88 296.966 190.72 296.102 192.8C295.27 194.848 294.854 197.008 294.854 199.28C294.854 201.456 295.254 203.584 296.054 205.664C296.854 207.712 297.974 209.568 299.414 211.232C300.886 212.864 302.63 214.16 304.646 215.12ZM302.246 203.552C301.798 202.176 301.574 200.752 301.574 199.28C301.574 197.872 301.782 196.496 302.198 195.152C302.646 193.808 303.286 192.592 304.118 191.504C304.95 190.416 305.974 189.552 307.19 188.912C308.438 188.24 309.878 187.904 311.51 187.904C313.046 187.904 314.422 188.224 315.638 188.864C316.886 189.472 317.926 190.32 318.758 191.408C319.622 192.464 320.278 193.68 320.726 195.056C321.206 196.4 321.446 197.808 321.446 199.28C321.446 200.656 321.222 202.032 320.774 203.408C320.358 204.752 319.734 205.984 318.902 207.104C318.07 208.192 317.03 209.072 315.782 209.744C314.534 210.384 313.11 210.704 311.51 210.704C309.942 210.704 308.534 210.4 307.286 209.792C306.07 209.152 305.03 208.304 304.166 207.248C303.334 206.16 302.694 204.928 302.246 203.552ZM40.792 193.952V216.32H47.416V182.24H40.36L30.184 201.632L20.104 182.24H13V216.32H19.624V193.952L28.36 210.608H32.056L40.792 193.952ZM95.2832 182.24H88.5632L75.9872 216.32H82.8032L85.9232 207.824H97.8272L100.995 216.32H107.811L95.2832 182.24ZM91.9232 189.104L96.6272 203.168H87.0272L91.9232 189.104ZM139.869 182.24L148.317 194.816L156.717 182.24H163.917L152.109 199.52L163.533 216.32H156.333L148.317 204.224L140.253 216.32H133.005L144.429 199.52L132.621 182.24H139.869ZM192.117 182.24V216.32H198.74V182.24H192.117ZM258.411 216.32V193.952L249.675 210.608H245.979L237.243 193.952V216.32H230.619V182.24H237.723L247.803 201.632L257.979 182.24H265.035V216.32H258.411ZM364.591 194.432V216.32H357.967V182.24H363.247L380.863 204.704V182.288H387.487V216.32H381.967L364.591 194.432ZM425.969 182.24H419.345V216.32H443.345V210.512H425.969V182.24ZM472.144 182.24H478.768V216.32H472.144V182.24ZM517.27 216.32V194.432L534.646 216.32H540.166V182.288H533.542V204.704L515.926 182.24H510.646V216.32H517.27ZM595.688 210.512V216.32H572.024V182.24H595.256V188.048H578.648V196.256H593V201.632H578.648V210.512H595.688ZM624.852 209.408V216.32H630.132V209.408H624.852ZM661.169 182.24H676.241C677.809 182.24 679.249 182.56 680.561 183.2C681.905 183.84 683.057 184.704 684.017 185.792C685.009 186.88 685.761 188.096 686.273 189.44C686.817 190.784 687.089 192.16 687.089 193.568C687.089 195.008 686.833 196.4 686.321 197.744C685.841 199.056 685.137 200.208 684.209 201.2C683.281 202.192 682.193 202.96 680.945 203.504L688.721 216.32H681.425L674.417 204.896H667.793V216.32H661.169V182.24ZM667.793 199.088H676.097C676.929 199.088 677.665 198.848 678.305 198.368C678.945 197.856 679.457 197.184 679.841 196.352C680.225 195.52 680.417 194.592 680.417 193.568C680.417 192.48 680.193 191.536 679.745 190.736C679.297 189.904 678.721 189.248 678.017 188.768C677.345 188.288 676.609 188.048 675.809 188.048H667.793V199.088ZM725.206 215.216C727.126 216.112 729.446 216.56 732.166 216.56C734.79 216.56 737.046 216.128 738.934 215.264C740.822 214.368 742.358 213.152 743.542 211.616C744.758 210.048 745.638 208.24 746.182 206.192C746.758 204.144 747.046 201.952 747.046 199.616V182.24H740.47V199.616C740.47 200.992 740.326 202.352 740.038 203.696C739.75 205.008 739.286 206.192 738.646 207.248C738.038 208.304 737.19 209.152 736.102 209.792C735.046 210.4 733.718 210.704 732.118 210.704C730.55 210.704 729.238 210.4 728.182 209.792C727.126 209.184 726.278 208.352 725.638 207.296C724.998 206.24 724.534 205.056 724.246 203.744C723.99 202.4 723.862 201.024 723.862 199.616V182.24H717.238V199.616C717.238 201.824 717.51 203.952 718.054 206C718.598 208.016 719.446 209.824 720.598 211.424C721.782 213.024 723.318 214.288 725.206 215.216Z" fill="black"/>
</svg>
