<svg width="231" height="44" viewBox="0 0 231 44" fill="none" xmlns="http://www.w3.org/2000/svg">
<path d="M0.290039 0L230 2.5L216.781 38.1094L187.658 40.2327L187.607 35.7203L176.508 37.9962L183.506 43.0071L11.561 39.5966L8.17432 24.1559L9.63128 19.7972L17.3854 13.5258L6.89541 15.9154L3.93177 12.8069L0.290039 0Z" fill="#8654CC"/>
<path d="M44.914 18.6423C46.098 19.1063 46.706 20.0663 46.706 21.4423C46.706 23.5543 45.234 24.7383 42.578 24.7383H37.538V13.5383H42.898C45.138 13.5383 46.322 14.5143 46.322 16.3543C46.322 17.4423 45.842 18.2103 44.914 18.6423ZM39.33 15.1703V17.8743H42.722C43.97 17.8743 44.562 17.4103 44.562 16.4823C44.562 15.6023 43.986 15.1703 42.834 15.1703H39.33ZM42.498 23.0903C44.13 23.0903 44.914 22.4983 44.914 21.2983C44.914 20.0983 44.146 19.4903 42.658 19.4903H39.33V23.0903H42.498ZM51.8132 24.8983C49.2372 24.8983 47.4772 23.0903 47.4772 20.4503C47.4772 17.8263 49.2372 16.0183 51.8132 16.0183C54.3892 16.0183 56.1492 17.8263 56.1492 20.4503C56.1492 23.0903 54.3892 24.8983 51.8132 24.8983ZM51.8132 23.3943C53.4452 23.3943 54.4532 22.2583 54.4532 20.4503C54.4532 18.6583 53.4452 17.5223 51.8132 17.5223C50.1972 17.5223 49.1732 18.6583 49.1732 20.4503C49.1732 22.2583 50.1972 23.3943 51.8132 23.3943ZM60.9745 24.8983C58.3985 24.8983 56.6065 23.0903 56.6065 20.4503C56.6065 17.8263 58.3985 16.0183 60.9745 16.0183C63.1825 16.0183 64.7345 17.3303 64.9425 19.3783H63.2785C63.0705 18.2103 62.2705 17.5223 60.9585 17.5223C59.3745 17.5223 58.3025 18.6263 58.3025 20.4503C58.3025 22.2903 59.3745 23.3943 60.9585 23.3943C62.4625 23.3943 63.3905 22.4983 63.5025 21.0263H65.1505C65.0545 23.3303 63.4065 24.8983 60.9745 24.8983ZM69.9945 24.8983C67.4185 24.8983 65.6265 23.0903 65.6265 20.4503C65.6265 17.8263 67.4185 16.0183 69.9945 16.0183C72.2025 16.0183 73.7545 17.3303 73.9625 19.3783H72.2985C72.0905 18.2103 71.2905 17.5223 69.9785 17.5223C68.3945 17.5223 67.3225 18.6263 67.3225 20.4503C67.3225 22.2903 68.3945 23.3943 69.9785 23.3943C71.4825 23.3943 72.4105 22.4983 72.5225 21.0263H74.1705C74.0745 23.3303 72.4265 24.8983 69.9945 24.8983ZM77.3063 24.7383V17.7143H74.4103V16.1783H81.8663V17.7143H78.9703V24.7383H77.3063ZM86.2328 16.0183C88.3608 16.0183 89.5288 17.0583 89.5288 18.7863V24.7383H87.8808V23.6343C87.3368 24.4823 86.3448 24.8983 85.0808 24.8983C83.2088 24.8983 82.0728 24.0023 82.0728 22.5143C82.0728 21.1863 82.8888 20.4503 84.7608 19.9223L86.4568 19.4583C87.5448 19.1543 87.8648 19.0423 87.8648 18.5303C87.8648 17.9863 87.2728 17.4743 86.1528 17.4743C84.9048 17.4743 84.2168 18.1143 84.1528 19.2983H82.4728C82.5688 17.1703 83.8968 16.0183 86.2328 16.0183ZM85.2888 23.5063C86.8248 23.5063 87.8968 22.5463 87.8968 20.8503V20.2903C87.6248 20.4983 87.4488 20.5783 86.7768 20.7703L85.1608 21.2343C84.2168 21.4903 83.7848 21.8263 83.7848 22.4343C83.7848 23.1063 84.3448 23.5063 85.2888 23.5063ZM96.742 16.1783H98.406V24.7383H96.742V20.9623H92.518V24.7383H90.854V16.1783H92.518V19.4263H96.742V16.1783ZM103.668 24.8983C101.092 24.8983 99.3315 23.0903 99.3315 20.4503C99.3315 17.8263 101.092 16.0183 103.668 16.0183C106.244 16.0183 108.004 17.8263 108.004 20.4503C108.004 23.0903 106.244 24.8983 103.668 24.8983ZM103.668 23.3943C105.3 23.3943 106.308 22.2583 106.308 20.4503C106.308 18.6583 105.3 17.5223 103.668 17.5223C102.052 17.5223 101.028 18.6583 101.028 20.4503C101.028 22.2583 102.052 23.3943 103.668 23.3943ZM114.973 20.1463C115.853 20.5143 116.301 21.2023 116.301 22.2103C116.301 23.8103 115.197 24.7383 113.197 24.7383H108.941V16.1783H113.325C115.037 16.1783 115.981 16.9463 115.981 18.4023C115.981 19.2023 115.629 19.7943 114.973 20.1463ZM110.605 17.6183V19.5223H113.133C113.965 19.5223 114.397 19.2343 114.397 18.5623C114.397 17.9063 113.997 17.6183 113.229 17.6183H110.605ZM113.133 23.2663C114.173 23.2663 114.701 22.8823 114.701 22.0983C114.701 21.2983 114.205 20.8983 113.245 20.8983H110.605V23.2663H113.133ZM123.337 16.1783H124.969V24.7383H123.337V18.6743L118.937 24.7383H117.305V16.1783H118.937V22.2583L123.337 16.1783ZM128.708 24.7383V17.7143H125.812V16.1783H133.268V17.7143H130.372V24.7383H128.708ZM138.286 19.1063C140.398 19.1063 141.534 20.0823 141.534 21.8903C141.534 23.6983 140.302 24.7383 138.142 24.7383H134.11V16.1783H135.774V19.1063H138.286ZM138.078 23.2183C139.31 23.2183 139.902 22.8023 139.902 21.9223C139.902 21.0583 139.342 20.6103 138.206 20.6103H135.774V23.2183H138.078ZM153.279 16.1783V24.7383H151.615V17.7143H147.471V24.7383H145.807V16.1783H153.279ZM158.366 16.0183C160.494 16.0183 161.662 17.0583 161.662 18.7863V24.7383H160.014V23.6343C159.47 24.4823 158.478 24.8983 157.214 24.8983C155.342 24.8983 154.206 24.0023 154.206 22.5143C154.206 21.1863 155.022 20.4503 156.894 19.9223L158.59 19.4583C159.678 19.1543 159.998 19.0423 159.998 18.5303C159.998 17.9863 159.406 17.4743 158.286 17.4743C157.038 17.4743 156.35 18.1143 156.286 19.2983H154.606C154.702 17.1703 156.03 16.0183 158.366 16.0183ZM157.422 23.5063C158.958 23.5063 160.03 22.5463 160.03 20.8503V20.2903C159.758 20.4983 159.582 20.5783 158.91 20.7703L157.294 21.2343C156.35 21.4903 155.918 21.8263 155.918 22.4343C155.918 23.1063 156.478 23.5063 157.422 23.5063ZM167.515 16.0183C170.011 16.0183 171.531 17.7463 171.531 20.4503C171.531 23.1703 170.011 24.8983 167.515 24.8983C166.315 24.8983 165.323 24.4663 164.651 23.6503V27.4583H162.987V16.1783H164.651V17.2503C165.323 16.4503 166.299 16.0183 167.515 16.0183ZM167.243 23.3943C168.907 23.4103 169.835 22.3063 169.835 20.4503C169.835 18.6103 168.907 17.5063 167.243 17.5223C165.627 17.5383 164.603 18.6583 164.603 20.4503C164.603 22.2583 165.627 23.3783 167.243 23.3943ZM176.316 24.8983C173.74 24.8983 171.98 23.0903 171.98 20.4503C171.98 17.8263 173.74 16.0183 176.316 16.0183C178.892 16.0183 180.652 17.8263 180.652 20.4503C180.652 23.0903 178.892 24.8983 176.316 24.8983ZM176.316 23.3943C177.948 23.3943 178.956 22.2583 178.956 20.4503C178.956 18.6583 177.948 17.5223 176.316 17.5223C174.7 17.5223 173.676 18.6583 173.676 20.4503C173.676 22.2583 174.7 23.3943 176.316 23.3943ZM189.51 16.1783V24.7383H187.83V17.7143H184.31V19.3943C184.31 23.3623 183.75 24.8023 181.398 24.8023H180.822V23.2183H181.158C182.31 23.2183 182.646 22.5463 182.646 19.3943V16.1783H189.51ZM195.098 19.1063C197.21 19.1063 198.346 20.0823 198.346 21.8903C198.346 23.6983 197.114 24.7383 194.954 24.7383H190.922V16.1783H192.586V19.1063H195.098ZM194.89 23.2183C196.122 23.2183 196.714 22.8023 196.714 21.9223C196.714 21.0583 196.154 20.6103 195.018 20.6103H192.586V23.2183H194.89Z" fill="white"/>
</svg>
