<svg width="265" height="35" viewBox="0 0 265 35" fill="none" xmlns="http://www.w3.org/2000/svg">
<path d="M253.345 3.1082L202.796 0L9.71874 3.1082L12.9451 18.8659L12.9454 34.9999L242.414 34.9999L251.453 32.5832L248.493 29.2101L244.547 29.4173L248.472 25.544L246.492 24.3924L249.864 26.3539L254.938 23.8348L253.345 3.1082Z" fill="#8654CC"/>
<path d="M48.936 16.856C50.712 17.552 51.624 18.992 51.624 21.056C51.624 24.224 49.416 26 45.432 26H37.872V9.2H45.912C49.272 9.2 51.048 10.664 51.048 13.424C51.048 15.056 50.328 16.208 48.936 16.856ZM40.56 11.648V15.704H45.648C47.52 15.704 48.408 15.008 48.408 13.616C48.408 12.296 47.544 11.648 45.816 11.648H40.56ZM45.312 23.528C47.76 23.528 48.936 22.64 48.936 20.84C48.936 19.04 47.784 18.128 45.552 18.128H40.56V23.528H45.312ZM59.5247 26.24C55.6607 26.24 53.0207 23.528 53.0207 19.568C53.0207 15.632 55.6607 12.92 59.5247 12.92C63.3887 12.92 66.0287 15.632 66.0287 19.568C66.0287 23.528 63.3887 26.24 59.5247 26.24ZM59.5247 23.984C61.9727 23.984 63.4847 22.28 63.4847 19.568C63.4847 16.88 61.9727 15.176 59.5247 15.176C57.1007 15.176 55.5647 16.88 55.5647 19.568C55.5647 22.28 57.1007 23.984 59.5247 23.984ZM73.5068 26.24C69.6428 26.24 66.9548 23.528 66.9548 19.568C66.9548 15.632 69.6428 12.92 73.5068 12.92C76.8188 12.92 79.1468 14.888 79.4588 17.96H76.9628C76.6508 16.208 75.4508 15.176 73.4828 15.176C71.1068 15.176 69.4988 16.832 69.4988 19.568C69.4988 22.328 71.1068 23.984 73.4828 23.984C75.7388 23.984 77.1308 22.64 77.2988 20.432H79.7708C79.6268 23.888 77.1548 26.24 73.5068 26.24ZM87.2768 26.24C83.4128 26.24 80.7248 23.528 80.7248 19.568C80.7248 15.632 83.4128 12.92 87.2768 12.92C90.5888 12.92 92.9168 14.888 93.2288 17.96H90.7328C90.4208 16.208 89.2208 15.176 87.2528 15.176C84.8768 15.176 83.2688 16.832 83.2688 19.568C83.2688 22.328 84.8768 23.984 87.2528 23.984C89.5088 23.984 90.9008 22.64 91.0688 20.432H93.5408C93.3968 23.888 90.9248 26.24 87.2768 26.24ZM98.4844 26V15.464H94.1404V13.16H105.324V15.464H100.98V26H98.4844ZM112.114 12.92C115.306 12.92 117.058 14.48 117.058 17.072V26H114.586V24.344C113.77 25.616 112.282 26.24 110.386 26.24C107.578 26.24 105.874 24.896 105.874 22.664C105.874 20.672 107.098 19.568 109.906 18.776L112.45 18.08C114.082 17.624 114.562 17.456 114.562 16.688C114.562 15.872 113.674 15.104 111.994 15.104C110.122 15.104 109.09 16.064 108.994 17.84H106.474C106.618 14.648 108.61 12.92 112.114 12.92ZM110.698 24.152C113.002 24.152 114.61 22.712 114.61 20.168V19.328C114.202 19.64 113.938 19.76 112.93 20.048L110.506 20.744C109.09 21.128 108.442 21.632 108.442 22.544C108.442 23.552 109.282 24.152 110.698 24.152ZM128.118 13.16H130.614V26H128.118V20.336H121.782V26H119.286V13.16H121.782V18.032H128.118V13.16ZM138.746 26.24C134.882 26.24 132.242 23.528 132.242 19.568C132.242 15.632 134.882 12.92 138.746 12.92C142.61 12.92 145.25 15.632 145.25 19.568C145.25 23.528 142.61 26.24 138.746 26.24ZM138.746 23.984C141.194 23.984 142.706 22.28 142.706 19.568C142.706 16.88 141.194 15.176 138.746 15.176C136.322 15.176 134.786 16.88 134.786 19.568C134.786 22.28 136.322 23.984 138.746 23.984ZM155.944 19.112C157.264 19.664 157.936 20.696 157.936 22.208C157.936 24.608 156.28 26 153.28 26H146.896V13.16H153.472C156.04 13.16 157.456 14.312 157.456 16.496C157.456 17.696 156.928 18.584 155.944 19.112ZM149.392 15.32V18.176H153.184C154.432 18.176 155.08 17.744 155.08 16.736C155.08 15.752 154.48 15.32 153.328 15.32H149.392ZM153.184 23.792C154.744 23.792 155.536 23.216 155.536 22.04C155.536 20.84 154.792 20.24 153.352 20.24H149.392V23.792H153.184ZM171.632 13.16V26H169.112V15.464H163.832V17.984C163.832 23.936 162.992 26.096 159.464 26.096H158.6V23.72H159.104C160.832 23.72 161.336 22.712 161.336 17.984V13.16H171.632ZM183.447 21.2H185.943C185.535 24.272 183.231 26.24 179.775 26.24C175.959 26.24 173.271 23.528 173.271 19.568C173.271 15.632 175.959 12.92 179.799 12.92C183.375 12.92 185.751 15.224 185.751 18.92C185.751 19.448 185.727 19.832 185.727 19.832H175.815C175.911 22.4 177.447 23.984 179.775 23.984C181.863 23.984 183.087 22.976 183.447 21.2ZM179.799 15.128C177.951 15.128 176.607 16.136 176.055 17.84H183.279C182.943 16.136 181.719 15.128 179.799 15.128ZM196.523 13.16H199.019V26H196.523V20.336H190.187V26H187.691V13.16H190.187V18.032H196.523V13.16ZM210.415 13.16H212.863V26H210.415V16.904L203.815 26H201.367V13.16H203.815V22.28L210.415 13.16ZM224.663 21.2H227.159C226.751 24.272 224.447 26.24 220.991 26.24C217.175 26.24 214.487 23.528 214.487 19.568C214.487 15.632 217.175 12.92 221.015 12.92C224.591 12.92 226.967 15.224 226.967 18.92C226.967 19.448 226.943 19.832 226.943 19.832H217.031C217.127 22.4 218.663 23.984 220.991 23.984C223.079 23.984 224.303 22.976 224.663 21.2ZM221.015 15.128C219.167 15.128 217.823 16.136 217.271 17.84H224.495C224.159 16.136 222.935 15.128 221.015 15.128Z" fill="white"/>
<path d="M0 2.39241L2.44053 7L3.66079 6.00316L2.44053 0L0 2.39241Z" fill="#8654CC"/>
<path d="M262.729 25.1259L257.541 25.8281L259.039 24.0346L260.978 23.0904L260.841 22.4271L263.312 22.7744L262.729 25.1259Z" fill="#8654CC"/>
<path d="M256.708 29.7314L255.476 27.6256L254.574 28.4294L255.165 31.3037L256.708 29.7314Z" fill="#8654CC"/>
</svg>
