<svg width="254" height="184" viewBox="0 0 254 184" fill="none" xmlns="http://www.w3.org/2000/svg">
<rect y="23" width="239" height="161" rx="10" transform="rotate(-5.40992 0 23)" fill="#131313"/>
<g clip-path="url(#clip0_2517_3)">
<path d="M211.135 99.5703L198.062 83.4523L193.225 90.7839L201.376 100.685L211.135 99.5703Z" fill="#FFD301"/>
<path d="M185.232 87.8778L205.085 59.2482L194.978 60.4022L183.871 75.9551L179.864 40.859L179.857 40.8023L170.941 41.8203L177.968 103.357L186.884 102.339L185.232 87.8778Z" fill="#FFD301"/>
<path d="M93.7184 115.028L82.2941 116.332L64.1513 93.3861L52.9905 94.6604L55.764 118.951L46.0378 120.062L39.1963 60.1445L63.4268 57.3778C65.3883 57.1539 67.3821 57.3568 69.2855 57.7752L64.4073 66.2886L49.9395 67.9406L52.0197 86.1587L66.4592 84.5099C68.5989 84.2656 70.5795 83.1659 72.0514 81.6034C73.9437 79.5869 74.8041 76.8392 74.4919 74.1763C74.3284 72.8169 73.8648 71.5247 73.1489 70.3965L77.8293 62.3445C80.8055 65.1832 82.713 68.9805 83.2161 73.135C83.8305 78.3719 82.1106 83.5882 78.4981 87.4375C77.2246 88.7969 75.7658 89.9355 74.1801 90.826L93.7184 115.028Z" fill="#FFD301"/>
<path d="M109.462 136.196L102.168 137.029L101.752 133.386L107.215 132.762C107.369 132.744 107.445 132.908 107.849 132.849L107.54 130.149C107.139 130.228 107.095 130.315 106.937 130.333L101.474 130.956L101.058 127.313L108.353 126.48L108.045 123.784C108.045 123.784 108.053 123.783 108.061 123.782C108.246 123.777 108.129 123.762 108.042 123.755L108.029 123.642L97.8975 124.799L99.6541 140.183L109.786 139.026L109.472 136.281C109.472 136.281 109.48 136.28 109.488 136.279C109.673 136.275 109.556 136.259 109.469 136.253L109.462 136.188L109.462 136.196Z" fill="#FFD301"/>
<path d="M54.8076 129.842L52.0405 130.31L48.17 146.066L51.3877 145.698L52.0327 142.754L57.8685 142.087C57.9617 142.077 58.0633 142.176 58.1561 142.161L59.5537 144.766L62.8161 144.393L54.906 130.093L54.8116 129.841L54.8076 129.842ZM52.702 139.806L54.0135 134.501L56.7141 139.348L52.702 139.806Z" fill="#FFD301"/>
<path d="M76.5606 127.241L66.2832 128.414L68.0398 143.798L71.2819 143.428L70.5423 136.95L75.3325 136.404C75.4783 136.387 75.8287 136.507 75.8268 136.491L75.518 133.786C75.5217 133.819 75.205 133.957 75.0551 133.974L70.2649 134.521L69.8489 130.878L76.8842 130.074C77.0868 130.051 77.1422 130.033 77.5461 129.974L77.2373 127.27C76.8357 127.349 76.7637 127.221 76.5611 127.245L76.5606 127.241Z" fill="#FFD301"/>
<path d="M82.0111 129.488L86.0637 129.025L87.4967 141.576L90.3335 141.252L89.7418 136.07L89.5759 134.616L88.9786 129.386L88.9005 128.702L92.9531 128.239L92.6295 125.405L81.6875 126.654L82.0111 129.488Z" fill="#FFD301"/>
<path d="M124.9 130.312C125.866 129.283 126.323 127.889 126.159 126.489C125.995 125.089 125.217 123.775 124.036 122.999C123.104 122.384 121.969 122.05 120.863 122.176L114.111 122.947L115.868 138.331L118.705 138.008L118.058 132.34L120.984 132.006L125.298 137.255L128.67 136.87L123.977 131.073C124.309 130.859 124.621 130.606 124.899 130.308L124.9 130.312ZM122.923 128.458C122.582 128.821 122.123 129.005 121.629 129.061L117.726 129.507L117.264 125.458L121.178 125.011C121.665 124.956 122.156 125.055 122.561 125.325C123.076 125.664 123.412 126.2 123.486 126.815C123.556 127.426 123.354 127.995 122.919 128.459L122.923 128.458Z" fill="#FFD301"/>
<path d="M192.579 122.478C193.545 121.449 194.002 120.056 193.838 118.655C193.674 117.255 192.902 115.994 191.721 115.218C190.789 114.603 189.66 114.322 188.554 114.448L181.786 115.221L183.543 130.605L186.38 130.281L185.732 124.613L188.671 124.278L192.985 129.527L196.357 129.142L191.658 123.293C191.99 123.078 192.296 122.769 192.574 122.474L192.579 122.478ZM190.61 120.693C190.269 121.056 189.814 121.28 189.32 121.337L185.405 121.784L184.943 117.735L188.874 117.286C189.36 117.231 189.846 117.278 190.25 117.548C190.765 117.887 191.099 118.398 191.173 119.009C191.242 119.62 191.045 120.229 190.61 120.693Z" fill="#FFD301"/>
<path d="M207.596 118.7L211.812 111.796L208.574 112.166L203.685 120.045L202.86 112.819L200.023 113.143L201.78 128.527L204.617 128.203L204.163 124.231L205.999 121.29L211.089 127.464L214.477 127.077L207.596 118.7Z" fill="#FFD301"/>
<path d="M153.883 128.788L150.719 121.356L149.678 118.891L148.114 119.07L147.632 121.721L146.175 129.598L141.407 119.836L138.311 120.189L145.202 134.987L148.371 134.625L149.771 126.792L152.902 134.108L156.075 133.746L159.485 117.772L156.422 118.121L153.883 128.788Z" fill="#FFD301"/>
<path d="M169.409 116.56C165.458 117.011 162.683 120.499 163.125 124.377L163.312 126.013C163.755 129.891 167.338 132.652 171.289 132.201C173.255 131.977 174.888 130.999 176.048 129.578C177.191 128.16 177.717 126.324 177.496 124.393L177.31 122.757C176.867 118.879 173.36 116.109 169.409 116.56ZM174.603 124.227C174.891 126.749 173.296 128.888 171.051 129.144C168.806 129.4 166.771 127.537 166.498 125.153L166.411 124.387C166.161 122.197 167.73 119.832 169.959 119.578C172.188 119.323 174.28 121.393 174.528 123.563L174.603 124.223L174.603 124.227Z" fill="#FFD301"/>
<path d="M119.844 82.0761C121.582 84.0267 122.668 86.4906 122.956 89.0128L123.158 90.786C123.539 94.126 122.803 97.204 121.136 99.5762C119.394 102.084 116.742 103.777 113.646 104.131C107.571 104.824 102.01 99.734 101.274 93.2848L101.036 91.1999C100.359 85.2689 104.648 78.8281 110.723 78.1345C111.193 78.0808 111.667 78.0636 112.109 78.0829L116.642 70.2897C114.468 69.7628 112.082 69.6128 109.731 69.8812C98.9921 71.1074 91.207 80.6254 92.4065 91.1311L92.9169 95.6007C94.116 106.102 103.851 113.624 114.59 112.398C119.952 111.785 124.561 109.11 127.669 105.269C130.794 101.426 132.422 96.4133 131.822 91.1624L131.312 86.6929C130.731 81.6 128.161 77.222 124.45 74.1967L119.845 82.0842L119.844 82.0761Z" fill="#FFD301"/>
<path d="M165.647 95.0805C163.913 97.1815 161.436 98.6086 158.631 98.9288C152.609 99.6164 146.993 94.5488 146.261 88.136L146.025 86.0672C145.35 80.1565 149.655 73.7468 155.677 73.0591C157.87 72.8088 160.05 73.3883 161.926 74.5316L166.096 66.9029C162.762 65.1715 158.929 64.3582 154.872 64.8214C144.202 66.0398 136.608 75.5032 137.801 85.9522L138.307 90.3853C139.502 100.855 149.044 108.341 159.711 107.123C164.096 106.622 167.951 104.718 170.909 101.936L165.644 95.085L165.647 95.0805Z" fill="#FFD301"/>
</g>
<defs>
<clipPath id="clip0_2517_3">
<rect width="167.388" height="89.8364" fill="white" transform="translate(38 57) rotate(-6.51395)"/>
</clipPath>
</defs>
</svg>
