<svg width="31" height="32" viewBox="0 0 31 32" fill="none" xmlns="http://www.w3.org/2000/svg">
<circle cx="15.5015" cy="16" r="15.5" fill="#8458CB"/>
<path d="M11.6872 13.7661L15.5066 17.3017L19.326 13.7661C19.4172 13.6817 19.5253 13.6148 19.6444 13.5692C19.7635 13.5235 19.8911 13.5 20.02 13.5C20.1489 13.5 20.2765 13.5235 20.3956 13.5692C20.5147 13.6148 20.6229 13.6817 20.714 13.7661C20.8051 13.8505 20.8774 13.9506 20.9268 14.0608C20.9761 14.1711 21.0015 14.2892 21.0015 14.4085C21.0015 14.5278 20.9761 14.646 20.9268 14.7562C20.8774 14.8664 20.8051 14.9666 20.714 15.0509L16.1957 19.2335C16.1046 19.318 15.9964 19.385 15.8773 19.4307C15.7583 19.4765 15.6306 19.5 15.5017 19.5C15.3728 19.5 15.2451 19.4765 15.126 19.4307C15.0069 19.385 14.8988 19.318 14.8077 19.2335L10.2893 15.0509C10.1981 14.9666 10.1257 14.8665 10.0763 14.7563C10.0269 14.646 10.0015 14.5279 10.0015 14.4085C10.0015 14.2892 10.0269 14.171 10.0763 14.0608C10.1257 13.9505 10.1981 13.8504 10.2893 13.7661C10.6733 13.4198 11.3033 13.4107 11.6872 13.7661Z" fill="white"/>
</svg>
