<svg width="270" height="40" viewBox="0 0 270 40" fill="none" xmlns="http://www.w3.org/2000/svg">
<path d="M7.85513 36.1293L50.8847 39.374L258.303 36.1293L255.557 19.6793L255.557 2.83633L17.1602 2.83633L9.46637 5.35921L11.986 8.88053L15.3449 8.66419L12.0036 12.7077L13.6892 13.9099L10.8188 11.8622L6.49962 14.492L7.85513 36.1293Z" fill="#C3F598"/>
<path d="M0 2.43829L2.35808 7.09474L3.53712 6.08733L2.35808 0.0205078L0 2.43829Z" fill="#C3F598"/>
<path d="M268.347 26.6673L264.187 27.3588L265.389 25.6017L266.944 24.6758L266.836 24.0265L268.816 24.3647L268.347 26.6673Z" fill="#C3F598"/>
<path d="M263.515 31.1808L262.529 29.1202L261.806 29.9078L262.276 32.7214L263.515 31.1808Z" fill="#C3F598"/>
<path d="M44.968 27L43.24 22.68H35.536L33.808 27H31.096L37.84 10.2H40.96L47.728 27H44.968ZM36.496 20.256H42.28L39.376 13.032L36.496 20.256ZM57.5961 14.16H60.0921V27H57.5961V21.336H51.2601V27H48.7641V14.16H51.2601V19.032H57.5961V14.16ZM70.8404 27L66.8804 21.072L64.9364 23.04V27H62.4404V14.16H64.9364V19.8L70.5044 14.16H73.6484L68.6564 19.224L73.7924 27H70.8404ZM83.8617 22.2H86.3577C85.9497 25.272 83.6457 27.24 80.1897 27.24C76.3737 27.24 73.6857 24.528 73.6857 20.568C73.6857 16.632 76.3737 13.92 80.2137 13.92C83.7897 13.92 86.1657 16.224 86.1657 19.92C86.1657 20.448 86.1417 20.832 86.1417 20.832H76.2297C76.3257 23.4 77.8617 24.984 80.1897 24.984C82.2777 24.984 83.5017 23.976 83.8617 22.2ZM80.2137 16.128C78.3657 16.128 77.0217 17.136 76.4697 18.84H83.6937C83.3577 17.136 82.1337 16.128 80.2137 16.128ZM91.375 27V16.464H87.031V14.16H98.215V16.464H93.871V27H91.375ZM105.005 13.92C108.197 13.92 109.949 15.48 109.949 18.072V27H107.477V25.344C106.661 26.616 105.173 27.24 103.277 27.24C100.469 27.24 98.7647 25.896 98.7647 23.664C98.7647 21.672 99.9887 20.568 102.797 19.776L105.341 19.08C106.973 18.624 107.453 18.456 107.453 17.688C107.453 16.872 106.565 16.104 104.885 16.104C103.013 16.104 101.981 17.064 101.885 18.84H99.3647C99.5087 15.648 101.501 13.92 105.005 13.92ZM103.589 25.152C105.893 25.152 107.501 23.712 107.501 21.168V20.328C107.093 20.64 106.829 20.76 105.821 21.048L103.397 21.744C101.981 22.128 101.333 22.632 101.333 23.544C101.333 24.552 102.173 25.152 103.589 25.152ZM133.927 27H131.455L129.703 17.496L126.415 27H124.351L121.063 17.568L119.311 27H116.887L119.311 14.16H122.263L125.431 23.232L128.575 14.16H131.527L133.927 27ZM144.455 14.16H147.071L140.423 31.08H137.807L139.367 27.12L134.087 14.16H136.751L140.663 23.832L144.455 14.16ZM157.195 20.04C158.563 20.544 159.379 21.624 159.379 23.04C159.379 25.584 157.075 27.24 153.523 27.24C149.467 27.24 147.379 25.32 147.307 21.552H149.779C149.971 24.048 151.051 25.032 153.547 25.032C155.659 25.032 156.931 24.24 156.931 23.016C156.931 21.84 156.043 21.264 154.267 21.264H152.251V19.056H154.291C155.755 19.056 156.451 18.552 156.451 17.712C156.451 16.656 155.443 16.104 153.571 16.104C151.411 16.104 150.427 16.92 150.187 18.912H147.739C147.931 15.624 149.947 13.92 153.643 13.92C156.907 13.92 158.875 15.24 158.875 17.568C158.875 18.72 158.251 19.584 157.195 20.04ZM166.923 18.552C170.091 18.552 171.795 20.016 171.795 22.728C171.795 25.44 169.947 27 166.707 27H161.139V14.16H163.635V18.552H166.923ZM173.475 14.16H175.995V27H173.475V14.16ZM166.611 24.72C168.459 24.72 169.347 24.096 169.347 22.776C169.347 21.48 168.507 20.808 166.803 20.808H163.635V24.72H166.611ZM186.755 27L182.795 21.072L180.851 23.04V27H178.355V14.16H180.851V19.8L186.419 14.16H189.563L184.571 19.224L189.707 27H186.755ZM196.309 13.92C199.501 13.92 201.253 15.48 201.253 18.072V27H198.781V25.344C197.965 26.616 196.477 27.24 194.581 27.24C191.773 27.24 190.069 25.896 190.069 23.664C190.069 21.672 191.293 20.568 194.101 19.776L196.645 19.08C198.277 18.624 198.757 18.456 198.757 17.688C198.757 16.872 197.869 16.104 196.189 16.104C194.317 16.104 193.285 17.064 193.189 18.84H190.669C190.813 15.648 192.805 13.92 196.309 13.92ZM194.893 25.152C197.197 25.152 198.805 23.712 198.805 21.168V20.328C198.397 20.64 198.133 20.76 197.125 21.048L194.701 21.744C193.285 22.128 192.637 22.632 192.637 23.544C192.637 24.552 193.477 25.152 194.893 25.152ZM212.313 14.16H214.809V27H212.313V21.336H205.977V27H203.481V14.16H205.977V19.032H212.313V14.16ZM220.661 27V16.464H216.317V14.16H227.501V16.464H223.157V27H220.661ZM234.291 13.92C237.483 13.92 239.235 15.48 239.235 18.072V27H236.763V25.344C235.947 26.616 234.459 27.24 232.563 27.24C229.755 27.24 228.051 25.896 228.051 23.664C228.051 21.672 229.275 20.568 232.083 19.776L234.627 19.08C236.259 18.624 236.739 18.456 236.739 17.688C236.739 16.872 235.851 16.104 234.171 16.104C232.299 16.104 231.267 17.064 231.171 18.84H228.651C228.795 15.648 230.787 13.92 234.291 13.92ZM232.875 25.152C235.179 25.152 236.787 23.712 236.787 21.168V20.328C236.379 20.64 236.115 20.76 235.107 21.048L232.683 21.744C231.267 22.128 230.619 22.632 230.619 23.544C230.619 24.552 231.459 25.152 232.875 25.152Z" fill="#131313"/>
</svg>
