<svg width="90" height="35" viewBox="0 0 90 35" fill="none" xmlns="http://www.w3.org/2000/svg">
<path d="M1 0L89.9908 1.56992L84.7609 30.2981L73.4711 32.066L73.465 28.4289L69.1579 30.2849L71.8539 34.3103L5.2462 31.8945L3.9811 19.4553L4.55886 15.9392L7.5822 10.8691L3.5107 12.8156L2.37194 10.3158L1 0Z" fill="#8654CC"/>
<path d="M32.546 16.666C33.582 17.072 34.114 17.912 34.114 19.116C34.114 20.964 32.826 22 30.502 22H26.092V12.2H30.782C32.742 12.2 33.778 13.054 33.778 14.664C33.778 15.616 33.358 16.288 32.546 16.666ZM27.66 13.628V15.994H30.628C31.72 15.994 32.238 15.588 32.238 14.776C32.238 14.006 31.734 13.628 30.726 13.628H27.66ZM30.432 20.558C31.86 20.558 32.546 20.04 32.546 18.99C32.546 17.94 31.874 17.408 30.572 17.408H27.66V20.558H30.432ZM38.5827 22.14C36.3287 22.14 34.7887 20.558 34.7887 18.248C34.7887 15.952 36.3287 14.37 38.5827 14.37C40.8367 14.37 42.3767 15.952 42.3767 18.248C42.3767 20.558 40.8367 22.14 38.5827 22.14ZM38.5827 20.824C40.0107 20.824 40.8927 19.83 40.8927 18.248C40.8927 16.68 40.0107 15.686 38.5827 15.686C37.1687 15.686 36.2727 16.68 36.2727 18.248C36.2727 19.83 37.1687 20.824 38.5827 20.824ZM46.5429 13.992C45.1849 13.992 44.2889 13.404 44.2049 12.102H45.5069C45.5909 12.69 45.9549 12.928 46.5429 12.928C47.0889 12.928 47.5089 12.676 47.5789 12.102H48.8809C48.7969 13.39 47.8589 13.992 46.5429 13.992ZM48.4749 14.51H49.9029V22H48.4749V16.694L44.6249 22H43.1969V14.51H44.6249V19.83L48.4749 14.51ZM53.1745 22V15.854H50.6405V14.51H57.1645V15.854H54.6305V22H53.1745ZM63.1799 14.51H64.6079V22H63.1799V16.694L59.3299 22H57.9019V14.51H59.3299V19.83L63.1799 14.51Z" fill="white"/>
</svg>
