<svg width="414" height="61" viewBox="0 0 414 61" fill="none" xmlns="http://www.w3.org/2000/svg">
<path d="M12.1593 56.0269L78.1089 61L396.011 56.0269L391.802 30.8146L391.801 5.00013L26.4209 5.00013L14.6288 8.86684L18.4904 14.2638L23.6385 13.9322L18.5175 20.1296L21.1009 21.9721L16.7016 18.8337L10.0817 22.8643L12.1593 56.0269Z" fill="#C3F598"/>
<path d="M59.88 16C65.8 16 68.96 18.72 68.96 23.8C68.96 28.84 65.6 31.6 59.6 31.6H50.6V44H46.12V16H59.88ZM59.4 27.52C62.84 27.52 64.52 26.28 64.52 23.8C64.52 21.32 62.92 20.08 59.68 20.08H50.6V27.52H59.4ZM86.6481 36H90.8081C90.1281 41.12 86.2881 44.4 80.5281 44.4C74.1681 44.4 69.6881 39.88 69.6881 33.28C69.6881 26.72 74.1681 22.2 80.5681 22.2C86.5281 22.2 90.4881 26.04 90.4881 32.2C90.4881 33.08 90.4481 33.72 90.4481 33.72H73.9281C74.0881 38 76.6481 40.64 80.5281 40.64C84.0081 40.64 86.0481 38.96 86.6481 36ZM80.5681 25.88C77.4881 25.88 75.2481 27.56 74.3281 30.4H86.3681C85.8081 27.56 83.7681 25.88 80.5681 25.88ZM113.561 40.16H116.921V49.64H112.761V44H95.9609V49.64H91.8009V40.16H93.7609C93.7609 40.16 96.4009 39.04 96.4009 30.84V22.6H113.561V40.16ZM109.361 40.16V26.44H100.521V30.84C100.521 39.04 98.5609 40.16 98.5609 40.16H109.361ZM128.879 22.2C134.199 22.2 137.119 24.8 137.119 29.12V44H132.999V41.24C131.639 43.36 129.159 44.4 125.999 44.4C121.319 44.4 118.479 42.16 118.479 38.44C118.479 35.12 120.519 33.28 125.199 31.96L129.439 30.8C132.159 30.04 132.959 29.76 132.959 28.48C132.959 27.12 131.479 25.84 128.679 25.84C125.559 25.84 123.839 27.44 123.679 30.4H119.479C119.719 25.08 123.039 22.2 128.879 22.2ZM126.519 40.92C130.359 40.92 133.039 38.52 133.039 34.28V32.88C132.359 33.4 131.919 33.6 130.239 34.08L126.199 35.24C123.839 35.88 122.759 36.72 122.759 38.24C122.759 39.92 124.159 40.92 126.519 40.92ZM154.832 44L148.232 34.12L144.992 37.4V44H140.832V22.6H144.992V32L154.272 22.6H159.512L151.192 31.04L159.752 44H154.832ZM167.786 44V26.44H160.546V22.6H179.186V26.44H171.946V44H167.786ZM196.773 22.6H200.853V44H196.773V28.84L185.773 44H181.693V22.6H185.773V37.8L196.773 22.6ZM216.08 22.2C222.32 22.2 226.12 26.52 226.12 33.28C226.12 40.08 222.32 44.4 216.08 44.4C213.08 44.4 210.6 43.32 208.92 41.28V50.8H204.76V22.6H208.92V25.28C210.6 23.28 213.04 22.2 216.08 22.2ZM215.4 40.64C219.56 40.68 221.88 37.92 221.88 33.28C221.88 28.68 219.56 25.92 215.4 25.96C211.36 26 208.8 28.8 208.8 33.28C208.8 37.8 211.36 40.6 215.4 40.64ZM238.483 44.4C232.043 44.4 227.643 39.88 227.643 33.28C227.643 26.72 232.043 22.2 238.483 22.2C244.923 22.2 249.323 26.72 249.323 33.28C249.323 39.88 244.923 44.4 238.483 44.4ZM238.483 40.64C242.563 40.64 245.083 37.8 245.083 33.28C245.083 28.8 242.563 25.96 238.483 25.96C234.443 25.96 231.883 28.8 231.883 33.28C231.883 37.8 234.443 40.64 238.483 40.64ZM267.146 32.52C269.346 33.44 270.466 35.16 270.466 37.68C270.466 41.68 267.706 44 262.706 44H252.066V22.6H263.026C267.306 22.6 269.666 24.52 269.666 28.16C269.666 30.16 268.786 31.64 267.146 32.52ZM256.226 26.2V30.96H262.546C264.626 30.96 265.706 30.24 265.706 28.56C265.706 26.92 264.706 26.2 262.786 26.2H256.226ZM262.546 40.32C265.146 40.32 266.466 39.36 266.466 37.4C266.466 35.4 265.226 34.4 262.826 34.4H256.226V40.32H262.546ZM282.576 22.2C287.896 22.2 290.816 24.8 290.816 29.12V44H286.696V41.24C285.336 43.36 282.856 44.4 279.696 44.4C275.016 44.4 272.176 42.16 272.176 38.44C272.176 35.12 274.216 33.28 278.896 31.96L283.136 30.8C285.856 30.04 286.656 29.76 286.656 28.48C286.656 27.12 285.176 25.84 282.376 25.84C279.256 25.84 277.536 27.44 277.376 30.4H273.176C273.416 25.08 276.736 22.2 282.576 22.2ZM280.216 40.92C284.056 40.92 286.736 38.52 286.736 34.28V32.88C286.056 33.4 285.616 33.6 283.936 34.08L279.896 35.24C277.536 35.88 276.456 36.72 276.456 38.24C276.456 39.92 277.856 40.92 280.216 40.92ZM309.249 22.6H313.409V44H309.249V34.56H298.689V44H294.529V22.6H298.689V30.72H309.249V22.6ZM332.402 22.6H336.482V44H332.402V28.84L321.402 44H317.322V22.6H321.402V37.8L332.402 22.6ZM356.15 36H360.31C359.63 41.12 355.79 44.4 350.03 44.4C343.67 44.4 339.19 39.88 339.19 33.28C339.19 26.72 343.67 22.2 350.07 22.2C356.03 22.2 359.99 26.04 359.99 32.2C359.99 33.08 359.95 33.72 359.95 33.72H343.43C343.59 38 346.15 40.64 350.03 40.64C353.51 40.64 355.55 38.96 356.15 36ZM350.07 25.88C346.99 25.88 344.75 27.56 343.83 30.4H355.87C355.31 27.56 353.27 25.88 350.07 25.88Z" fill="#131313"/>
<path d="M0 3.75951L3.33333 11L5 9.43354L3.33333 0L0 3.75951Z" fill="#C3F598"/>
<path d="M411.284 41.5248L404.909 42.5846L406.752 39.8917L409.135 38.4726L408.969 37.4775L412.004 37.9957L411.284 41.5248Z" fill="#C3F598"/>
<path d="M403.879 48.4425L402.368 45.2843L401.259 46.4914L401.981 50.8037L403.879 48.4425Z" fill="#C3F598"/>
</svg>
