<svg width="414" height="61" viewBox="0 0 414 61" fill="none" xmlns="http://www.w3.org/2000/svg">
<path d="M12.0393 56.0269L77.9889 61L395.891 56.0269L391.682 30.8146L391.681 5.00013L26.3009 5.00013L14.5088 8.86684L18.3704 14.2638L23.5185 13.9322L18.3975 20.1296L20.9809 21.9721L16.5816 18.8337L9.96175 22.8643L12.0393 56.0269Z" fill="#C3F598"/>
<path d="M53.28 44L50.4 36.8H37.56L34.68 44H30.16L41.4 16H46.6L57.88 44H53.28ZM39.16 32.76H48.8L43.96 20.72L39.16 32.76ZM74.3269 22.6H78.4869V44H74.3269V34.56H63.7669V44H59.6069V22.6H63.7669V30.72H74.3269V22.6ZM96.4006 44L89.8006 34.12L86.5606 37.4V44H82.4006V22.6H86.5606V32L95.8406 22.6H101.081L92.7606 31.04L101.321 44H96.4006ZM118.103 36H122.263C121.583 41.12 117.743 44.4 111.983 44.4C105.623 44.4 101.143 39.88 101.143 33.28C101.143 26.72 105.623 22.2 112.023 22.2C117.983 22.2 121.943 26.04 121.943 32.2C121.943 33.08 121.903 33.72 121.903 33.72H105.383C105.543 38 108.103 40.64 111.983 40.64C115.463 40.64 117.503 38.96 118.103 36ZM112.023 25.88C108.943 25.88 106.703 27.56 105.783 30.4H117.823C117.263 27.56 115.223 25.88 112.023 25.88ZM130.625 44V26.44H123.385V22.6H142.025V26.44H134.785V44H130.625ZM153.341 22.2C158.661 22.2 161.581 24.8 161.581 29.12V44H157.461V41.24C156.101 43.36 153.621 44.4 150.461 44.4C145.781 44.4 142.941 42.16 142.941 38.44C142.941 35.12 144.981 33.28 149.661 31.96L153.901 30.8C156.621 30.04 157.421 29.76 157.421 28.48C157.421 27.12 155.941 25.84 153.141 25.84C150.021 25.84 148.301 27.44 148.141 30.4H143.941C144.181 25.08 147.501 22.2 153.341 22.2ZM150.981 40.92C154.821 40.92 157.501 38.52 157.501 34.28V32.88C156.821 33.4 156.381 33.6 154.701 34.08L150.661 35.24C148.301 35.88 147.221 36.72 147.221 38.24C147.221 39.92 148.621 40.92 150.981 40.92ZM201.546 44H197.426L194.506 28.16L189.026 44H185.586L180.106 28.28L177.186 44H173.146L177.186 22.6H182.106L187.386 37.72L192.626 22.6H197.546L201.546 44ZM219.092 22.6H223.452L212.372 50.8H208.012L210.612 44.2L201.812 22.6H206.252L212.772 38.72L219.092 22.6ZM240.325 32.4C242.605 33.24 243.965 35.04 243.965 37.4C243.965 41.64 240.125 44.4 234.205 44.4C227.445 44.4 223.965 41.2 223.845 34.92H227.965C228.285 39.08 230.085 40.72 234.245 40.72C237.765 40.72 239.885 39.4 239.885 37.36C239.885 35.4 238.405 34.44 235.445 34.44H232.085V30.76H235.485C237.925 30.76 239.085 29.92 239.085 28.52C239.085 26.76 237.405 25.84 234.285 25.84C230.685 25.84 229.045 27.2 228.645 30.52H224.565C224.885 25.04 228.245 22.2 234.405 22.2C239.845 22.2 243.125 24.4 243.125 28.28C243.125 30.2 242.085 31.64 240.325 32.4ZM256.539 29.92C261.819 29.92 264.659 32.36 264.659 36.88C264.659 41.4 261.579 44 256.179 44H246.899V22.6H251.059V29.92H256.539ZM267.459 22.6H271.659V44H267.459V22.6ZM256.019 40.2C259.099 40.2 260.579 39.16 260.579 36.96C260.579 34.8 259.179 33.68 256.339 33.68H251.059V40.2H256.019ZM289.591 44L282.991 34.12L279.751 37.4V44H275.591V22.6H279.751V32L289.031 22.6H294.271L285.951 31.04L294.511 44H289.591ZM305.515 22.2C310.835 22.2 313.755 24.8 313.755 29.12V44H309.635V41.24C308.275 43.36 305.795 44.4 302.635 44.4C297.955 44.4 295.115 42.16 295.115 38.44C295.115 35.12 297.155 33.28 301.835 31.96L306.075 30.8C308.795 30.04 309.595 29.76 309.595 28.48C309.595 27.12 308.115 25.84 305.315 25.84C302.195 25.84 300.475 27.44 300.315 30.4H296.115C296.355 25.08 299.675 22.2 305.515 22.2ZM303.155 40.92C306.995 40.92 309.675 38.52 309.675 34.28V32.88C308.995 33.4 308.555 33.6 306.875 34.08L302.835 35.24C300.475 35.88 299.395 36.72 299.395 38.24C299.395 39.92 300.795 40.92 303.155 40.92ZM332.188 22.6H336.348V44H332.188V34.56H321.628V44H317.468V22.6H321.628V30.72H332.188V22.6ZM346.102 44V26.44H338.862V22.6H357.502V26.44H350.262V44H346.102ZM368.818 22.2C374.138 22.2 377.058 24.8 377.058 29.12V44H372.938V41.24C371.578 43.36 369.098 44.4 365.938 44.4C361.258 44.4 358.418 42.16 358.418 38.44C358.418 35.12 360.458 33.28 365.138 31.96L369.378 30.8C372.098 30.04 372.898 29.76 372.898 28.48C372.898 27.12 371.418 25.84 368.618 25.84C365.498 25.84 363.778 27.44 363.618 30.4H359.418C359.658 25.08 362.978 22.2 368.818 22.2ZM366.458 40.92C370.298 40.92 372.978 38.52 372.978 34.28V32.88C372.298 33.4 371.858 33.6 370.178 34.08L366.138 35.24C363.778 35.88 362.698 36.72 362.698 38.24C362.698 39.92 364.098 40.92 366.458 40.92Z" fill="#131313"/>
<path d="M0 3.75951L3.33333 11L5 9.43354L3.33333 0L0 3.75951Z" fill="#C3F598"/>
<path d="M411.284 41.5248L404.909 42.5846L406.752 39.8917L409.135 38.4726L408.969 37.4775L412.004 37.9957L411.284 41.5248Z" fill="#C3F598"/>
<path d="M403.879 48.4425L402.368 45.2843L401.259 46.4914L401.981 50.8037L403.879 48.4425Z" fill="#C3F598"/>
</svg>
