<svg width="802" height="703" viewBox="0 0 802 703" fill="none" xmlns="http://www.w3.org/2000/svg">
<path d="M804.798 691.657L488.5 677.499L142.5 702.001L199.042 337.984L97.4228 248.769L47.8955 53.7273L351.496 -74.2349L804.798 -5.88103L804.798 691.657Z" fill="white"/>
<path d="M63 170L118.017 88.7224L66.773 64.7078L49.9802 80.478L56.225 84.2414L48.0002 88.1624L44.9223 82.1883L37.9053 88.3757L9.03749 112.044L36.0187 141.022L42.6721 144.68L54.9435 146.448L46.6736 150.429L49.5094 155.511L63 170Z" fill="#FFE3C7"/>
<path d="M127.481 592.442L210.968 634.888L240.784 644.399L252.853 615.188L186.822 572.211L174.908 572.949L177.161 578.97L171.987 577.269L175.729 584.488L167.628 584.199L164.313 580.168L157.152 582.326L127.481 592.442Z" fill="#EDCFFC"/>
</svg>
