<svg width="231" height="44" viewBox="0 0 231 44" fill="none" xmlns="http://www.w3.org/2000/svg">
<path d="M0.290131 0.0507812L230 2.55078L216.781 38.1602L187.659 40.2835L187.607 35.771L176.508 38.047L183.506 43.0579L11.5611 39.6473L8.17441 24.2067L9.63137 19.848L17.3855 13.5765L6.89551 15.9662L3.93186 12.8577L0.290131 0.0507812Z" fill="#8654CC"/>
<path d="M44.7702 18.6451C45.9062 19.0771 46.5782 20.0691 46.5782 21.3171C46.5782 23.5091 44.7062 24.9651 41.9062 24.9651C38.5462 24.9651 36.8182 23.3011 36.7702 20.0371H38.6102C38.7062 22.3731 39.7142 23.3331 41.8582 23.3331C43.7142 23.3331 44.7862 22.5491 44.7862 21.2851C44.7862 20.1331 44.0342 19.5411 42.4662 19.5411H40.6742V17.9411H42.4502C43.8102 17.9411 44.4182 17.4931 44.4182 16.5491C44.4182 15.6051 43.5702 15.0451 41.9382 15.0451C40.0502 15.0451 39.1222 15.8291 38.8502 17.6691H37.0902C37.2982 14.9011 39.0262 13.3971 41.9862 13.3971C44.6102 13.3971 46.1782 14.5331 46.1782 16.4371C46.1782 17.4611 45.6662 18.2451 44.7702 18.6451ZM51.4967 16.0691C53.6247 16.0691 54.7927 17.1091 54.7927 18.8371V24.7891H53.1447V23.6851C52.6007 24.5331 51.6087 24.9491 50.3447 24.9491C48.4727 24.9491 47.3367 24.0531 47.3367 22.5651C47.3367 21.2371 48.1527 20.5011 50.0247 19.9731L51.7207 19.5091C52.8087 19.2051 53.1287 19.0931 53.1287 18.5811C53.1287 18.0371 52.5367 17.5251 51.4167 17.5251C50.1687 17.5251 49.4807 18.1651 49.4167 19.3491H47.7367C47.8327 17.2211 49.1607 16.0691 51.4967 16.0691ZM50.5527 23.5571C52.0887 23.5571 53.1607 22.5971 53.1607 20.9011V20.3411C52.8887 20.5491 52.7127 20.6291 52.0407 20.8211L50.4247 21.2851C49.4807 21.5411 49.0487 21.8771 49.0487 22.4851C49.0487 23.1571 49.6087 23.5571 50.5527 23.5571ZM60.6459 16.0691C63.1419 16.0691 64.6619 17.7971 64.6619 20.5011C64.6619 23.2211 63.1419 24.9491 60.6459 24.9491C59.4459 24.9491 58.4539 24.5171 57.7819 23.7011V27.5091H56.1179V16.2291H57.7819V17.3011C58.4539 16.5011 59.4299 16.0691 60.6459 16.0691ZM60.3739 23.4451C62.0379 23.4611 62.9659 22.3571 62.9659 20.5011C62.9659 18.6611 62.0379 17.5571 60.3739 17.5731C58.7579 17.5891 57.7339 18.7091 57.7339 20.5011C57.7339 22.3091 58.7579 23.4291 60.3739 23.4451ZM71.895 21.5891H73.559C73.287 23.6371 71.751 24.9491 69.447 24.9491C66.903 24.9491 65.111 23.1411 65.111 20.5011C65.111 17.8771 66.903 16.0691 69.463 16.0691C71.847 16.0691 73.431 17.6051 73.431 20.0691C73.431 20.4211 73.415 20.6771 73.415 20.6771H66.807C66.871 22.3891 67.895 23.4451 69.447 23.4451C70.839 23.4451 71.655 22.7731 71.895 21.5891ZM69.463 17.5411C68.231 17.5411 67.335 18.2131 66.967 19.3491H71.783C71.559 18.2131 70.743 17.5411 69.463 17.5411ZM80.5322 16.2291V17.7651H76.2282V24.7891H74.5642V16.2291H80.5322ZM87.413 16.2291H89.045V24.7891H87.413V18.7251L83.013 24.7891H81.381V16.2291H83.013V22.3091L87.413 16.2291ZM94.3359 24.9491C91.7599 24.9491 89.9679 23.1411 89.9679 20.5011C89.9679 17.8771 91.7599 16.0691 94.3359 16.0691C96.5439 16.0691 98.0959 17.3811 98.3039 19.4291H96.6399C96.4319 18.2611 95.6319 17.5731 94.3199 17.5731C92.7359 17.5731 91.6639 18.6771 91.6639 20.5011C91.6639 22.3411 92.7359 23.4451 94.3199 23.4451C95.8239 23.4451 96.7519 22.5491 96.8639 21.0771H98.5119C98.4159 23.3811 96.7679 24.9491 94.3359 24.9491ZM101.648 24.7891V17.7651H98.7517V16.2291H106.208V17.7651H103.312V24.7891H101.648ZM111.578 16.0691C114.074 16.0691 115.594 17.7971 115.594 20.5011C115.594 23.2211 114.074 24.9491 111.578 24.9491C110.378 24.9491 109.386 24.5171 108.714 23.7011V27.5091H107.05V16.2291H108.714V17.3011C109.386 16.5011 110.362 16.0691 111.578 16.0691ZM111.306 23.4451C112.97 23.4611 113.898 22.3571 113.898 20.5011C113.898 18.6611 112.97 17.5571 111.306 17.5731C109.69 17.5891 108.666 18.7091 108.666 20.5011C108.666 22.3091 109.69 23.4291 111.306 23.4451ZM122.556 16.2291H124.188V24.7891H122.556V18.7251L118.156 24.7891H116.524V16.2291H118.156V22.3091L122.556 16.2291ZM130.118 16.0691C132.614 16.0691 134.134 17.7971 134.134 20.5011C134.134 23.2211 132.614 24.9491 130.118 24.9491C128.918 24.9491 127.926 24.5171 127.254 23.7011V27.5091H125.59V16.2291H127.254V17.3011C127.926 16.5011 128.902 16.0691 130.118 16.0691ZM129.846 23.4451C131.51 23.4611 132.438 22.3571 132.438 20.5011C132.438 18.6611 131.51 17.5571 129.846 17.5731C128.23 17.5891 127.206 18.7091 127.206 20.5011C127.206 22.3091 128.23 23.4291 129.846 23.4451ZM138.92 24.9491C136.344 24.9491 134.584 23.1411 134.584 20.5011C134.584 17.8771 136.344 16.0691 138.92 16.0691C141.496 16.0691 143.256 17.8771 143.256 20.5011C143.256 23.1411 141.496 24.9491 138.92 24.9491ZM138.92 23.4451C140.552 23.4451 141.56 22.3091 141.56 20.5011C141.56 18.7091 140.552 17.5731 138.92 17.5731C137.304 17.5731 136.28 18.7091 136.28 20.5011C136.28 22.3091 137.304 23.4451 138.92 23.4451ZM150.225 20.1971C151.105 20.5651 151.553 21.2531 151.553 22.2611C151.553 23.8611 150.449 24.7891 148.449 24.7891H144.193V16.2291H148.577C150.289 16.2291 151.233 16.9971 151.233 18.4531C151.233 19.2531 150.881 19.8451 150.225 20.1971ZM145.857 17.6691V19.5731H148.385C149.217 19.5731 149.649 19.2851 149.649 18.6131C149.649 17.9571 149.249 17.6691 148.481 17.6691H145.857ZM148.385 23.3171C149.425 23.3171 149.953 22.9331 149.953 22.1491C149.953 21.3491 149.457 20.9491 148.497 20.9491H145.857V23.3171H148.385ZM156.237 16.0691C158.365 16.0691 159.533 17.1091 159.533 18.8371V24.7891H157.885V23.6851C157.341 24.5331 156.349 24.9491 155.085 24.9491C153.213 24.9491 152.077 24.0531 152.077 22.5651C152.077 21.2371 152.893 20.5011 154.765 19.9731L156.461 19.5091C157.549 19.2051 157.869 19.0931 157.869 18.5811C157.869 18.0371 157.277 17.5251 156.157 17.5251C154.909 17.5251 154.221 18.1651 154.157 19.3491H152.477C152.573 17.2211 153.901 16.0691 156.237 16.0691ZM155.293 23.5571C156.829 23.5571 157.901 22.5971 157.901 20.9011V20.3411C157.629 20.5491 157.453 20.6291 156.781 20.8211L155.165 21.2851C154.221 21.5411 153.789 21.8771 153.789 22.4851C153.789 23.1571 154.349 23.5571 155.293 23.5571ZM163.194 24.7891V17.7651H160.298V16.2291H167.754V17.7651H164.858V24.7891H163.194ZM172.773 19.1571C174.885 19.1571 176.021 20.1331 176.021 21.9411C176.021 23.7491 174.789 24.7891 172.629 24.7891H168.597V16.2291H170.261V19.1571H172.773ZM172.565 23.2691C173.797 23.2691 174.389 22.8531 174.389 21.9731C174.389 21.1091 173.829 20.6611 172.693 20.6611H170.261V23.2691H172.565ZM180.848 24.9491C178.272 24.9491 176.48 23.1411 176.48 20.5011C176.48 17.8771 178.272 16.0691 180.848 16.0691C183.056 16.0691 184.608 17.3811 184.816 19.4291H183.152C182.944 18.2611 182.144 17.5731 180.832 17.5731C179.248 17.5731 178.176 18.6771 178.176 20.5011C178.176 22.3411 179.248 23.4451 180.832 23.4451C182.336 23.4451 183.264 22.5491 183.376 21.0771H185.024C184.928 23.3811 183.28 24.9491 180.848 24.9491ZM193.084 16.2291V24.7891H191.42V21.6051H189.644L187.308 24.7891H185.388L187.804 21.4931C186.428 21.1731 185.66 20.2611 185.66 18.8851C185.66 17.1571 186.748 16.2291 188.796 16.2291H193.084ZM191.42 20.1171V17.7171H188.86C187.804 17.7171 187.276 18.1331 187.276 18.9171C187.276 19.7171 187.836 20.1171 188.988 20.1171H191.42Z" fill="white"/>
</svg>
