<svg width="761" height="713" viewBox="0 0 761 713" fill="none" xmlns="http://www.w3.org/2000/svg">
<path d="M759.722 11.027L124 0.0275256L155.448 302.027L94.1575 409.575L72.0003 626.028L362.999 712.028L759.722 587.527L759.722 11.027Z" fill="white"/>
<path d="M0 573.906L53.9667 689.345L115.03 648.153L108.649 618.93L100.273 623.393L101.393 611.61L110.12 612.15L107.902 600.206L100.775 552.26L50.3874 563.083L41.8561 568.072L31.6793 580.585L32.7624 568.711L25.1937 568.495L0 573.906Z" fill="#C3F598"/>
<path d="M70.4489 146.38L153.976 188.716L183.798 198.219L195.82 169.188L129.742 126.35L117.833 127.066L120.094 133.057L114.919 131.358L118.671 138.543L110.572 138.243L107.252 134.229L100.096 136.365L70.4489 146.38Z" fill="#EDCFFC"/>
</svg>
