<svg width="171" height="51" viewBox="0 0 171 51" fill="none" xmlns="http://www.w3.org/2000/svg">
<path d="M0.338867 0C105.652 1.84926 64.6962 2.88606 170.009 4.73532L152.352 44.0527L136.895 46.5698L136.832 41.2166L123.319 43.915L131.84 49.8605L14.0697 46.9757L9.94313 28.6577L11.716 23.4871L21.1553 16.0483L8.3843 18.8817L4.77541 15.1936L0.338867 0Z" fill="#8654CC"/>
<path d="M46.2952 30.6803C42.9512 30.6803 40.6152 28.3123 40.6152 24.8883C40.6152 21.4643 42.9512 19.0963 46.2952 19.0963C49.1752 19.0963 51.1752 20.7923 51.4632 23.4323H49.5432C49.3032 21.7683 48.1192 20.7443 46.2952 20.7443C44.0072 20.7443 42.4392 22.3923 42.4392 24.8883C42.4392 27.3843 44.0072 29.0323 46.2952 29.0323C48.3912 29.0323 49.7192 27.7203 49.8472 25.6243H51.7192C51.5912 28.6803 49.4792 30.6803 46.2952 30.6803ZM56.5143 30.6483C53.9383 30.6483 52.1783 28.8403 52.1783 26.2003C52.1783 23.5763 53.9383 21.7683 56.5143 21.7683C59.0903 21.7683 60.8503 23.5763 60.8503 26.2003C60.8503 28.8403 59.0903 30.6483 56.5143 30.6483ZM56.5143 29.1443C58.1463 29.1443 59.1543 28.0083 59.1543 26.2003C59.1543 24.4083 58.1463 23.2723 56.5143 23.2723C54.8983 23.2723 53.8743 24.4083 53.8743 26.2003C53.8743 28.0083 54.8983 29.1443 56.5143 29.1443ZM69.2032 30.4883H67.2512L64.9312 27.2403L62.5952 30.4883H60.6752L63.8592 26.0883L60.8672 21.9283H62.8192L64.9472 24.9203L67.0912 21.9283H69.0112L66.0192 26.0883L69.2032 30.4883ZM74.3357 21.7683C76.8317 21.7683 78.3517 23.4963 78.3517 26.2003C78.3517 28.9203 76.8317 30.6483 74.3357 30.6483C73.1357 30.6483 72.1437 30.2163 71.4717 29.4003V33.2083H69.8077V21.9283H71.4717V23.0003C72.1437 22.2003 73.1197 21.7683 74.3357 21.7683ZM74.0637 29.1443C75.7277 29.1603 76.6557 28.0563 76.6557 26.2003C76.6557 24.3603 75.7277 23.2563 74.0637 23.2723C72.4477 23.2883 71.4237 24.4083 71.4237 26.2003C71.4237 28.0083 72.4477 29.1283 74.0637 29.1443ZM82.9608 21.7683C85.0888 21.7683 86.2568 22.8083 86.2568 24.5363V30.4883H84.6088V29.3843C84.0648 30.2323 83.0728 30.6483 81.8088 30.6483C79.9368 30.6483 78.8008 29.7523 78.8008 28.2643C78.8008 26.9363 79.6168 26.2003 81.4888 25.6723L83.1848 25.2083C84.2728 24.9043 84.5928 24.7923 84.5928 24.2803C84.5928 23.7363 84.0008 23.2243 82.8808 23.2243C81.6328 23.2243 80.9448 23.8643 80.8808 25.0483H79.2008C79.2968 22.9203 80.6248 21.7683 82.9608 21.7683ZM82.0168 29.2563C83.5528 29.2563 84.6248 28.2963 84.6248 26.6003V26.0403C84.3528 26.2483 84.1768 26.3283 83.5048 26.5203L81.8888 26.9843C80.9448 27.2403 80.5128 27.5763 80.5128 28.1843C80.5128 28.8563 81.0728 29.2563 82.0168 29.2563ZM93.4701 21.9283H95.1341V30.4883H93.4701V26.7123H89.2461V30.4883H87.5821V21.9283H89.2461V25.1763H93.4701V21.9283ZM102.572 21.9283H104.204V30.4883H102.572V24.4243L98.1716 30.4883H96.5396V21.9283H98.1716V28.0083L102.572 21.9283ZM107.942 30.4883V23.4643H105.046V21.9283H112.502V23.4643H109.606V30.4883H107.942ZM117.521 24.8563C119.633 24.8563 120.769 25.8323 120.769 27.6403C120.769 29.4483 119.537 30.4883 117.377 30.4883H113.345V21.9283H115.009V24.8563H117.521ZM117.313 28.9683C118.545 28.9683 119.137 28.5523 119.137 27.6723C119.137 26.8083 118.577 26.3603 117.441 26.3603H115.009V28.9683H117.313Z" fill="white"/>
</svg>
