<svg width="78" height="60" viewBox="0 0 78 60" fill="none" xmlns="http://www.w3.org/2000/svg">
<path d="M0.415466 0L77.0216 2.22238L74.0081 49.1105L52.6709 56.6283L52.6473 53.2955L44.5109 55.3227L43.1292 59.8508L8.55187 57.1864L6.11815 34.2994L7.19851 29.2454L12.8969 21.9624L5.20642 24.7523L3.04516 21.1558L0.415466 0Z" fill="#C3F598"/>
<path fill-rule="evenodd" clip-rule="evenodd" d="M54.9402 14.5699C53.1121 15.7843 52.2065 16.4997 49.9513 18.5127C48.0207 20.2263 48.0549 20.2097 47.5082 19.6607C46.3807 18.4795 42.246 17.4147 41.0671 18.0303C40.5032 18.3131 40.5717 18.8788 41.1696 18.8788C42.7926 18.8954 44.2962 19.6274 45.5776 20.6755C46.7222 21.6238 46.7222 21.5739 45.0992 23.1377C43.3565 24.8013 40.8792 27.5464 39.4952 29.3265L38.436 30.6907L37.5475 29.4098C35.4461 26.3485 33.1738 24.8347 31.7728 25.55C31.2603 25.8162 31.3457 25.9826 32.8833 27.5631C34.2331 28.9439 35.634 30.907 36.625 32.8202C37.428 34.3675 39.4099 34.3675 40.7596 32.1382C41.7335 30.5243 44.2449 27.4467 46.3122 25.3504L48.1575 23.4704L48.6016 24.4354C52.5654 33.0698 42.8952 43.0684 34.7627 38.7429C26.4594 34.3176 28.3387 20.1265 37.3939 18.8621C39.1707 18.6126 39.2048 18.0303 37.445 17.814C32.9004 17.2151 27.0915 22.4556 26.4764 27.6796C25.3146 37.6449 35.412 44.1332 45.2871 39.791C51.284 37.1624 54.0859 27.7128 50.3784 22.7218C50.1052 22.3559 49.883 22.0065 49.883 21.9232C49.883 21.5739 52.9412 18.912 56.1874 16.4831C59.8436 13.738 57.9472 12.5735 54.9402 14.5699Z" fill="#131313"/>
</svg>
