<svg width="47" height="47" viewBox="0 0 47 47" fill="none" xmlns="http://www.w3.org/2000/svg">
<circle cx="23.5" cy="23.5" r="23.5" transform="rotate(-180 23.5 23.5)" fill="#8654CC"/>
<path d="M22.998 18.9338L22.279 18.1898C21.3237 17.2015 19.7901 16 18.132 16C16.5613 16 15.2896 16.5373 14.4142 17.401C13.5397 18.2638 13 19.5118 13 21.0493C13 22.7166 13.6564 24.1162 14.7206 25.4277C15.8041 26.7629 17.2569 27.9449 18.7894 29.1861L18.7898 29.1864L18.8469 29.2327C20.2442 30.3656 21.7745 31.6063 22.9637 32.9976C22.9637 32.9977 22.9644 32.9983 22.9658 32.999C22.9666 32.9994 22.9674 32.9996 22.9681 32.9998C22.9688 32.9999 22.9694 33 22.97 33H23.028C23.0289 33 23.0298 32.9998 23.031 32.9993C23.0322 32.9988 23.0328 32.9982 23.033 32.998C23.0331 32.9979 23.0331 32.9979 23.0331 32.9979L22.998 18.9338ZM22.998 18.9338L23.717 18.1898M22.998 18.9338L23.717 18.1898M23.717 18.1898C24.6715 17.2023 26.2093 16 27.869 16M23.717 18.1898L27.869 16M27.869 16C29.4391 16 30.7105 16.5372 31.5859 17.4009C32.4603 18.2637 33 19.5118 33 21.0493C33 22.717 32.3431 24.1168 31.2786 25.4283M27.869 16L31.2786 25.4283M31.2786 25.4283C30.1948 26.7636 28.7418 27.9452 27.2098 29.1859M31.2786 25.4283L27.2098 29.1859M27.2098 29.1859C27.2097 29.186 27.2097 29.186 27.2096 29.1861L27.2098 29.1859Z" stroke="white" stroke-width="2"/>
</svg>
