<svg width="47" height="47" viewBox="0 0 47 47" fill="none" xmlns="http://www.w3.org/2000/svg">
<path d="M0 23.5C0 10.5213 10.5213 0 23.5 0C36.4787 0 47 10.5213 47 23.5C47 36.4787 36.4787 47 23.5 47C10.5213 47 0 36.4787 0 23.5Z" fill="#8654CC"/>
<path fill-rule="evenodd" clip-rule="evenodd" d="M22.998 20.3727L21.5599 18.8848C20.6334 17.9262 19.3532 17 18.132 17C16.7962 17 15.7858 17.4526 15.1165 18.1128C14.4492 18.7712 14 19.7549 14 21.0493C14 22.4218 14.5301 23.6059 15.4972 24.7976C16.5027 26.0368 17.8684 27.1532 19.4188 28.409L19.4196 28.4097C19.4487 28.4332 19.4779 28.4569 19.5072 28.4807C20.6288 29.3899 21.8931 30.4148 22.9989 31.5543C24.1159 30.4039 25.3933 29.3698 26.5261 28.4528L26.5803 28.409C26.5804 28.4089 26.5805 28.4088 26.5806 28.4087C28.1306 27.1534 29.4963 26.0373 30.5022 24.7981C31.4695 23.6063 32 22.422 32 21.0493C32 19.7549 31.5508 18.7712 30.8835 18.1128C30.2143 17.4525 29.2042 17 27.869 17C26.6457 17 25.361 17.9278 24.4361 18.8848L22.998 20.3727ZM27.839 29.9632C26.408 31.1216 24.929 32.3206 23.792 33.6491C23.602 33.8705 23.323 34 23.028 34H22.97C22.676 34 22.396 33.8715 22.205 33.6491C21.0755 32.327 19.6043 31.1342 18.1807 29.98L18.16 29.9632C15.131 27.5098 12 24.9735 12 21.0493C12 17.4879 14.521 15 18.132 15C19.8749 15 21.4047 16.0221 22.4362 16.9519C22.6446 17.1397 22.8326 17.3238 22.998 17.4948C23.1622 17.325 23.3488 17.1424 23.5556 16.956C24.5881 16.0251 26.1227 15 27.869 15C31.479 15 34 17.4879 34 21.0493C34 24.9734 30.8686 27.5095 27.8414 29.9613L27.839 29.9632Z" fill="white"/>
</svg>
