<svg width="47" height="47" viewBox="0 0 47 47" fill="none" xmlns="http://www.w3.org/2000/svg">
<circle cx="23.5" cy="23.5" r="23.5" transform="rotate(-180 23.5 23.5)" fill="#8654CC"/>
<path d="M34.4758 16.9494C34.6338 16.4025 34.4758 16 33.7158 16H31.2009C30.5605 16 30.2659 16.3456 30.1079 16.7306C30.1079 16.7306 28.827 19.9287 27.0166 22.0025C26.4317 22.6019 26.1627 22.7944 25.8424 22.7944C25.6845 22.7944 25.4411 22.6019 25.4411 22.055V16.9494C25.4411 16.2931 25.2618 16 24.7323 16H20.7785C20.3772 16 20.1381 16.3063 20.1381 16.5906C20.1381 17.2119 21.0433 17.3562 21.1372 19.1063V22.9037C21.1372 23.735 20.992 23.8881 20.6718 23.8881C19.8179 23.8881 17.7428 20.6769 16.5131 17.0019C16.2655 16.2888 16.0221 16 15.3774 16H12.8625C12.1452 16 12 16.3456 12 16.7306C12 17.4131 12.8539 20.8038 15.9751 25.2838C18.0545 28.3419 20.9835 30 23.6478 30C25.2489 30 25.4454 29.6325 25.4454 28.9981C25.4454 26.0756 25.3002 25.8 26.1029 25.8C26.4744 25.8 27.1148 25.9925 28.6092 27.4669C30.3171 29.2169 30.5989 30 31.5553 30H34.0702C34.7875 30 35.1504 29.6325 34.9412 28.9062C34.463 27.3794 31.2308 24.2381 31.0857 24.0281C30.7142 23.5381 30.8209 23.3194 31.0857 22.8819C31.0899 22.8775 34.1599 18.45 34.4758 16.9494Z" fill="white"/>
</svg>
